<?xml version="1.0" encoding="utf-8"?>
<!-- Generator: Adobe Illustrator 26.2.1, SVG Export Plug-In . SVG Version: 6.00 Build 0)  -->
<svg version="1.1" id="Layer_1" xmlns="http://www.w3.org/2000/svg" xmlns:xlink="http://www.w3.org/1999/xlink" x="0px" y="0px"
	 viewBox="0 0 687.69 375.52" style="enable-background:new 0 0 687.69 375.52;" xml:space="preserve">
<style type="text/css">
	.st0{fill-rule:evenodd;clip-rule:evenodd;fill:#E4E2E2;stroke:#E4E2E2;stroke-width:14;stroke-miterlimit:10;}
</style>
<path class="st0" d="M655.98,93.51l21.79,21.79l-249.9,249.9l-21.78-21.78L655.98,93.51L655.98,93.51z M343.82,93.51l0.91,0.91
	l0.03-0.03l51.34,51.34l-21.79,21.78l-30.45-30.46L115.7,365.2l-21.79-21.78L343.82,93.51L343.82,93.51z M594.09,343.73
	l-21.78,21.79l-52.15-52.14l21.79-21.79L594.09,343.73L594.09,343.73z M677.68,260.15l-21.78,21.79l-52.14-52.14l21.79-21.79
	L677.68,260.15L677.68,260.15z M428.34,10.81l51.35,51.34L457.9,83.94L406.55,32.6L428.34,10.81L428.34,10.81z M677.79,343.84
	L656,365.62l-94.05-94.04l21.79-21.78L677.79,343.84L677.79,343.84z M343.85,9.9l94.04,94.05l-21.8,21.78l-72.25-72.26L31.69,365.62
	L9.9,343.84L343.85,9.9L343.85,9.9L343.85,9.9L343.85,9.9z M572.39,9.93l21.79,21.78l-249.9,249.91l-0.11-0.11l-0.43,0.43
	L291.6,229.8l21.78-21.79l30.47,30.47L572.39,9.93L572.39,9.93z M656,9.9l21.79,21.79L365.63,343.84l-21.78,21.79l-94.04-94.04
	l21.78-21.78l72.26,72.26L656,9.9L656,9.9z M281.93,343.73l-21.78,21.79l-52.14-52.14l21.79-21.79L281.93,343.73L281.93,343.73z
	 M32.6,94.4l51.35,51.34l-21.79,21.78l-51.34-51.34L32.6,94.4L32.6,94.4z M116.19,10.81l51.35,51.34l-21.79,21.79L94.4,32.6
	L116.19,10.81L116.19,10.81z M31.69,9.9l94.04,94.05l-21.79,21.78L9.9,31.69L31.69,9.9L31.69,9.9z M260.23,9.93l21.79,21.78
	L32.12,281.62l-21.79-21.79L260.23,9.93L260.23,9.93z"/>
</svg>
