<?xml version="1.0" encoding="UTF-8"?>
<!DOCTYPE svg  PUBLIC '-//W3C//DTD SVG 1.1//EN'  'http://www.w3.org/Graphics/SVG/1.1/DTD/svg11.dtd'>
<svg enable-background="new 0 0 370 110" version="1.1" viewBox="0 0 370 110" xml:space="preserve" xmlns="http://www.w3.org/2000/svg">
<g fill="#fff">
	<path d="m81.444 66.462 2.288 6.429h-4.63l2.342-6.429zm37.493-37.174h5.154v1.432c1.133-1.122 2.823-1.778 4.722-1.778 4.336 0 7.033 2.881 7.033 7.519v5.513c0 1.324 0.221 1.324 0.665 1.324 0.17 0 0.351-0.031 0.487-0.059l0.616-0.125v4.519l-0.372 0.106c-0.536 0.154-1.172 0.229-1.945 0.229-2.103 0-4.605-0.884-4.605-5.092v-5.826c0-2.142-1.152-3.369-3.163-3.369-2.057 0-3.438 1.423-3.438 3.542v10.568h-5.154v-18.503zm-72.615 9.254c0-2.879 0.914-5.254 2.716-7.057 1.817-1.781 4.152-2.682 6.951-2.682 2.689 0 4.903 0.905 6.581 2.693 1.702 1.774 2.566 4.006 2.566 6.628 0 0.53-0.033 1.01-0.07 1.497l-0.036 0.474h-13.5c0.344 2.205 2.102 3.548 4.702 3.548 1.676 0 3.1-0.608 4.352-1.86l0.358-0.359 3.225 3.136-0.35 0.368c-2.068 2.177-4.667 3.281-7.724 3.281-2.875 0-5.245-0.877-7.047-2.606-1.807-1.733-2.724-4.063-2.724-6.923v-0.138zm-11.824-9.254h5.156v1.455c1.106-1.15 2.761-1.801 4.687-1.801 0.516 0 0.97 0.039 1.349 0.114l0.414 0.082v5.072l-0.615-0.124c-0.542-0.108-1.092-0.165-1.634-0.165-2.591 0-4.2 1.598-4.2 4.169v9.701h-5.156v-18.503zm-12.583 4.807v-4.807h2.185v-6.693h5.189v6.693h3.847v4.807h-3.847v7.29c0 1.763 0.562 2.086 1.67 2.086 0.542 0 0.967-0.041 1.34-0.126l0.629-0.146v4.763l-0.397 0.094c-0.623 0.147-1.386 0.222-2.267 0.222-4.034 0-6.165-2.228-6.165-6.443v-7.739h-2.184zm50.731 14.149c-3.643 0-6.437-1.391-7.67-3.819l-0.186-0.362 3.43-2.896 0.317 0.496c0.767 1.2 2.367 1.947 4.177 1.947 0.783 0 2.605-0.136 2.605-1.394 0-0.491-0.51-0.816-0.731-0.931l-0.036-0.022c-0.326-0.209-1.039-0.446-1.512-0.604-0.14-0.046-0.313-0.102-0.504-0.163-0.544-0.174-1.219-0.389-1.672-0.574-3.2-1.147-4.627-2.816-4.627-5.403 0-1.765 0.66-3.184 1.962-4.217 1.321-1.02 2.908-1.534 4.724-1.534 2.596 0 4.635 0.931 6.058 2.766l0.269 0.347-3.035 3.218-0.369-0.471c-0.656-0.837-1.663-1.259-2.992-1.259-0.739 0-1.602 0.274-1.602 1.046 0 0.326 0.126 0.502 0.562 0.781 0.097 0.061 0.404 0.22 1.303 0.568 0.476 0.128 1.273 0.41 1.918 0.635l0.275 0.097c3.478 1.233 5.026 2.988 5.026 5.687 0 3.737-2.947 6.061-7.69 6.061zm25.706-3.146c-1.965 2.109-4.448 3.18-7.38 3.18-2.807 0-5.201-0.935-7.116-2.779-1.922-1.847-2.896-4.201-2.896-6.992 0-2.769 0.974-5.11 2.896-6.959 1.939-1.867 4.334-2.814 7.116-2.814 2.932 0 5.415 1.071 7.38 3.18l0.332 0.357-3.276 3.41-0.37-0.393c-1.096-1.159-2.463-1.745-4.065-1.745-1.396 0-2.536 0.46-3.484 1.409-0.912 0.942-1.376 2.14-1.376 3.555s0.464 2.613 1.381 3.561c0.943 0.943 2.083 1.404 3.479 1.404 1.602 0 2.969-0.588 4.065-1.747l0.37-0.393 3.276 3.412-0.332 0.354zm2.195 0.401c-1.946-1.871-2.933-4.211-2.933-6.957s0.987-5.087 2.933-6.959c1.94-1.868 4.334-2.814 7.118-2.814 2.782 0 5.177 0.946 7.117 2.814 1.945 1.872 2.932 4.212 2.932 6.959 0 2.746-0.987 5.087-2.932 6.957-1.94 1.868-4.335 2.814-7.117 2.814-2.784 0-5.178-0.946-7.118-2.814zm36.863-13.855c-1.777 0-3.222-1.445-3.222-3.222 0-1.778 1.445-3.223 3.222-3.223 1.776 0 3.223 1.445 3.223 3.223 0 1.776-1.446 3.222-3.223 3.222zm-29.745 1.932c-1.429 0-2.578 0.471-3.515 1.44-0.928 0.96-1.381 2.114-1.381 3.526 0 1.399 0.453 2.564 1.381 3.561 0.948 0.943 2.098 1.403 3.515 1.403 1.396 0 2.537-0.46 3.485-1.41 0.946-0.978 1.41-2.144 1.41-3.554 0-1.419-0.461-2.571-1.41-3.521-0.942-0.975-2.08-1.445-3.485-1.445zm-48.92 0.817c-0.786-0.692-1.685-1.024-2.755-1.024-1.167 0-2.192 0.337-3.047 1.001-0.655 0.511-1.071 1.099-1.261 1.786h8.151c-0.123-0.668-0.486-1.258-1.088-1.763zm66.928 53.109c-8.571 0-12.946-5.205-13.478-10.364l-0.087-0.845 8.165-1.911 0.104 1.102c0.256 2.688 2.218 4.23 5.383 4.23 1.619 0 3.35-0.56 3.35-2.13 0-1.407-1.741-1.881-2.49-2.021l-4.181-0.752c-5.631-1.045-9.126-4.745-9.126-9.655 0-5.892 5.239-10.507 11.929-10.507 9.75 0 11.749 6.659 12.129 8.698l0.163 0.875-8.03 2.194-0.167-1.068c-0.107-0.682-0.72-2.908-4.138-2.908-2.016 0-3.221 1.125-3.221 2.214 0 0.41 0 1.497 2.225 1.894l4.106 0.754c5.944 1.067 9.639 4.846 9.639 9.864 0 5.011-4.302 10.336-12.275 10.336zm-17.287-0.632h-8.8v-31.589h8.8v31.589zm-47.123 0.015h-8.52l-5.408-16.748-5.443 16.748h-8.642l-8.651-31.618h9.426l4.069 15.708 5.111-15.708h8.434l5.102 15.71 3.991-15.71h9.182l-8.651 31.618zm15.71-31.604h9.182l12.068 31.589h-9.463l-2.188-6.023h-10.405l-2.189 6.023h-9.211l12.206-31.589zm-74.78-53.364v106.26h158.16v-106.26h-158.16z"/>
	<rect x="211.29" y="43.22" width="8.624" height="30.964"/>
	<path d="m191.21 60.479 2.294-6.302 2.244 6.302h-4.538zm6.911-17.259h-9.001l-11.963 30.964h9.028l2.146-5.905h10.2l2.146 5.905h9.275l-11.831-30.964z"/>
	<polygon points="301.02 34.422 279.84 34.422 279.84 3.429 288.58 3.429 288.58 26.001 301.02 26.001"/>
	<polygon points="213.09 34.422 204.74 34.422 199.44 18.004 194.1 34.422 185.63 34.422 177.16 3.429 186.39 3.429 190.38 18.826 195.39 3.429 203.66 3.429 208.66 18.83 212.57 3.429 221.57 3.429"/>
	<path d="m235.91 26.405c-3.573 0-7.178-2.319-7.178-7.5 0-5.209 3.604-7.542 7.178-7.542 3.555 0 7.139 2.333 7.139 7.542 0 5.181-3.584 7.5-7.139 7.5m0-23.583c-9.212 0-16.157 6.931-16.157 16.123 0 9.168 6.945 16.083 16.157 16.083 9.188 0 16.118-6.914 16.118-16.083 0-9.192-6.93-16.123-16.118-16.123z"/>
	<path d="m314.17 26.083h-2.584v-14.314h2.584c2.074 0 6.894 0.699 6.894 7.177-1e-3 6.441-4.82 7.137-6.894 7.137m0.286-22.654h-11.604v30.993h11.563c9.519 0 15.671-6.075 15.671-15.477 0-9.426-6.135-15.516-15.63-15.516z"/>
	<path d="m265.67 15.929h-2.626v-4.645h2.626c1.93 0 2.909 0.781 2.909 2.322 0 2.02-1.823 2.323-2.909 2.323m6.467 6.309c3.317-1.647 5.261-4.806 5.261-8.673 0-5.968-4.322-10.136-10.507-10.136h-12.582v30.993h8.735v-10.68h0.396l5.162 10.68h9.677l-6.142-12.184z"/>
	<path d="m246.27 74.804c-8.402 0-12.69-5.103-13.213-10.161l-0.085-0.829 8.004-1.875 0.102 1.08c0.252 2.635 2.174 4.148 5.276 4.148 1.587 0 3.283-0.549 3.283-2.089 0-1.379-1.706-1.844-2.439-1.98l-4.101-0.737c-5.519-1.026-8.945-4.652-8.945-9.464 0-5.775 5.138-10.3 11.696-10.3 9.556 0 11.517 6.526 11.887 8.526l0.16 0.858-7.869 2.149-0.166-1.046c-0.102-0.668-0.705-2.85-4.055-2.85-1.975 0-3.156 1.104-3.156 2.169 0 0.402 0 1.469 2.179 1.857l4.024 0.74c5.829 1.045 9.45 4.75 9.45 9.669 0 4.914-4.217 10.135-12.032 10.135"/>
	<polygon points="359.78 74.188 351.48 74.188 345.77 56.966 340.02 74.188 331.6 74.188 322.9 43.213 331.99 43.213 336.32 59.481 341.75 43.213 349.97 43.213 355.39 59.494 359.64 43.213 368.47 43.213"/>
	<polygon points="288.25 74.188 279.63 74.188 279.63 62.622 269.55 62.622 269.55 74.188 260.97 74.188 260.97 43.213 269.55 43.213 269.55 54.616 279.63 54.616 279.63 43.213 288.25 43.213"/>
	<path d="m307.65 66.511c-3.846 0-7.727-2.422-7.727-7.831 0-5.437 3.881-7.871 7.727-7.871 3.7 0 7.684 2.462 7.684 7.871s-3.86 7.831-7.684 7.831m0-23.914c-9.441 0-16.56 6.932-16.56 16.125 0 9.167 7.118 16.082 16.56 16.082 9.417 0 16.518-6.915 16.518-16.082 0-9.193-7.101-16.125-16.518-16.125z"/>
		<path d="m217.5 94.603h-1.74v4.124h1.74c1.032 0 1.549-0.484 1.549-1.456v-1.21c0-0.972-0.517-1.458-1.549-1.458z"/>
		<path d="m218.93 91.539v-1.115c0-0.97-0.517-1.456-1.551-1.456h-1.625v4.047h1.625c1.034 0 1.551-0.492 1.551-1.476z"/>
		<polygon points="225.34 95.32 227.9 95.32 226.61 89.102"/>
		<path d="m263.84 88.987h-1.513v4.785h1.513c0.531 0 0.912-0.12 1.143-0.36 0.234-0.24 0.352-0.604 0.352-1.096v-1.91c-1e-3 -0.946-0.5-1.419-1.495-1.419z"/>
		<path d="m207.83 88.875c-1.097 0-1.646 0.516-1.646 1.549v6.847c0 1.047 0.549 1.568 1.646 1.568 1.096 0 1.646-0.521 1.646-1.568v-6.847c-1e-3 -1.033-0.55-1.549-1.646-1.549z"/>
		<path d="m177.16 80.238v27.074h122.54v-27.074h-122.54zm17.348 19.358c-0.921 0.504-1.951 0.758-3.092 0.758-1.142 0-2.015-0.236-2.618-0.71-0.606-0.473-0.909-1.181-0.909-2.127v-7.242c0-0.921 0.312-1.641 0.936-2.156 0.624-0.518 1.572-0.775 2.846-0.775 0.857 0 1.656 0.108 2.401 0.32v1.702c-0.756-0.252-1.55-0.378-2.382-0.378-1.337 0-2.004 0.48-2.004 1.437v6.959c0 0.909 0.554 1.361 1.664 1.361 0.617 0 1.083-0.104 1.398-0.32v-4.635h1.76v5.806zm8.265 0.663h-5.542v-12.821h1.795v11.289h3.747v1.532zm8.489-2.913c0 0.932-0.29 1.682-0.869 2.25-0.582 0.567-1.432 0.853-2.554 0.853-1.121 0-1.974-0.285-2.553-0.853-0.58-0.568-0.869-1.318-0.869-2.25v-6.977c0-0.947 0.286-1.702 0.858-2.271 0.575-0.567 1.426-0.851 2.553-0.851 1.13 0 1.982 0.287 2.564 0.86 0.579 0.574 0.869 1.326 0.869 2.261v6.978zm9.549 0c0 0.946-0.263 1.666-0.783 2.166-0.525 0.497-1.297 0.747-2.316 0.747h-3.727v-12.821h3.611c1.022 0 1.795 0.25 2.315 0.747 0.526 0.498 0.787 1.22 0.787 2.164v1.116c0 1.198-0.454 1.967-1.362 2.308 0.984 0.326 1.475 1.119 1.475 2.383v1.19zm8.112 2.913-0.7-3.405h-3.175l-0.701 3.405h-1.739l2.799-12.821h2.496l2.761 12.821h-1.741zm9.285 0h-5.54v-12.821h1.797v11.289h3.743v1.532zm11.874-2.781c0 0.922-0.32 1.629-0.964 2.128-0.643 0.498-1.546 0.748-2.713 0.748-1.166 0-2.102-0.132-2.809-0.397v-1.702c0.833 0.302 1.708 0.453 2.628 0.453 1.375 0 2.063-0.465 2.063-1.399v-0.644c0-0.377-0.071-0.671-0.209-0.879-0.138-0.207-0.396-0.411-0.773-0.614l-2.139-1.172c-1.121-0.606-1.682-1.508-1.682-2.704v-1.136c0-0.896 0.293-1.588 0.88-2.082 0.585-0.489 1.421-0.735 2.504-0.735 1.084 0 1.968 0.112 2.647 0.338v1.702c-0.68-0.262-1.507-0.396-2.477-0.396-1.172 0-1.76 0.435-1.76 1.305v0.737c0 0.403 0.079 0.723 0.236 0.955 0.157 0.233 0.438 0.464 0.842 0.69l2.193 1.229c1.021 0.555 1.531 1.393 1.531 2.515v1.06zm8.114-8.471h-4.066v3.988h3.536v1.57h-3.536v4.142h4.066v1.552h-5.844v-12.821h5.844v1.569zm7.396 11.252-1.837-4.993h-1.418v4.993h-1.778v-12.821h3.441c1.009 0 1.781 0.252 2.317 0.755 0.535 0.506 0.803 1.204 0.803 2.1v2.042c0 1.399-0.535 2.3-1.606 2.705l2.043 5.22h-1.965zm6.104 0h-1.797v-12.821h1.797v12.821zm8.737-11.252h-4.066v3.988h3.538v1.57h-3.538v4.142h4.066v1.552h-5.843v-12.821h5.843v1.569zm8.282 8.471c0 0.922-0.319 1.629-0.963 2.128-0.646 0.498-1.547 0.748-2.713 0.748-1.168 0-2.104-0.132-2.81-0.397v-1.702c0.832 0.302 1.709 0.453 2.63 0.453 1.372 0 2.059-0.465 2.059-1.399v-0.644c0-0.377-0.066-0.671-0.206-0.879-0.139-0.207-0.397-0.411-0.774-0.614l-2.138-1.172c-1.124-0.606-1.683-1.508-1.683-2.704v-1.136c0-0.896 0.291-1.588 0.878-2.082 0.586-0.489 1.421-0.735 2.507-0.735 1.084 0 1.967 0.112 2.646 0.338v1.702c-0.679-0.262-1.505-0.396-2.476-0.396-1.171 0-1.757 0.435-1.757 1.305v0.737c0 0.403 0.076 0.723 0.233 0.955 0.158 0.233 0.44 0.464 0.844 0.69l2.192 1.229c1.021 0.555 1.53 1.393 1.53 2.515v1.06z"/>
</g>
</svg>
