<?xml version="1.0" encoding="utf-8"?>
<!-- Generator: Adobe Illustrator 16.0.0, SVG Export Plug-In . SVG Version: 6.00 Build 0)  -->
<!DOCTYPE svg PUBLIC "-//W3C//DTD SVG 1.1//EN" "http://www.w3.org/Graphics/SVG/1.1/DTD/svg11.dtd">
<svg version="1.1" id="Layer_1" xmlns="http://www.w3.org/2000/svg" xmlns:xlink="http://www.w3.org/1999/xlink" x="0px" y="0px"
	 width="672.303px" height="187.255px" viewBox="1395.156 208.225 672.303 187.255"
	 enable-background="new 1395.156 208.225 672.303 187.255" xml:space="preserve">
<g>
	<g>
		<path fill="#FFFFFF" d="M1546.896,334.562h-8.971v14.42h8.971c4.137,0,6.203-1.313,6.203-3.957v-6.518
			C1553.099,335.89,1551.033,334.562,1546.896,334.562z"/>
		<path fill="#FFFFFF" d="M1552.312,318.416v-5.971c0-2.635-2.074-3.951-6.207-3.951h-8.18v13.857h8.18
			C1550.238,322.351,1552.312,321.051,1552.312,318.416z"/>
		<path fill="#FFFFFF" d="M1579.941,260.857c-2.502,0-4.51,0.826-6.16,2.523c-1.621,1.682-2.416,3.691-2.416,6.17
			c0,2.447,0.795,4.49,2.416,6.242c1.664,1.65,3.678,2.457,6.16,2.457c2.443,0,4.449-0.811,6.104-2.469
			c1.656-1.725,2.475-3.75,2.475-6.23c0-2.486-0.811-4.5-2.475-6.158C1584.402,261.683,1582.402,260.857,1579.941,260.857z"/>
		<path fill="#FFFFFF" d="M1494.234,262.285c-1.381-1.211-2.949-1.793-4.828-1.793c-2.049,0-3.846,0.594-5.342,1.746
			c-1.145,0.902-1.879,1.93-2.211,3.133h14.281C1495.925,264.203,1495.285,263.172,1494.234,262.285z"/>
		<path fill="#FFFFFF" d="M1395.156,208.225v186.167h277.102V208.225H1395.156z M1599.689,253.344h9.033v2.508
			c1.99-1.971,4.943-3.109,8.27-3.109c7.602,0,12.328,5.039,12.328,13.17v9.66c0,2.316,0.385,2.316,1.158,2.316
			c0.299,0,0.615-0.061,0.859-0.105l1.076-0.221v7.92l-0.654,0.176c-0.939,0.273-2.055,0.406-3.41,0.406
			c-3.676,0-8.068-1.549-8.068-8.918v-10.207c0-3.752-2.014-5.904-5.535-5.904c-3.604,0-6.027,2.49-6.027,6.213v18.508h-9.033
			v-32.412H1599.689z M1538.226,257.295c3.398-3.27,7.6-4.918,12.475-4.918c5.131,0,9.486,1.865,12.922,5.564l0.588,0.629
			l-5.748,5.967l-0.643-0.678c-1.922-2.039-4.313-3.059-7.119-3.059c-2.445,0-4.449,0.807-6.104,2.469
			c-1.596,1.652-2.418,3.742-2.418,6.221c0,2.484,0.822,4.582,2.426,6.244c1.646,1.652,3.65,2.459,6.096,2.459
			c2.807,0,5.197-1.031,7.119-3.061l0.643-0.688l5.748,5.971l-0.588,0.629c-3.439,3.691-7.791,5.564-12.922,5.564
			c-4.92,0-9.123-1.629-12.475-4.865c-3.361-3.234-5.074-7.355-5.074-12.254C1533.152,264.644,1534.865,260.545,1538.226,257.295z
			 M1510.798,255.117c2.318-1.781,5.098-2.691,8.271-2.691c4.551,0,8.117,1.631,10.619,4.846l0.467,0.617l-5.316,5.625l-0.646-0.822
			c-1.15-1.461-2.916-2.199-5.242-2.199c-1.293,0-2.801,0.475-2.801,1.826c0,0.572,0.217,0.875,0.979,1.379
			c0.176,0.102,0.707,0.375,2.283,0.988c0.838,0.229,2.23,0.713,3.361,1.104l0.486,0.168c6.082,2.17,8.801,5.246,8.801,9.973
			c0,6.545-5.162,10.623-13.471,10.623c-6.379,0-11.281-2.441-13.443-6.691l-0.322-0.637l6.01-5.066l0.551,0.854
			c1.348,2.113,4.15,3.426,7.328,3.426c1.365,0,4.555-0.244,4.555-2.439c0-0.867-0.887-1.432-1.279-1.641l-0.064-0.037
			c-0.574-0.363-1.822-0.781-2.645-1.055c-0.248-0.092-0.553-0.18-0.891-0.289c-0.943-0.301-2.131-0.686-2.924-1.002
			c-5.609-2.014-8.105-4.939-8.105-9.469C1507.361,259.41,1508.519,256.929,1510.798,255.117z M1472.468,269.551
			c0-5.031,1.602-9.203,4.762-12.367c3.182-3.109,7.273-4.686,12.176-4.686c4.707,0,8.59,1.576,11.531,4.705
			c2.98,3.117,4.492,7.023,4.492,11.623c0,0.926-0.055,1.764-0.119,2.619l-0.064,0.834h-23.65c0.598,3.852,3.68,6.211,8.232,6.211
			c2.941,0,5.436-1.064,7.623-3.258l0.637-0.627l5.646,5.492l-0.619,0.646c-3.619,3.811-8.176,5.75-13.527,5.75
			c-5.039,0-9.188-1.541-12.344-4.566c-3.17-3.037-4.775-7.121-4.775-12.127V269.551L1472.468,269.551z M1451.748,253.344h9.035
			v2.547c1.938-2.01,4.838-3.148,8.215-3.148c0.9,0,1.693,0.059,2.359,0.191l0.723,0.148v8.879l-1.078-0.209
			c-0.943-0.195-1.91-0.289-2.857-0.289c-4.537,0-7.361,2.793-7.361,7.295v16.998h-9.035V253.344L1451.748,253.344z
			 M1429.71,253.344h3.824v-11.73h9.086v11.73h6.748v8.42h-6.748v12.773c0,3.09,0.99,3.656,2.932,3.656
			c0.955,0,1.697-0.082,2.348-0.232l1.107-0.242v8.338l-0.701,0.16c-1.088,0.271-2.424,0.389-3.969,0.389
			c-7.068,0-10.799-3.898-10.799-11.277v-13.564h-3.828V253.344L1429.71,253.344z M1496.761,360.545h-17.678l-5.408-25.152
			l-2.902-17.527c-0.707,6.789-1.586,12.639-2.641,17.527l-5.541,25.152h-18.871l-11.738-63.613h17.277
			c3.344,16.717,5.195,26.463,5.549,29.287c0.346,2.809,0.662,5.865,0.916,9.17c1.326-8.443,3.521-21.266,6.607-38.457h16.752
			l6.199,37.82c0.441-6.119,1.191-11.75,2.242-16.891l4.357-20.93h17.01L1496.761,360.545z M1572.625,345.949
			c0,9.729-7.475,14.596-22.426,14.596h-32.063v-63.613h31.271c14.945,0,22.426,4.855,22.426,14.596v5.961
			c0,5.938-3.121,9.588-9.367,10.928c6.779,1.1,10.162,4.768,10.162,11.018v6.516H1572.625z M1567.476,281.744
			c-3.412-3.271-5.139-7.379-5.139-12.186c0-4.822,1.727-8.918,5.139-12.195c3.391-3.273,7.592-4.938,12.469-4.938
			c4.871,0,9.068,1.664,12.471,4.938c3.406,3.277,5.135,7.373,5.135,12.195c0,4.814-1.729,8.914-5.135,12.186
			c-3.398,3.277-7.6,4.926-12.471,4.926C1575.068,286.67,1570.867,285.021,1567.476,281.744z M1635.429,345.588
			c0,4.951-2.641,8.762-7.922,11.426c-5.266,2.656-12.688,3.992-22.227,3.992c-9.545,0-16.734-0.699-21.568-2.115v-13.303
			c5.975,1.777,12.746,2.66,20.316,2.66c7.559,0,11.346-1.502,11.346-4.498v-1.387c0-1.396-0.418-2.453-1.252-3.158
			c-0.834-0.707-2.398-1.484-4.686-2.344l-14.117-5.326c-8.533-3.299-12.795-7.951-12.795-13.947v-5.787
			c0-4.898,2.371-8.67,7.125-11.334c4.746-2.664,11.586-4,20.514-4c8.926,0,15.582,0.643,19.982,1.934v13.223
			c-5.361-1.6-11.471-2.398-18.334-2.398c-3.52,0-5.898,0.389-7.133,1.154c-1.225,0.768-1.846,1.857-1.846,3.262v1.369
			c0,1.717,0.42,2.984,1.256,3.818c0.834,0.832,2.656,1.75,5.48,2.793l15.039,5.881c7.207,2.748,10.82,6.877,10.82,12.389V345.588
			L1635.429,345.588z M1632.058,257.469c-3.115,0-5.646-2.533-5.646-5.639c0-3.121,2.531-5.652,5.646-5.652
			c3.107,0,5.639,2.531,5.639,5.652C1637.697,254.935,1635.166,257.469,1632.058,257.469z"/>
	</g>
	<g>
		<path fill="#FFFFFF" d="M1736.986,212.473h9.846l-7.025,52.89h-10.229l-3.123-20.914l-1.684-14.578
			c-0.41,5.652-0.914,10.51-1.525,14.578l-3.205,20.914h-10.914l-6.791-52.89h9.992c1.941,13.894,3.01,22.011,3.207,24.349
			c0.207,2.34,0.385,4.883,0.543,7.627c0.762-7.02,2.029-17.68,3.814-31.983h9.689l3.586,31.45c0.254-5.088,0.686-9.77,1.297-14.045
			L1736.986,212.473z"/>
		<path fill="#FFFFFF" d="M1752.933,225.369c0-4.172,1.352-7.491,4.043-9.962c2.701-2.465,6.664-3.695,11.904-3.695
			c5.244,0,9.227,1.23,11.947,3.695c2.725,2.471,4.08,5.79,4.08,9.962v27.096c0,4.176-1.355,7.494-4.08,9.961
			c-2.721,2.469-6.703,3.699-11.947,3.699c-5.24,0-9.203-1.23-11.904-3.699c-2.691-2.467-4.043-5.785-4.043-9.961V225.369z
			 M1773.466,225.978c0-2.539-1.512-3.818-4.547-3.818c-3.023,0-4.545,1.279-4.545,3.818v25.873c0,2.547,1.521,3.822,4.545,3.822
			c3.031,0,4.547-1.275,4.547-3.822V225.978z"/>
		<path fill="#FFFFFF" d="M1805.517,246.279v19.084h-11.449v-52.89h17.242c4.184,0,7.434,0.99,9.781,2.977
			c2.342,1.982,3.514,4.883,3.514,8.694v9.773c0,6.109-2.096,9.922-6.268,11.445l8.322,20h-12.594l-7.098-19.084H1805.517z
			 M1805.517,222.24v14.959h4.504c1.168,0,1.99-0.26,2.436-0.758c0.459-0.514,0.693-1.404,0.693-2.68v-8.625
			c0-1.115-0.252-1.879-0.762-2.283c-0.512-0.412-1.299-0.617-2.367-0.617h-4.504V222.24z"/>
		<path fill="#FFFFFF" d="M1833.919,212.473h11.592v43.272h14.121v9.617h-25.713V212.473z"/>
		<path fill="#FFFFFF" d="M1866.5,212.473h18.543c4.117,0,7.314,0.99,9.582,2.977c2.258,1.982,3.396,4.906,3.396,8.778v28.693
			c0,8.297-4.1,12.441-12.287,12.441H1866.5V212.473z M1886.572,224.679c0-0.908-0.209-1.605-0.654-2.092
			c-0.426-0.48-1.26-0.725-2.475-0.725h-5.488v33.654h5.488c2.082,0,3.129-1.168,3.129-3.506V224.679z"/>
		<path fill="#FFFFFF" d="M1736.441,289.289v4.963c0,4.934-1.809,7.965-5.416,9.082c3.916,0.912,5.883,3.965,5.883,9.152v5.424
			c0,8.092-4.33,12.131-12.979,12.131h-18.545v-52.887h18.084C1732.125,277.154,1736.441,281.197,1736.441,289.289z
			 M1721.566,286.769h-4.73v11.523h4.73c2.387,0,3.594-1.092,3.594-3.283v-4.963C1725.16,287.865,1723.953,286.769,1721.566,286.769
			z M1725.617,317.144v-5.42c0-2.188-1.203-3.283-3.594-3.283h-5.188v11.984h5.188
			C1724.414,320.429,1725.617,319.334,1725.617,317.144z"/>
		<path fill="#FFFFFF" d="M1746.064,277.154h11.6v43.275h14.121v9.611h-25.721V277.154L1746.064,277.154z"/>
		<path fill="#FFFFFF" d="M1777.894,290.047c0-4.168,1.34-7.486,4.041-9.949c2.703-2.475,6.66-3.713,11.902-3.713
			c5.244,0,9.225,1.238,11.947,3.713c2.721,2.463,4.084,5.781,4.084,9.949v27.098c0,4.176-1.363,7.494-4.084,9.961
			c-2.723,2.471-6.703,3.699-11.947,3.699c-5.242,0-9.199-1.229-11.902-3.699c-2.701-2.467-4.041-5.785-4.041-9.961V290.047z
			 M1798.416,290.662c0-2.545-1.512-3.813-4.541-3.813c-3.025,0-4.537,1.268-4.537,3.813v25.875c0,2.541,1.508,3.816,4.537,3.816
			c3.025,0,4.541-1.275,4.541-3.816V290.662z"/>
		<path fill="#FFFFFF" d="M1818.265,289.672c0-4.07,1.41-7.242,4.23-9.502c2.826-2.266,7.092-3.396,12.789-3.396
			c3.771,0,6.973,0.352,9.619,1.07v10.527c-2.852-0.863-5.664-1.293-8.436-1.293c-2.773,0-4.563,0.314-5.385,0.951
			c-0.809,0.639-1.223,1.568-1.223,2.785v25.646c0,2.447,1.922,3.66,5.77,3.66c3.842,0,7.004-0.377,9.492-1.145v10.307
			c-2.74,0.762-6.066,1.145-9.982,1.145c-5.705,0-9.941-1.121-12.721-3.355c-2.77-2.246-4.154-5.398-4.154-9.467V289.672
			L1818.265,289.672z"/>
		<path fill="#FFFFFF" d="M1864.968,330.045h-11.453v-52.891h11.453v23.807l8.705-23.807h12.207l-9.691,25.566l10.607,27.324
			h-12.746l-9.082-25.262V330.045L1864.968,330.045z"/>
		<path fill="#FFFFFF" d="M1892.91,289.672c0-4.07,1.412-7.242,4.236-9.502c2.82-2.266,7.082-3.396,12.787-3.396
			c3.758,0,6.969,0.352,9.615,1.07v10.527c-2.855-0.863-5.664-1.293-8.443-1.293c-2.77,0-4.563,0.314-5.373,0.951
			c-0.814,0.639-1.223,1.568-1.223,2.785v25.646c0,2.447,1.92,3.66,5.764,3.66c3.836,0,7.006-0.377,9.5-1.145v10.307
			c-2.752,0.762-6.078,1.145-9.99,1.145c-5.707,0-9.947-1.121-12.725-3.355c-2.756-2.246-4.148-5.398-4.148-9.467V289.672
			L1892.91,289.672z"/>
		<path fill="#FFFFFF" d="M1950.3,277.154h11.594v52.891H1950.3v-20.912h-10.541v20.912h-11.598v-52.891h11.598v21.748h10.541
			V277.154z"/>
		<path fill="#FFFFFF" d="M1994.414,330.045l-2.215-12.211h-10.449l-2.07,12.211h-10.904l10.367-52.891h15.959l10.232,52.891
			H1994.414z M1983.357,308.14h7.162l-3.658-20.451L1983.357,308.14z"/>
		<path fill="#FFFFFF" d="M2012.191,277.154h11.602v52.891h-11.602V277.154z"/>
		<path fill="#FFFFFF" d="M2056.148,277.154h11.311v52.891h-11.006c-7.518-19.236-11.879-30.83-13.047-34.805
			c1.076,4.023,1.605,10.939,1.605,20.764v14.041h-11.293v-52.891h11.293l6.955,17.707c2.938,7.584,4.928,13.332,5.943,17.248
			c-1.172-4.932-1.762-12.16-1.762-21.672V277.154z"/>
		<path fill="#FFFFFF" d="M1703.474,354.201c0-4.072,1.375-7.217,4.123-9.424c2.748-2.219,6.701-3.326,11.871-3.326
			c5.166,0,9.01,0.541,11.557,1.609v10.988c-3.107-1.324-6.639-1.982-10.604-1.982c-2.037,0-3.406,0.318-4.123,0.951
			c-0.709,0.637-1.072,1.541-1.072,2.709v1.146c0,1.424,0.244,2.482,0.725,3.166c0.488,0.686,1.547,1.459,3.168,2.326l8.701,4.883
			c4.172,2.291,6.264,5.729,6.264,10.311v4.727c0,4.123-1.537,7.289-4.582,9.504c-3.051,2.211-7.338,3.324-12.859,3.324
			c-5.525,0-9.682-0.592-12.477-1.76v-11.068c3.453,1.473,7.369,2.213,11.75,2.213c4.367,0,6.568-1.246,6.568-3.742v-1.146
			c0-1.164-0.244-2.047-0.727-2.629c-0.484-0.586-1.391-1.238-2.711-1.949l-8.17-4.422c-4.936-2.748-7.406-6.619-7.406-11.605
			v-4.803H1703.474L1703.474,354.201z"/>
		<path fill="#FFFFFF" d="M1761.783,341.832h11.455v39.994c0,4.174-1.34,7.492-4.006,9.959c-2.674,2.467-6.611,3.695-11.834,3.695
			c-5.215,0-9.162-1.213-11.826-3.656c-2.68-2.439-4.012-5.781-4.012-9.998v-39.994h11.449v39.385c0,2.545,1.465,3.816,4.389,3.816
			s4.391-1.271,4.391-3.816v-39.385H1761.783z"/>
		<path fill="#FFFFFF" d="M1825.443,341.832v52.893h-11.072v-18.393c0-5.293,0.484-10.512,1.449-15.645l-7.318,20.605h-8.861
			l-7.322-20.605c0.959,4.73,1.451,9.939,1.451,15.645v18.393h-10.992v-52.893h11.752l9.539,27.021l9.545-27.021H1825.443z"/>
		<path fill="#FFFFFF" d="M1878.023,341.832v52.893h-11.066v-18.393c0-5.293,0.486-10.512,1.449-15.645l-7.322,20.605h-8.865
			l-7.314-20.605c0.963,4.73,1.441,9.939,1.441,15.645v18.393h-10.988v-52.893h11.75l9.545,27.021l9.543-27.021H1878.023z"/>
		<path fill="#FFFFFF" d="M1887.945,341.832h11.605v52.893h-11.605V341.832z"/>
		<path fill="#FFFFFF" d="M1937.093,341.832v9.922h-9.529v42.971h-11.609v-42.971h-9.537v-9.922H1937.093L1937.093,341.832z"/>
	</g>
</g>
</svg>
