<?xml version="1.0" encoding="utf-8"?>
<!-- Generator: Adobe Illustrator 16.0.0, SVG Export Plug-In . SVG Version: 6.00 Build 0)  -->
<!DOCTYPE svg PUBLIC "-//W3C//DTD SVG 1.1//EN" "http://www.w3.org/Graphics/SVG/1.1/DTD/svg11.dtd">
<svg version="1.1" id="Isolation_Mode" xmlns="http://www.w3.org/2000/svg" xmlns:xlink="http://www.w3.org/1999/xlink" x="0px"
	 y="0px" width="657.333px" height="165.333px" viewBox="0 0 657.333 165.333" enable-background="new 0 0 657.333 165.333"
	 xml:space="preserve">
<g>
	<g>
		<polygon fill="#FFFFFF" points="336.62,13.5 327.504,52.6 314.032,52.6 308.62,28.466 303.208,52.6 289.732,52.6 280.621,13.5 
			292.328,13.5 296.635,40.12 302.655,13.5 314.529,13.5 320.602,40.12 324.912,13.5 		"/>
		<path fill="#FFFFFF" d="M367.54,15.46c3.035,1.713,5.428,4.099,7.18,7.153c1.746,3.056,2.623,6.496,2.623,10.328
			c0,3.828-0.885,7.271-2.65,10.324c-1.77,3.057-4.17,5.44-7.207,7.153c-3.039,1.711-6.379,2.567-10.023,2.567
			s-6.996-0.856-10.051-2.567c-3.057-1.713-5.469-4.097-7.234-7.153c-1.768-3.055-2.65-6.496-2.65-10.324
			c0-3.832,0.885-7.272,2.65-10.328c1.768-3.057,4.178-5.44,7.234-7.153c3.055-1.711,6.406-2.567,10.051-2.567
			C361.139,12.893,364.5,13.75,367.54,15.46 M350.946,25.624c-1.586,1.785-2.377,4.225-2.377,7.318c0,3.018,0.791,5.428,2.377,7.232
			c1.58,1.805,3.754,2.705,6.516,2.705c2.723,0,4.877-0.9,6.461-2.705c1.582-1.805,2.373-4.215,2.373-7.232
			c0-3.094-0.781-5.533-2.346-7.318c-1.566-1.787-3.729-2.68-6.488-2.68S352.526,23.836,350.946,25.624"/>
		<path fill="#FFFFFF" d="M402.083,52.6l-7.898-14.416h-1.104V52.6H382.2V13.5h17.176c3.129,0,5.789,0.544,7.979,1.629
			c2.191,1.087,3.842,2.588,4.943,4.501c1.104,1.915,1.656,4.068,1.656,6.46c0,2.728-0.754,5.09-2.264,7.099
			c-1.512,2.006-3.684,3.414-6.518,4.225l8.891,15.186h-11.98V52.6z M393.079,30.897h5.355c3.02,0,4.529-1.361,4.529-4.088
			c0-1.287-0.377-2.299-1.131-3.035c-0.756-0.736-1.889-1.104-3.398-1.104h-5.355V30.897z"/>
		<polygon fill="#FFFFFF" points="429.141,44.373 441.344,44.373 441.344,52.6 418.26,52.6 418.26,13.5 429.141,13.5 		"/>
		<path fill="#FFFFFF" d="M478.842,43.073c-1.658,2.963-4.014,5.295-7.066,6.986c-3.059,1.693-6.648,2.541-10.771,2.541H445.43V13.5
			h15.574c4.121,0,7.721,0.819,10.797,2.458c3.074,1.641,5.432,3.932,7.068,6.875c1.637,2.945,2.457,6.314,2.457,10.107
			S480.499,40.108,478.842,43.073 M467.577,40.286c1.84-1.729,2.762-4.178,2.762-7.346c0-3.129-0.922-5.567-2.762-7.316
			c-1.842-1.75-4.363-2.624-7.566-2.624h-3.699v19.88h3.699C463.211,42.879,465.735,42.016,467.577,40.286"/>
		<path fill="#FFFFFF" d="M308.922,64.595c2.633,1.231,4.777,2.981,6.435,5.245c1.655,2.266,2.778,4.889,3.368,7.871h-11.432
			c-0.627-1.547-1.603-2.753-2.927-3.618c-1.324-0.864-2.854-1.297-4.584-1.297c-2.393,0-4.326,0.894-5.798,2.679
			c-1.473,1.786-2.208,4.17-2.208,7.152c0,2.98,0.736,5.375,2.208,7.178c1.473,1.805,3.405,2.707,5.798,2.707
			c1.729,0,3.259-0.443,4.584-1.324c1.325-0.885,2.3-2.1,2.927-3.646h11.432c-0.883,4.564-2.973,8.203-6.268,10.906
			c-3.295,2.707-7.465,4.061-12.509,4.061c-3.866,0-7.244-0.835-10.133-2.513c-2.892-1.675-5.119-4.022-6.682-7.04
			c-1.566-3.02-2.348-6.463-2.348-10.327c0-3.866,0.782-7.31,2.348-10.329c1.563-3.018,3.791-5.363,6.682-7.04
			c2.889-1.674,6.267-2.513,10.133-2.513C303.298,62.745,306.291,63.362,308.922,64.595"/>
		<polygon fill="#FFFFFF" points="334.463,94.003 346.668,94.003 346.668,102.231 323.584,102.231 323.584,63.13 334.463,63.13 		
			"/>
		<path fill="#FFFFFF" d="M376.981,65.09c3.037,1.713,5.432,4.098,7.18,7.152c1.75,3.057,2.623,6.5,2.623,10.326
			c0,3.83-0.883,7.271-2.65,10.328c-1.768,3.055-4.17,5.439-7.207,7.15c-3.037,1.712-6.379,2.566-10.021,2.566
			c-3.646,0-6.996-0.854-10.051-2.566c-3.059-1.711-5.469-4.096-7.236-7.15c-1.766-3.057-2.65-6.498-2.65-10.328
			c0-3.828,0.885-7.27,2.65-10.326c1.77-3.055,4.18-5.439,7.236-7.152c3.055-1.711,6.402-2.566,10.051-2.566
			C370.583,62.524,373.944,63.379,376.981,65.09 M360.385,75.254c-1.584,1.784-2.373,4.225-2.373,7.316
			c0,3.02,0.789,5.432,2.373,7.233c1.584,1.806,3.756,2.707,6.52,2.707c2.721,0,4.877-0.901,6.461-2.707
			c1.582-1.803,2.373-4.215,2.373-7.233c0-3.092-0.783-5.532-2.348-7.316c-1.564-1.787-3.729-2.68-6.486-2.68
			C364.141,72.575,361.969,73.467,360.385,75.254"/>
		<path fill="#FFFFFF" d="M402.247,63.13v22.312c0,2.209,0.486,3.914,1.463,5.107c0.975,1.198,2.457,1.796,4.445,1.796
			s3.488-0.608,4.502-1.819c1.012-1.219,1.518-2.91,1.518-5.084V63.13h10.824v22.312c0,3.683-0.746,6.813-2.236,9.391
			c-1.49,2.576-3.523,4.52-6.102,5.824c-2.578,1.309-5.488,1.959-8.727,1.959c-3.24,0-6.102-0.641-8.586-1.932
			c-2.486-1.287-4.43-3.221-5.826-5.799c-1.4-2.576-2.102-5.725-2.102-9.443V63.13H402.247z"/>
		<path fill="#FFFFFF" d="M464.153,92.706c-1.656,2.964-4.016,5.293-7.07,6.984c-3.053,1.693-6.645,2.541-10.768,2.541h-15.572
			V63.13h15.572c4.123,0,7.721,0.819,10.797,2.458c3.072,1.641,5.43,3.93,7.068,6.875c1.637,2.945,2.457,6.314,2.457,10.105
			C466.637,86.364,465.809,89.743,464.153,92.706 M452.885,89.916c1.842-1.729,2.764-4.177,2.764-7.345
			c0-3.129-0.922-5.569-2.764-7.316c-1.842-1.749-4.363-2.624-7.563-2.624h-3.701v19.881h3.701
			C448.522,92.511,451.043,91.647,452.885,89.916"/>
		<path fill="#FFFFFF" d="M509.213,96.875c-1.104,1.768-2.723,3.166-4.859,4.195c-2.135,1.031-4.691,1.545-7.676,1.545
			c-4.529,0-8.256-1.084-11.184-3.256c-2.926-2.172-4.52-5.265-4.775-9.275h11.541c0.111,1.359,0.533,2.372,1.271,3.035
			c0.736,0.662,1.637,0.994,2.707,0.994c0.955,0,1.701-0.241,2.236-0.719c0.531-0.479,0.801-1.158,0.801-2.043
			c0-1.179-0.533-2.088-1.604-2.732c-1.066-0.645-2.762-1.354-5.08-2.127c-2.467-0.846-4.5-1.676-6.102-2.486
			c-1.604-0.811-2.982-2.023-4.145-3.645c-1.158-1.621-1.736-3.699-1.736-6.24c0-2.43,0.625-4.52,1.877-6.268
			c1.252-1.75,2.963-3.076,5.135-3.977c2.172-0.902,4.639-1.354,7.398-1.354c4.494,0,8.072,1.061,10.742,3.176
			c2.67,2.117,4.131,5.09,4.391,8.918h-11.65c-0.15-1.215-0.525-2.116-1.133-2.707c-0.607-0.588-1.408-0.883-2.404-0.883
			c-0.846,0-1.508,0.22-1.986,0.664c-0.479,0.44-0.719,1.104-0.719,1.987c0,1.104,0.523,1.97,1.574,2.597
			c1.049,0.625,2.697,1.326,4.943,2.098c2.467,0.884,4.51,1.75,6.131,2.596c1.617,0.85,3.016,2.08,4.195,3.701
			s1.768,3.719,1.768,6.297C510.872,93.138,510.321,95.106,509.213,96.875"/>
		<polygon fill="#FFFFFF" points="550.579,63.13 550.579,102.231 539.754,102.231 539.754,86.438 526.5,86.438 526.5,102.231 
			515.622,102.231 515.622,63.13 526.5,63.13 526.5,77.768 539.754,77.768 539.754,63.13 		"/>
		<path fill="#FFFFFF" d="M585.508,65.09c3.037,1.713,5.43,4.098,7.18,7.152c1.746,3.057,2.623,6.5,2.623,10.326
			c0,3.83-0.883,7.271-2.65,10.328c-1.77,3.055-4.17,5.439-7.207,7.15c-3.039,1.712-6.379,2.566-10.023,2.566
			s-6.994-0.854-10.053-2.566c-3.055-1.711-5.465-4.096-7.234-7.15c-1.764-3.057-2.646-6.498-2.646-10.328
			c0-3.828,0.883-7.27,2.646-10.326c1.77-3.055,4.18-5.439,7.234-7.152c3.059-1.711,6.408-2.566,10.053-2.566
			C579.112,62.524,582.471,63.379,585.508,65.09 M568.915,75.254c-1.584,1.784-2.375,4.225-2.375,7.316
			c0,3.02,0.791,5.432,2.375,7.233c1.58,1.806,3.756,2.707,6.516,2.707c2.725,0,4.877-0.901,6.461-2.707
			c1.584-1.803,2.375-4.215,2.375-7.233c0-3.092-0.781-5.532-2.346-7.316c-1.564-1.787-3.729-2.68-6.49-2.68
			S570.495,73.467,568.915,75.254"/>
		<polygon fill="#FFFFFF" points="652.213,63.13 643.102,102.231 629.625,102.231 624.213,78.098 618.803,102.231 605.329,102.231 
			596.213,63.13 607.922,63.13 612.229,89.75 618.25,63.13 630.124,63.13 636.198,89.75 640.504,63.13 		"/>
	</g>
	<g>
		<path fill="#FFFFFF" d="M362.305,139.133h-3.023v3.541h3.023c1.396,0,2.096-0.581,2.096-1.742
			C364.401,139.735,363.702,139.133,362.305,139.133z"/>
		<path fill="#FFFFFF" d="M363.995,133.714c0-1.161-0.684-1.745-2.045-1.745h-2.67v3.432h2.695
			C363.321,135.405,363.995,134.84,363.995,133.714z"/>
		<path fill="#FFFFFF" d="M287.877,118.381v37.801h220.139v-37.801H287.877z M316.625,141.313c-0.69,1.6-1.793,2.965-3.31,4.101
			c-1.518,1.135-3.43,1.7-5.734,1.7c-1.961,0-3.678-0.412-5.149-1.236c-1.471-0.827-2.602-1.984-3.391-3.473
			c-0.79-1.489-1.186-3.188-1.186-5.094c0-1.906,0.396-3.602,1.186-5.082c0.79-1.479,1.911-2.631,3.364-3.457
			c1.452-0.826,3.16-1.242,5.121-1.242c2.469,0,4.495,0.602,6.073,1.8c1.579,1.198,2.533,2.813,2.859,4.85h-5.638
			c-0.291-0.526-0.718-0.944-1.28-1.254c-0.563-0.308-1.226-0.462-1.988-0.462c-1.308,0-2.347,0.439-3.119,1.32
			c-0.771,0.882-1.156,2.058-1.156,3.527c0,1.672,0.413,2.936,1.239,3.799c0.825,0.861,2.037,1.295,3.637,1.295
			c0.907,0,1.707-0.219,2.397-0.654c0.689-0.436,1.234-1.079,1.634-1.936h-5.338v-3.811h9.778V141.313z M330.409,146.981h-11.387
			v-19.287h5.365v15.226h6.021V146.981z M350.209,142.375c-0.871,1.508-2.057,2.686-3.555,3.529s-3.146,1.264-4.945,1.264
			c-1.797,0-3.449-0.42-4.957-1.264c-1.508-0.848-2.695-2.021-3.568-3.529c-0.869-1.506-1.307-3.202-1.307-5.092
			c0-1.889,0.438-3.588,1.307-5.094c0.871-1.508,2.063-2.686,3.568-3.529c1.508-0.842,3.16-1.268,4.957-1.268
			c1.816,0,3.475,0.426,4.973,1.268c1.498,0.848,2.68,2.021,3.541,3.529c0.861,1.506,1.293,3.205,1.293,5.094
			S351.081,140.87,350.209,142.375z M368.213,145.604c-1.105,0.918-2.697,1.377-4.768,1.377h-9.531v-19.287h9.314
			c1.943,0,3.463,0.428,4.563,1.281c1.1,0.852,1.648,2.09,1.648,3.702c0,1.146-0.303,2.103-0.9,2.875
			c-0.6,0.771-1.389,1.276-2.369,1.511c1.146,0.273,2.049,0.838,2.709,1.689c0.664,0.854,0.996,1.843,0.996,2.971
			C369.875,143.393,369.323,144.686,368.213,145.604z M385.375,146.981l-1.063-3.215h-6.836l-1.063,3.215h-5.641l7.057-19.207h6.184
			l7.027,19.207H385.375z M404.006,146.981h-11.385v-19.287h5.365v15.226h6.02V146.981z M424.625,144.337
			c-0.545,0.871-1.342,1.563-2.396,2.069c-1.053,0.511-2.313,0.765-3.785,0.765c-2.232,0-4.072-0.537-5.518-1.606
			c-1.443-1.072-2.229-2.597-2.355-4.578h5.693c0.055,0.674,0.264,1.172,0.625,1.502c0.363,0.324,0.809,0.49,1.336,0.49
			c0.473,0,0.84-0.119,1.102-0.356c0.264-0.233,0.398-0.571,0.398-1.007c0-0.582-0.264-1.028-0.791-1.35
			c-0.527-0.316-1.361-0.666-2.508-1.049c-1.217-0.415-2.221-0.822-3.012-1.223c-0.787-0.4-1.469-1.002-2.039-1.799
			c-0.574-0.799-0.861-1.826-0.861-3.078c0-1.198,0.311-2.229,0.93-3.092c0.615-0.862,1.459-1.517,2.531-1.961
			c1.07-0.443,2.285-0.668,3.648-0.668c2.215,0,3.982,0.521,5.299,1.565c1.316,1.045,2.037,2.513,2.166,4.401h-5.748
			c-0.072-0.602-0.258-1.045-0.559-1.336c-0.299-0.291-0.693-0.435-1.184-0.435c-0.42,0-0.744,0.106-0.98,0.324
			c-0.236,0.22-0.357,0.547-0.357,0.981c0,0.543,0.26,0.971,0.777,1.277c0.518,0.311,1.33,0.654,2.438,1.037
			c1.219,0.438,2.225,0.861,3.025,1.279c0.797,0.42,1.488,1.027,2.068,1.824c0.58,0.801,0.871,1.836,0.871,3.107
			C425.446,142.495,425.172,143.465,424.625,144.337z M440.209,131.969h-7.057v3.188h6.238v4.061h-6.238v3.487h7.057v4.276h-12.424
			v-19.287h12.424V131.969z M452.465,146.981l-3.895-7.109h-0.545v7.109h-5.367v-19.287h8.473c1.543,0,2.855,0.27,3.938,0.804
			c1.08,0.536,1.893,1.276,2.438,2.221c0.545,0.945,0.816,2.007,0.816,3.187c0,1.345-0.371,2.512-1.115,3.502
			s-1.816,1.685-3.213,2.084l4.385,7.49H452.465L452.465,146.981z M465.815,146.981h-5.367v-19.287h5.367V146.981z M481.206,131.969
			h-7.057v3.188h6.238v4.061h-6.238v3.487h7.057v4.276h-12.422v-19.287h12.422V131.969z M497.221,144.337
			c-0.547,0.871-1.346,1.563-2.398,2.069c-1.053,0.511-2.314,0.765-3.785,0.765c-2.234,0-4.072-0.537-5.518-1.606
			c-1.443-1.072-2.229-2.597-2.357-4.578h5.693c0.057,0.674,0.264,1.172,0.629,1.502c0.359,0.324,0.807,0.49,1.334,0.49
			c0.471,0,0.84-0.119,1.104-0.356c0.264-0.233,0.395-0.571,0.395-1.007c0-0.582-0.266-1.028-0.789-1.35
			c-0.525-0.316-1.363-0.666-2.508-1.049c-1.215-0.415-2.219-0.822-3.008-1.223c-0.791-0.4-1.473-1.002-2.047-1.799
			c-0.57-0.799-0.855-1.826-0.855-3.078c0-1.198,0.309-2.229,0.926-3.092c0.619-0.862,1.461-1.517,2.535-1.961
			c1.068-0.443,2.287-0.668,3.646-0.668c2.215,0,3.982,0.521,5.301,1.565c1.314,1.045,2.035,2.513,2.164,4.401h-5.748
			c-0.068-0.602-0.258-1.045-0.557-1.336s-0.695-0.435-1.186-0.435c-0.416,0-0.744,0.106-0.982,0.324
			c-0.236,0.22-0.354,0.547-0.354,0.981c0,0.543,0.26,0.971,0.777,1.277c0.518,0.311,1.33,0.654,2.438,1.037
			c1.217,0.438,2.225,0.861,3.021,1.279c0.801,0.42,1.49,1.027,2.072,1.824c0.58,0.801,0.871,1.836,0.871,3.107
			C498.038,142.495,497.764,143.465,497.221,144.337z"/>
		<polygon fill="#FFFFFF" points="378.811,139.735 382.977,139.735 380.911,133.468 		"/>
		<path fill="#FFFFFF" d="M341.711,132.354c-1.363,0-2.436,0.438-3.215,1.319c-0.781,0.881-1.172,2.084-1.172,3.608
			c0,1.49,0.391,2.679,1.172,3.566c0.779,0.891,1.852,1.336,3.215,1.336c1.342,0,2.404-0.445,3.188-1.336
			c0.779-0.889,1.172-2.076,1.172-3.566c0-1.524-0.389-2.729-1.158-3.608C344.141,132.793,343.075,132.354,341.711,132.354z"/>
		<path fill="#FFFFFF" d="M450.667,132.216h-2.641v4.06h2.641c1.49,0,2.232-0.674,2.232-2.017c0-0.638-0.188-1.135-0.559-1.501
			C451.971,132.397,451.413,132.216,450.667,132.216z"/>
	</g>
	<g>
		<g>
			<path fill="#FFFFFF" d="M174.742,51.633c-2.188,0-3.949,0.719-5.383,2.203c-1.425,1.472-2.116,3.239-2.116,5.403
				c0,2.144,0.69,3.929,2.116,5.456c1.452,1.444,3.212,2.148,5.383,2.148c2.139,0,3.886-0.706,5.339-2.159
				c1.45-1.499,2.16-3.284,2.16-5.445c0-2.176-0.707-3.939-2.16-5.394C178.637,52.352,176.895,51.633,174.742,51.633z"/>
			<path fill="#FFFFFF" d="M5.12,4.916v155.501h258.379V4.916H5.12z M60.558,52.427h-5.896v11.166c0,2.704,0.861,3.196,2.559,3.196
				c0.831,0,1.483-0.06,2.054-0.191l0.964-0.222v7.297l-0.607,0.144c-0.955,0.226-2.124,0.34-3.474,0.34
				c-6.179,0-9.445-3.413-9.445-9.873V52.427h-3.347v-7.365h3.347V34.808h7.949v10.254h5.896V52.427z M80.421,52.602l-0.941-0.188
				c-0.832-0.165-1.673-0.25-2.502-0.25c-3.969,0-6.437,2.446-6.437,6.386v14.863h-7.897V45.062h7.897v2.23
				c1.699-1.762,4.23-2.763,7.182-2.763c0.791,0,1.486,0.061,2.067,0.178l0.632,0.127V52.602z M107.563,69.025
				c-3.169,3.335-7.151,5.025-11.834,5.025c-4.403,0-8.036-1.344-10.796-3.991c-2.769-2.657-4.175-6.225-4.175-10.608v-0.213
				c0-4.409,1.402-8.047,4.163-10.81c2.785-2.729,6.364-4.109,10.649-4.109c4.121,0,7.514,1.389,10.083,4.127
				c2.608,2.718,3.931,6.138,3.931,10.155c0,0.813-0.052,1.548-0.109,2.292l-0.054,0.728H88.739
				c0.527,3.377,3.217,5.436,7.204,5.436c2.568,0,4.749-0.932,6.667-2.851l0.549-0.549l4.94,4.803L107.563,69.025z M121.087,74.105
				c-5.58,0-9.863-2.133-11.75-5.852l-0.284-0.556l5.256-4.435l0.484,0.759c1.175,1.839,3.626,2.982,6.399,2.982
				c1.202,0,3.995-0.211,3.995-2.136c0-0.752-0.783-1.248-1.122-1.427l-0.055-0.033c-0.5-0.317-1.593-0.683-2.316-0.923
				c-0.216-0.073-0.481-0.157-0.775-0.252c-0.833-0.265-1.866-0.596-2.559-0.878c-4.903-1.76-7.09-4.314-7.09-8.278
				c0-2.702,1.011-4.878,3.006-6.462c2.023-1.562,4.454-2.351,7.236-2.351c3.978,0,7.101,1.427,9.282,4.237l0.413,0.533
				l-4.649,4.929l-0.565-0.72c-1.007-1.281-2.548-1.929-4.586-1.929c-1.13,0-2.452,0.419-2.452,1.602
				c0,0.498,0.192,0.768,0.86,1.196c0.147,0.094,0.617,0.337,1.997,0.87c0.73,0.195,1.952,0.626,2.938,0.971l0.423,0.149
				c5.326,1.89,7.7,4.578,7.7,8.713C132.872,70.545,128.355,74.105,121.087,74.105z M160.474,69.285
				c-3.011,3.231-6.814,4.872-11.306,4.872c-4.301,0-7.969-1.433-10.906-4.257c-2.94-2.833-4.435-6.438-4.435-10.715
				c0-4.241,1.495-7.827,4.435-10.66c2.974-2.864,6.642-4.312,10.906-4.312c4.492,0,8.295,1.641,11.306,4.872l0.509,0.547
				l-5.021,5.222l-0.567-0.599c-1.679-1.775-3.773-2.676-6.227-2.676c-2.141,0-3.887,0.707-5.339,2.159
				c-1.396,1.444-2.107,3.279-2.107,5.446c0,2.169,0.711,4.004,2.116,5.456c1.444,1.445,3.19,2.148,5.33,2.148
				c2.453,0,4.548-0.899,6.227-2.675l0.567-0.6l5.021,5.226L160.474,69.285z M185.646,69.9c-2.972,2.86-6.641,4.312-10.904,4.312
				c-4.264,0-7.933-1.451-10.905-4.312c-2.981-2.867-4.493-6.453-4.493-10.662c0-4.204,1.512-7.793,4.493-10.661
				c2.972-2.86,6.641-4.312,10.905-4.312c4.263,0,7.932,1.451,10.904,4.312c2.98,2.868,4.49,6.455,4.49,10.661
				C190.136,63.447,188.626,67.033,185.646,69.9z M220.627,73.166l-0.571,0.163c-0.821,0.235-1.796,0.351-2.98,0.351
				c-3.218,0-7.057-1.354-7.057-7.799v-8.926c0-3.281-1.765-5.163-4.843-5.163c-3.15,0-5.268,2.182-5.268,5.431v16.19h-7.897V45.062
				h7.897v2.195c1.736-1.722,4.324-2.728,7.235-2.728c6.644,0,10.774,4.416,10.774,11.521v8.446c0,2.027,0.339,2.027,1.017,2.027
				c0.262,0,0.539-0.048,0.749-0.09l0.944-0.192V73.166z M220.314,48.672c-2.722,0-4.936-2.214-4.936-4.938
				c0-2.724,2.214-4.937,4.936-4.937c2.723,0,4.938,2.213,4.938,4.937C225.252,46.458,223.037,48.672,220.314,48.672z"/>
			<path fill="#FFFFFF" d="M99.791,52.882c-1.204-1.058-2.581-1.567-4.222-1.567c-1.788,0-3.359,0.516-4.667,1.533
				c-1.004,0.782-1.641,1.682-1.932,2.735h12.488C101.27,54.562,100.714,53.657,99.791,52.882z"/>
		</g>
		<g>
			<path fill="#3483FE" d="M76.297,90.958c3.12,2.916,4.762,6.856,4.926,11.823H70.139c-0.452-2.011-1.428-3.592-2.926-4.741
				c-1.5-1.148-3.438-1.726-5.819-1.726c-3.039,0-5.708,1.131-8.007,3.388c-2.299,2.259-3.777,5.276-4.434,9.054
				c-0.205,1.231-0.307,2.279-0.307,3.141c0,2.875,0.759,5.134,2.278,6.773c1.519,1.645,3.572,2.464,6.158,2.464
				c2.34,0,4.465-0.573,6.375-1.723c1.909-1.15,3.438-2.71,4.588-4.682h11.146c-1.971,4.928-5.03,8.858-9.175,11.794
				c-4.147,2.937-8.972,4.403-14.473,4.403c-3.695,0-6.878-0.719-9.546-2.157c-2.668-1.437-4.701-3.456-6.095-6.066
				c-1.397-2.605-2.095-5.633-2.095-9.081c0-1.684,0.144-3.307,0.432-4.866c0.738-4.312,2.278-8.149,4.619-11.517
				c2.339-3.365,5.274-5.983,8.805-7.852c3.531-1.868,7.411-2.803,11.64-2.803C68.845,86.584,73.177,88.043,76.297,90.958"/>
			<polygon fill="#3483FE" points="103.578,84.983 95.573,130.555 84.98,130.555 92.986,84.983 			"/>
			<path fill="#3483FE" d="M134.338,97.485c2.319,1.15,4.127,2.823,5.42,5.019c1.294,2.198,1.939,4.794,1.939,7.791
				c0,1.23-0.123,2.566-0.369,4.003c-0.616,3.408-1.909,6.364-3.88,8.868c-1.969,2.505-4.403,4.434-7.297,5.79
				c-2.896,1.354-6.004,2.032-9.33,2.032c-3.08,0-5.79-0.586-8.129-1.757c-2.341-1.17-4.157-2.842-5.451-5.019
				c-1.293-2.175-1.939-4.762-1.939-7.76c0-1.271,0.123-2.606,0.369-4.003c0.615-3.406,1.909-6.373,3.88-8.898
				c1.97-2.525,4.424-4.454,7.359-5.789c2.934-1.335,6.066-2,9.392-2C129.34,95.762,132.018,96.337,134.338,97.485 M119.558,107.032
				c-1.621,1.437-2.679,3.551-3.171,6.342c-0.165,1.067-0.246,1.828-0.246,2.278c0,2.013,0.544,3.543,1.632,4.589
				c1.087,1.047,2.495,1.57,4.219,1.57c2.012,0,3.827-0.718,5.45-2.156c1.621-1.437,2.678-3.529,3.172-6.281
				c0.123-0.821,0.185-1.58,0.185-2.278c0-2.011-0.545-3.552-1.633-4.619c-1.088-1.067-2.474-1.6-4.156-1.6
				C122.997,104.876,121.18,105.594,119.558,107.032"/>
			<path fill="#3483FE" d="M185.423,96.192l-6.035,34.363h-10.592l1.108-6.281c-1.313,2.055-3.059,3.676-5.234,4.865
				c-2.177,1.191-4.578,1.786-7.205,1.786c-3.326,0-5.923-0.954-7.792-2.864c-1.868-1.909-2.8-4.608-2.8-8.097
				c0-1.19,0.123-2.464,0.37-3.817l3.51-19.955h10.53l-3.325,18.66c-0.123,0.657-0.185,1.273-0.185,1.848
				c0,1.766,0.492,3.131,1.478,4.096c0.985,0.964,2.361,1.447,4.126,1.447c2.095,0,3.889-0.679,5.389-2.032
				c1.498-1.356,2.453-3.285,2.864-5.79v0.247l3.264-18.476H185.423z"/>
			<path fill="#3483FE" d="M230.81,84.983l-8.067,45.572h-10.532l1.109-6.22c-1.232,2.054-2.894,3.675-4.988,4.865
				c-2.095,1.191-4.476,1.788-7.143,1.788c-3.656,0-6.591-1.233-8.809-3.697c-2.216-2.463-3.325-5.851-3.325-10.162
				c0-1.56,0.144-3.119,0.432-4.68c0.615-3.407,1.776-6.373,3.479-8.898s3.777-4.454,6.221-5.789
				c2.443-1.334,5.039-2.001,7.792-2.001c2.748,0,5.008,0.595,6.773,1.785c1.764,1.192,2.894,2.813,3.387,4.865l3.141-17.429H230.81
				z M203.374,107.215c-1.663,1.478-2.72,3.531-3.171,6.159c-0.123,0.738-0.185,1.416-0.185,2.031c0,2.012,0.563,3.572,1.693,4.68
				c1.13,1.109,2.638,1.663,4.526,1.663c2.218,0,4.168-0.759,5.851-2.278c1.684-1.518,2.75-3.551,3.202-6.096
				c0.124-0.698,0.185-1.355,0.185-1.972c0-2.011-0.565-3.582-1.693-4.711c-1.13-1.129-2.638-1.693-4.526-1.693
				C206.997,104.999,205.037,105.737,203.374,107.215"/>
		</g>
	</g>
</g>
</svg>
