
<svg width="500" height="148" viewBox="0 0 500 148" fill="none" xmlns="http://www.w3.org/2000/svg">
<g clip-path="url(#clip0_3_85)">
<path d="M256.146 21.3443L249.102 51.1535H238.692L234.51 32.7541L230.329 51.1535H219.916L212.876 21.3443H221.922L225.25 41.639L229.901 21.3443H239.076L243.769 41.639L247.099 21.3443H256.146Z" fill="white"/>
<path d="M280.037 22.8386C282.382 24.1445 284.231 25.9636 285.585 28.2919C286.934 30.6217 287.612 33.2444 287.612 36.1658C287.612 39.0842 286.928 41.7091 285.564 44.0367C284.196 46.3673 282.342 48.184 279.995 49.49C277.647 50.7944 275.066 51.447 272.251 51.447C269.435 51.447 266.845 50.7944 264.484 49.49C262.122 48.184 260.259 46.3665 258.895 44.0367C257.529 41.7076 256.847 39.0842 256.847 36.1658C256.847 33.2444 257.531 30.6217 258.895 28.2919C260.261 25.9613 262.123 24.1445 264.484 22.8386C266.845 21.5341 269.434 20.8815 272.251 20.8815C275.091 20.8815 277.688 21.5349 280.037 22.8386ZM267.215 30.5874C265.99 31.9483 265.378 33.8085 265.378 36.1666C265.378 38.4674 265.99 40.3048 267.215 41.6801C268.436 43.0562 270.116 43.7424 272.25 43.7424C274.354 43.7424 276.018 43.0562 277.242 41.6801C278.465 40.304 279.076 38.4667 279.076 36.1666C279.076 33.8078 278.472 31.9483 277.263 30.5874C276.053 29.2251 274.382 28.5443 272.25 28.5443C270.118 28.5443 268.436 29.2243 267.215 30.5874Z" fill="white"/>
<path d="M306.728 51.1535L300.625 40.163H299.772V51.1535H291.365V21.3443H304.636C307.054 21.3443 309.109 21.759 310.802 22.5862C312.495 23.4149 313.77 24.5593 314.621 26.0177C315.474 27.4777 315.901 29.1191 315.901 30.9427C315.901 33.0225 315.318 34.8232 314.151 36.3549C312.983 37.8842 311.305 38.9577 309.115 39.5759L315.985 51.1535H306.728V51.1535ZM299.771 34.6075H303.908C306.242 34.6075 307.408 33.5699 307.408 31.4909C307.408 30.5097 307.117 29.7381 306.534 29.177C305.95 28.6159 305.074 28.3354 303.908 28.3354H299.771V34.6075Z" fill="white"/>
<path d="M327.635 44.8814H337.064V51.1535H319.228V21.3443H327.635V44.8814Z" fill="white"/>
<path d="M366.039 43.8903C364.757 46.1492 362.937 47.9271 360.579 49.2163C358.215 50.507 355.442 51.1535 352.256 51.1535H340.222V21.3443H352.255C355.44 21.3443 358.221 21.9687 360.598 23.2182C362.973 24.4693 364.795 26.2159 366.059 28.4596C367.324 30.7048 367.958 33.2733 367.958 36.165C367.958 39.0568 367.319 41.6298 366.039 43.8903ZM357.334 41.7655C358.756 40.4474 359.468 38.5803 359.468 36.165C359.468 33.7795 358.756 31.9209 357.334 30.5874C355.911 29.2533 353.963 28.5869 351.488 28.5869H348.63V43.7431H351.488C353.961 43.7424 355.911 43.0844 357.334 41.7655Z" fill="white"/>
<path d="M234.744 60.2983C236.778 61.2368 238.435 62.571 239.716 64.297C240.995 66.0246 241.862 68.0243 242.318 70.2977H233.485C233.001 69.1183 232.246 68.1989 231.223 67.5394C230.2 66.8807 229.018 66.5506 227.681 66.5506C225.832 66.5506 224.339 67.2322 223.201 68.593C222.063 69.9546 221.495 71.7722 221.495 74.0456C221.495 76.3175 222.064 78.1434 223.201 79.518C224.339 80.8941 225.832 81.5818 227.681 81.5818C229.017 81.5818 230.2 81.244 231.223 80.5724C232.247 79.8977 233.001 78.9714 233.485 77.7927H242.318C241.636 81.2722 240.021 84.0465 237.475 86.1073C234.929 88.171 231.707 89.2033 227.81 89.2033C224.822 89.2033 222.212 88.5667 219.98 87.2874C217.745 86.0105 216.025 84.2211 214.817 81.9203C213.607 79.6179 213.003 76.993 213.003 74.0471C213.003 71.0997 213.607 68.4741 214.817 66.1725C216.025 63.8716 217.746 62.0838 219.98 60.8053C222.212 59.529 224.822 58.8894 227.81 58.8894C230.398 58.8879 232.711 59.3583 234.744 60.2983Z" fill="white"/>
<path d="M254.479 82.7185H263.91V88.9914H246.073V59.1814H254.479V82.7185Z" fill="white"/>
<path d="M287.332 60.6757C289.679 61.9817 291.529 63.7999 292.88 66.1283C294.232 68.4589 294.907 71.0838 294.907 74.0006C294.907 76.9206 294.224 79.5439 292.859 81.8745C291.493 84.2036 289.637 86.0211 287.29 87.3256C284.944 88.6308 282.361 89.2819 279.547 89.2819C276.73 89.2819 274.141 88.6308 271.781 87.3256C269.417 86.0211 267.555 84.2029 266.19 81.8745C264.825 79.5439 264.142 76.9206 264.142 74.0006C264.142 71.0822 264.826 68.4581 266.19 66.1283C267.557 63.7992 269.42 61.9817 271.781 60.6757C274.141 59.3713 276.728 58.7194 279.547 58.7194C282.388 58.7194 284.985 59.3713 287.332 60.6757ZM274.508 68.4246C273.285 69.7847 272.675 71.6456 272.675 74.0022C272.675 76.3046 273.285 78.1434 274.508 79.5165C275.732 80.8934 277.411 81.5803 279.546 81.5803C281.649 81.5803 283.315 80.8934 284.539 79.5165C285.761 78.1419 286.372 76.303 286.372 74.0022C286.372 71.6449 285.767 69.7847 284.558 68.4246C283.35 67.0622 281.677 66.3814 279.546 66.3814C277.411 66.3821 275.732 67.0622 274.508 68.4246Z" fill="white"/>
<path d="M306.855 59.1814V76.1917C306.855 77.8758 307.23 79.1757 307.985 80.0852C308.738 80.9985 309.884 81.4544 311.42 81.4544C312.956 81.4544 314.115 80.9909 314.898 80.0677C315.68 79.1383 316.071 77.8491 316.071 76.1917V59.1814H324.435V76.1917C324.435 78.9996 323.858 81.3858 322.707 83.3513C321.556 85.3152 319.985 86.7972 317.992 87.7914C316 88.7893 313.752 89.2849 311.249 89.2849C308.745 89.2849 306.534 88.7962 304.615 87.812C302.694 86.8308 301.192 85.3563 300.113 83.3909C299.031 81.427 298.489 79.0263 298.489 76.1917V59.1814H306.855Z" fill="white"/>
<path d="M354.689 81.7297C353.409 83.9894 351.585 85.765 349.226 87.0542C346.867 88.3449 344.091 88.9914 340.905 88.9914H328.873V59.1814H340.905C344.091 59.1814 346.871 59.8058 349.248 61.0553C351.622 62.3064 353.444 64.0515 354.709 66.2967C355.974 68.5419 356.608 71.1104 356.608 74.0006C356.608 76.8946 355.968 79.4707 354.689 81.7297ZM345.982 79.6026C347.405 78.2845 348.118 76.4181 348.118 74.0029C348.118 71.6174 347.405 69.7572 345.982 68.4253C344.559 67.0919 342.611 66.4248 340.138 66.4248H337.278V81.5818H340.138C342.611 81.581 344.559 80.9223 345.982 79.6026Z" fill="white"/>
<path d="M389.506 84.9081C388.653 86.256 387.402 87.3218 385.751 88.1063C384.102 88.8923 382.127 89.2842 379.82 89.2842C376.321 89.2842 373.441 88.4577 371.178 86.8018C368.918 85.1459 367.686 82.7879 367.489 79.7307H376.406C376.492 80.7668 376.818 81.5391 377.389 82.0446C377.957 82.5493 378.653 82.8024 379.48 82.8024C380.218 82.8024 380.795 82.6186 381.208 82.2542C381.618 81.889 381.827 81.3714 381.827 80.6967C381.827 79.7978 381.415 79.1048 380.587 78.6138C379.764 78.1221 378.453 77.5816 376.662 76.9922C374.756 76.3473 373.185 75.7145 371.947 75.097C370.708 74.4787 369.643 73.5546 368.744 72.3181C367.85 71.0822 367.403 69.498 367.403 67.5608C367.403 65.7082 367.886 64.1148 368.853 62.7822C369.821 61.448 371.143 60.4371 372.821 59.7502C374.499 59.0625 376.406 58.7179 378.538 58.7179C382.01 58.7179 384.775 59.5268 386.838 61.1392C388.901 62.7532 390.03 65.0198 390.231 67.9382H381.229C381.113 67.0119 380.823 66.325 380.353 65.8744C379.884 65.4261 379.265 65.2012 378.496 65.2012C377.842 65.2012 377.331 65.3689 376.961 65.7074C376.591 66.0429 376.406 66.5491 376.406 67.2223C376.406 68.064 376.81 68.7242 377.622 69.2022C378.432 69.6787 379.706 70.2131 381.441 70.8017C383.348 71.4756 384.926 72.1359 386.179 72.7808C387.428 73.4289 388.509 74.3666 389.42 75.6024C390.331 76.8382 390.786 78.4377 390.786 80.4031C390.788 82.059 390.362 83.5594 389.506 84.9081Z" fill="white"/>
<path d="M421.469 59.1814V88.9914H413.104V76.951H402.863V88.9914H394.458V59.1814H402.863V70.3412H413.104V59.1814H421.469Z" fill="white"/>
<path d="M448.458 60.6757C450.805 61.9817 452.654 63.7999 454.006 66.1283C455.355 68.4589 456.033 71.0838 456.033 74.0006C456.033 76.9206 455.35 79.5439 453.985 81.8745C452.617 84.2036 450.763 86.0211 448.416 87.3256C446.068 88.6308 443.487 89.2819 440.672 89.2819C437.856 89.2819 435.267 88.6308 432.904 87.3256C430.543 86.0211 428.681 84.2029 427.314 81.8745C425.951 79.5439 425.27 76.9206 425.27 74.0006C425.27 71.0822 425.952 68.4581 427.314 66.1283C428.682 63.7992 430.544 61.9817 432.904 60.6757C435.267 59.3713 437.855 58.7194 440.672 58.7194C443.516 58.7194 446.111 59.3713 448.458 60.6757ZM435.637 68.4246C434.413 69.7847 433.802 71.6456 433.802 74.0022C433.802 76.3046 434.413 78.1434 435.637 79.5165C436.858 80.8934 438.539 81.5803 440.672 81.5803C442.777 81.5803 444.44 80.8934 445.664 79.5165C446.888 78.1419 447.499 76.303 447.499 74.0022C447.499 71.6449 446.896 69.7847 445.686 68.4246C444.478 67.0622 442.805 66.3814 440.672 66.3814C438.538 66.3814 436.858 67.0622 435.637 68.4246Z" fill="white"/>
<path d="M500 59.1814L492.96 88.9914H482.547L478.365 70.5928L474.185 88.9914H463.773L456.73 59.1814H465.777L469.105 79.4761L473.757 59.1814H482.932L487.625 79.4761L490.953 59.1814H500Z" fill="white"/>
<path d="M275.992 117.125H273.656V119.824H275.992C277.071 119.824 277.612 119.382 277.612 118.496C277.612 117.584 277.071 117.125 275.992 117.125Z" fill="white"/>
<path d="M277.298 112.994C277.298 112.108 276.769 111.663 275.718 111.663H273.655V114.28H275.737C276.777 114.283 277.298 113.852 277.298 112.994Z" fill="white"/>
<path d="M218.483 101.304V130.123H388.581V101.304H218.483V101.304ZM240.696 118.787C240.163 120.007 239.31 121.047 238.138 121.913C236.965 122.779 235.488 123.209 233.708 123.209C232.192 123.209 230.866 122.895 229.729 122.267C228.592 121.637 227.718 120.755 227.109 119.619C226.498 118.484 226.192 117.189 226.192 115.736C226.192 114.283 226.498 112.99 227.109 111.861C227.719 110.734 228.585 109.856 229.708 109.226C230.83 108.596 232.15 108.279 233.665 108.279C235.573 108.279 237.138 108.738 238.358 109.651C239.578 110.565 240.315 111.796 240.567 113.349H236.21C235.985 112.948 235.655 112.629 235.221 112.393C234.786 112.158 234.274 112.041 233.685 112.041C232.674 112.041 231.872 112.375 231.275 113.047C230.679 113.719 230.382 114.616 230.382 115.736C230.382 117.011 230.701 117.974 231.339 118.632C231.977 119.289 232.913 119.619 234.15 119.619C234.85 119.619 235.468 119.452 236.002 119.121C236.534 118.788 236.955 118.298 237.264 117.645H233.14V114.739H240.695V118.787H240.696ZM251.346 123.108H242.548V108.404H246.693V120.012H251.346V123.108H251.346ZM266.646 119.597C265.973 120.746 265.056 121.644 263.899 122.287C262.741 122.93 261.468 123.251 260.078 123.251C258.689 123.251 257.413 122.93 256.248 122.287C255.082 121.64 254.165 120.746 253.491 119.597C252.819 118.448 252.481 117.155 252.481 115.714C252.481 114.274 252.819 112.979 253.491 111.831C254.164 110.681 255.085 109.783 256.248 109.14C257.413 108.499 258.689 108.174 260.078 108.174C261.481 108.174 262.763 108.499 263.92 109.14C265.078 109.787 265.991 110.681 266.656 111.831C267.322 112.979 267.655 114.274 267.655 115.714C267.655 117.155 267.319 118.449 266.646 119.597ZM280.557 122.058C279.703 122.758 278.473 123.108 276.873 123.108H269.508V108.404H276.705C278.207 108.404 279.381 108.73 280.231 109.381C281.081 110.03 281.504 110.974 281.504 112.203C281.504 113.077 281.27 113.806 280.809 114.395C280.345 114.983 279.736 115.368 278.978 115.547C279.864 115.755 280.562 116.186 281.072 116.834C281.585 117.485 281.841 118.239 281.841 119.099C281.841 120.373 281.415 121.358 280.557 122.058ZM293.818 123.108L292.997 120.657H287.714L286.893 123.108H282.534L287.987 108.465H292.765L298.195 123.108H293.818ZM308.214 123.108H299.417V108.404H303.562V120.012H308.214V123.108ZM324.146 121.092C323.725 121.756 323.109 122.284 322.294 122.67C321.481 123.059 320.507 123.253 319.37 123.253C317.645 123.253 316.223 122.844 315.106 122.029C313.991 121.211 313.384 120.049 313.287 118.538H317.685C317.728 119.052 317.889 119.432 318.168 119.683C318.449 119.93 318.793 120.057 319.201 120.057C319.566 120.057 319.85 119.966 320.052 119.786C320.256 119.608 320.36 119.35 320.36 119.018C320.36 118.574 320.156 118.234 319.748 117.989C319.341 117.748 318.697 117.481 317.811 117.189C316.87 116.873 316.094 116.562 315.483 116.257C314.875 115.952 314.348 115.493 313.908 114.885C313.464 114.276 313.242 113.493 313.242 112.538C313.242 111.625 313.483 110.839 313.961 110.181C314.436 109.524 315.088 109.025 315.917 108.686C316.743 108.348 317.682 108.177 318.735 108.177C320.447 108.177 321.812 108.574 322.83 109.37C323.847 110.167 324.404 111.286 324.504 112.725H320.062C320.007 112.266 319.863 111.928 319.63 111.707C319.399 111.485 319.095 111.375 318.715 111.375C318.391 111.375 318.141 111.456 317.958 111.622C317.776 111.79 317.682 112.039 317.682 112.37C317.682 112.784 317.883 113.11 318.283 113.343C318.683 113.581 319.31 113.842 320.166 114.134C321.108 114.468 321.886 114.79 322.504 115.109C323.12 115.429 323.654 115.892 324.102 116.5C324.55 117.11 324.775 117.899 324.775 118.868C324.78 119.688 324.568 120.428 324.146 121.092ZM336.187 111.663H330.735V114.094H335.555V117.19H330.735V119.848H336.187V123.108H326.588V108.404H336.187V111.663ZM345.657 123.108L342.648 117.688H342.227V123.108H338.08V108.404H344.627C345.819 108.404 346.833 108.61 347.669 109.017C348.504 109.426 349.132 109.99 349.553 110.71C349.974 111.431 350.184 112.24 350.184 113.14C350.184 114.165 349.897 115.055 349.322 115.81C348.747 116.565 347.919 117.094 346.84 117.399L350.228 123.109H345.657V123.108ZM355.973 123.108H351.826V108.404H355.973V123.108ZM367.865 111.663H362.412V114.094H367.232V117.19H362.412V119.848H367.865V123.108H358.267V108.404H367.865V111.663ZM380.24 121.092C379.817 121.756 379.2 122.284 378.387 122.67C377.573 123.059 376.599 123.253 375.462 123.253C373.736 123.253 372.316 122.844 371.199 122.029C370.084 121.211 369.476 120.049 369.377 118.538H373.776C373.82 119.052 373.98 119.432 374.262 119.683C374.54 119.93 374.886 120.057 375.293 120.057C375.657 120.057 375.942 119.966 376.146 119.786C376.35 119.608 376.451 119.35 376.451 119.018C376.451 118.574 376.246 118.234 375.842 117.989C375.436 117.748 374.788 117.481 373.904 117.189C372.965 116.873 372.189 116.562 371.579 116.257C370.968 115.952 370.441 115.493 369.998 114.885C369.557 114.276 369.337 113.493 369.337 112.538C369.337 111.625 369.576 110.839 370.053 110.181C370.531 109.524 371.182 109.025 372.011 108.686C372.837 108.348 373.779 108.177 374.829 108.177C376.54 108.177 377.905 108.574 378.925 109.37C379.94 110.167 380.497 111.286 380.597 112.725H376.155C376.103 112.266 375.956 111.928 375.725 111.707C375.494 111.485 375.188 111.375 374.809 111.375C374.487 111.375 374.234 111.456 374.05 111.622C373.867 111.79 373.776 112.039 373.776 112.37C373.776 112.784 373.977 113.11 374.377 113.343C374.777 113.581 375.404 113.842 376.26 114.134C377.201 114.468 377.98 114.79 378.595 115.109C379.214 115.429 379.746 115.892 380.196 116.5C380.644 117.11 380.869 117.899 380.869 118.868C380.871 119.688 380.659 120.428 380.24 121.092Z" fill="white"/>
<path d="M288.746 117.584H291.965L290.369 112.806L288.746 117.584Z" fill="white"/>
<path d="M260.079 111.957C259.026 111.957 258.197 112.291 257.595 112.962C256.992 113.634 256.69 114.551 256.69 115.713C256.69 116.849 256.992 117.755 257.595 118.432C258.197 119.111 259.026 119.45 260.079 119.45C261.116 119.45 261.937 119.111 262.543 118.432C263.145 117.754 263.448 116.849 263.448 115.713C263.448 114.551 263.148 113.632 262.553 112.962C261.957 112.291 261.133 111.957 260.079 111.957Z" fill="white"/>
<path d="M344.268 111.851H342.227V114.947H344.268C345.419 114.947 345.993 114.433 345.993 113.409C345.993 112.923 345.847 112.544 345.561 112.265C345.276 111.989 344.845 111.851 344.268 111.851Z" fill="white"/>
<path d="M131.065 50.4163C129.374 50.4163 128.013 50.9644 126.905 52.0958C125.804 53.218 125.27 54.5652 125.27 56.215C125.27 57.8495 125.803 59.2104 126.905 60.3745C128.027 61.4754 129.387 62.0121 131.065 62.0121C132.717 62.0121 134.067 61.4739 135.19 60.3661C136.31 59.2233 136.859 57.8625 136.859 56.215C136.859 54.556 136.313 53.2119 135.19 52.1027C134.074 50.9644 132.728 50.4163 131.065 50.4163Z" fill="white"/>
<path d="M0 -113.467V271.485H199.646V-113.467H0ZM42.8362 51.0216H38.2804V59.5344C38.2804 61.5959 38.9457 61.971 40.2577 61.971C40.8998 61.971 41.4036 61.9252 41.8448 61.8253L42.5897 61.6561V67.2192L42.1207 67.329C41.3828 67.5013 40.4795 67.5882 39.4364 67.5882C34.6619 67.5882 32.1383 64.9862 32.1383 60.0612V51.0216H29.5522V45.4066H32.1383V37.5892H38.2804V45.4066H42.8362V51.0216ZM58.1841 51.155L57.457 51.0117C56.8141 50.8859 56.1643 50.8211 55.5237 50.8211C52.4569 50.8211 50.5499 52.6859 50.5499 55.6897V67.021H44.448V45.4066H50.5499V47.1068C51.8627 45.7634 53.8184 45.0003 56.0993 45.0003C56.7105 45.0003 57.2476 45.0468 57.6965 45.136L58.1848 45.2328L58.1841 51.155ZM79.1563 63.6757C76.7077 66.2182 73.6308 67.5066 70.0123 67.5066C66.6102 67.5066 63.803 66.482 61.6704 64.464C59.5308 62.4383 58.4445 59.7181 58.4445 56.3766V56.2142C58.4445 52.8529 59.5278 50.0793 61.6611 47.9728C63.8131 45.8923 66.5785 44.8402 69.8895 44.8402C73.0737 44.8402 75.6954 45.8992 77.6805 47.9866C79.6956 50.0587 80.7179 52.6661 80.7179 55.7286C80.7179 56.3484 80.6777 56.9087 80.6337 57.476L80.592 58.031H64.6113C65.0185 60.6055 67.097 62.1753 70.1777 62.1753C72.162 62.1753 73.8472 61.4647 75.3292 60.0017L75.7534 59.5832L79.5705 63.2449L79.1563 63.6757ZM89.6061 67.5486C85.2945 67.5486 81.9851 65.9224 80.5271 63.0871L80.3076 62.6632L84.3689 59.282L84.7428 59.8607C85.6507 61.2627 87.5446 62.1341 89.6873 62.1341C90.616 62.1341 92.7741 61.9732 92.7741 60.5057C92.7741 59.9323 92.1691 59.5542 91.9072 59.4177L91.8647 59.3926C91.4783 59.1509 90.6338 58.8719 90.0751 58.6889C89.9082 58.6332 89.7035 58.5692 89.4763 58.4968C88.8327 58.2947 88.0345 58.0424 87.499 57.8274C83.7105 56.4856 82.0207 54.5385 82.0207 51.5164C82.0207 49.4564 82.8019 47.7975 84.3434 46.5899C85.9065 45.399 87.7849 44.7975 89.9345 44.7975C93.0083 44.7975 95.4214 45.8854 97.1066 48.0277L97.4257 48.4341L93.8335 52.1919L93.3969 51.643C92.6188 50.6663 91.4281 50.1723 89.8534 50.1723C88.9802 50.1723 87.9588 50.4918 87.9588 51.3937C87.9588 51.7733 88.1071 51.9792 88.6233 52.3055C88.7369 52.3771 89.1 52.5624 90.1663 52.9687C90.7304 53.1174 91.6746 53.446 92.4365 53.709L92.7633 53.8226C96.8786 55.2635 98.713 57.3128 98.713 60.4653C98.7122 64.8345 95.222 67.5486 89.6061 67.5486ZM120.04 63.8739C117.713 66.3371 114.775 67.5882 111.304 67.5882C107.981 67.5882 105.146 66.4957 102.877 64.3427C100.605 62.1829 99.4501 59.4345 99.4501 56.1738C99.4501 52.9405 100.605 50.2066 102.877 48.0468C105.175 45.8633 108.009 44.7594 111.304 44.7594C114.775 44.7594 117.713 46.0105 120.04 48.4737L120.433 48.8908L116.554 52.8719L116.115 52.4153C114.818 51.062 113.2 50.3751 111.304 50.3751C109.65 50.3751 108.3 50.9141 107.179 52.0211C106.1 53.122 105.551 54.5209 105.551 56.173C105.551 57.8266 106.1 59.2256 107.186 60.3326C108.301 61.4342 109.65 61.9702 111.304 61.9702C113.199 61.9702 114.818 61.2848 116.115 59.9308L116.554 59.4734L120.433 63.4576L120.04 63.8739ZM139.49 64.3427C137.194 66.5232 134.359 67.6301 131.065 67.6301C127.77 67.6301 124.935 66.5239 122.638 64.3427C120.335 62.157 119.167 59.4231 119.167 56.2142C119.167 53.0091 120.335 50.273 122.638 48.0864C124.935 45.906 127.77 44.799 131.065 44.799C134.359 44.799 137.194 45.9053 139.49 48.0864C141.793 50.273 142.959 53.0076 142.959 56.2142C142.959 59.4231 141.793 62.157 139.49 64.3427ZM166.519 66.8327L166.078 66.957C165.444 67.1361 164.69 67.2246 163.776 67.2246C161.289 67.2246 158.323 66.1923 158.323 61.2787V54.4737C158.323 51.9723 156.959 50.5375 154.581 50.5375C152.147 50.5375 150.51 52.201 150.51 54.678V67.021H144.408V45.4066H150.51V47.0801C151.851 45.7673 153.851 45.0003 156.1 45.0003C161.234 45.0003 164.425 48.367 164.425 53.7837V60.2228C164.425 61.7682 164.687 61.7682 165.211 61.7682C165.414 61.7682 165.628 61.7316 165.79 61.6996L166.519 61.5532V66.8327ZM166.277 48.1589C164.174 48.1589 162.464 46.4709 162.464 44.3942C162.464 42.3175 164.174 40.6303 166.277 40.6303C168.382 40.6303 170.093 42.3175 170.093 44.3942C170.093 46.4709 168.382 48.1589 166.277 48.1589Z" fill="white"/>
<path d="M73.151 51.3685C72.2207 50.5619 71.1567 50.1738 69.8887 50.1738C68.5072 50.1738 67.2933 50.5672 66.2826 51.3426C65.5068 51.9387 65.0146 52.6249 64.7898 53.4277H74.4391C74.2938 52.6493 73.8642 51.9593 73.151 51.3685Z" fill="white"/>
<path d="M54.9975 80.397C57.4083 82.6202 58.677 85.6239 58.8038 89.4107H50.2393C49.89 87.8776 49.1359 86.6722 47.9784 85.7962C46.8194 84.921 45.3219 84.4804 43.4822 84.4804C41.134 84.4804 39.0717 85.3426 37.2953 87.0633C35.5189 88.7856 34.3768 91.0857 33.8692 93.966C33.7108 94.9044 33.632 95.7034 33.632 96.3606C33.632 98.5525 34.2184 100.275 35.3921 101.524C36.5658 102.778 38.1522 103.403 40.1503 103.403C41.9584 103.403 43.6004 102.966 45.0762 102.089C46.5513 101.212 47.7327 100.023 48.6213 98.5197H57.2337C55.7107 102.277 53.347 105.273 50.1443 107.511C46.9399 109.75 43.2117 110.868 38.9612 110.868C36.1061 110.868 33.6466 110.32 31.5851 109.224C29.5236 108.128 27.9527 106.589 26.8756 104.599C25.7961 102.613 25.2568 100.304 25.2568 97.6757C25.2568 96.3919 25.3681 95.1545 25.5906 93.966C26.1608 90.6786 27.3508 87.7533 29.1596 85.1856C30.967 82.6202 33.2348 80.6242 35.9631 79.1993C38.6915 77.7752 41.6895 77.0624 44.9572 77.0624C49.2394 77.0624 52.5867 78.1747 54.9975 80.397Z" fill="#3483FE"/>
<path d="M76.0772 75.8419L69.8918 110.585H61.7068L67.8929 75.8419H76.0772Z" fill="#3483FE"/>
<path d="M99.845 85.3732C101.637 86.2499 103.034 87.5254 104.033 89.1996C105.033 90.8753 105.531 92.8544 105.531 95.1393C105.531 96.077 105.436 97.0956 105.246 98.1911C104.77 100.789 103.771 103.043 102.248 104.952C100.727 106.862 98.8459 108.332 96.6098 109.366C94.3721 110.398 91.9705 110.915 89.4006 110.915C87.0207 110.915 84.9267 110.469 83.1194 109.576C81.3106 108.684 79.9074 107.409 78.9075 105.749C77.9084 104.091 77.4093 102.119 77.4093 99.8333C77.4093 98.8643 77.5043 97.8465 77.6944 96.7815C78.1696 94.1848 79.1695 91.9228 80.6924 89.9978C82.2146 88.0728 84.1108 86.6021 86.3786 85.5843C88.6457 84.5666 91.0657 84.0596 93.6357 84.0596C95.9831 84.0596 98.0524 84.4979 99.845 85.3732ZM88.4247 92.6516C87.1722 93.7472 86.3547 95.3589 85.9745 97.4867C85.847 98.3001 85.7844 98.8803 85.7844 99.2234C85.7844 100.758 86.2048 101.925 87.0454 102.722C87.8854 103.52 88.9733 103.919 90.3054 103.919C91.86 103.919 93.2625 103.372 94.5165 102.275C95.7691 101.18 96.5858 99.5848 96.9675 97.4867C97.0625 96.8608 97.1105 96.2821 97.1105 95.75C97.1105 94.2168 96.6893 93.042 95.8487 92.2285C95.008 91.415 93.937 91.0087 92.6374 91.0087C91.082 91.0079 89.678 91.5553 88.4247 92.6516Z" fill="#3483FE"/>
<path d="M139.318 84.3874L134.655 110.585H126.47L127.326 105.797C126.312 107.363 124.963 108.599 123.282 109.506C121.6 110.414 119.745 110.867 117.715 110.867C115.145 110.867 113.138 110.14 111.694 108.684C110.251 107.228 109.531 105.171 109.531 102.511C109.531 101.604 109.626 100.632 109.817 99.6008L112.529 84.3874H120.665L118.096 98.6135C118.001 99.1144 117.953 99.584 117.953 100.022C117.953 101.369 118.333 102.409 119.095 103.145C119.856 103.88 120.919 104.248 122.283 104.248C123.902 104.248 125.288 103.731 126.447 102.699C127.605 101.665 128.342 100.195 128.66 98.2849V98.4732L131.182 84.3874H139.318V84.3874Z" fill="#3483FE"/>
<path d="M174.388 75.8418L168.154 110.585H160.016L160.873 105.843C159.921 107.409 158.637 108.645 157.019 109.552C155.4 110.46 153.561 110.915 151.5 110.915C148.675 110.915 146.407 109.975 144.693 108.097C142.981 106.219 142.124 103.636 142.124 100.349C142.124 99.1601 142.235 97.9715 142.458 96.7815C142.933 94.184 143.83 91.9228 145.146 89.9978C146.462 88.0728 148.065 86.6021 149.953 85.5843C151.841 84.5673 153.847 84.0588 155.974 84.0588C158.097 84.0588 159.843 84.5124 161.207 85.4197C162.57 86.3284 163.443 87.5642 163.824 89.1287L166.251 75.8411H174.388V75.8418ZM153.188 92.7911C151.903 93.9179 151.086 95.4831 150.738 97.4867C150.643 98.0493 150.595 98.5662 150.595 99.0351C150.595 100.569 151.03 101.758 151.903 102.603C152.776 103.449 153.942 103.871 155.4 103.871C157.114 103.871 158.621 103.292 159.921 102.134C161.223 100.977 162.046 99.4269 162.396 97.4867C162.491 96.9545 162.538 96.4536 162.538 95.9832C162.538 94.4501 162.102 93.2524 161.23 92.3917C160.357 91.5309 159.192 91.1009 157.733 91.1009C155.988 91.1017 154.473 91.6643 153.188 92.7911Z" fill="#3483FE"/>
</g>
<defs>
<clipPath id="clip0_3_85">
<rect width="500" height="148" fill="white"/>
</clipPath>
</defs>
</svg>
