
<svg width="500" height="148" viewBox="0 0 500 148" fill="none" xmlns="http://www.w3.org/2000/svg">
<g clip-path="url(#clip0_2_38)">
<path d="M64.8439 54.2009C64.0938 53.5281 63.2074 53.259 62.1846 53.259C61.0255 53.259 60.0709 53.5954 59.2527 54.2009C58.639 54.6718 58.2299 55.2773 58.0254 55.8828H65.8666C65.7303 55.21 65.3893 54.6718 64.8439 54.2009Z" fill="white"/>
<path d="M112.028 53.3936C110.664 53.3936 109.573 53.8645 108.619 54.7391C107.732 55.6809 107.255 56.7574 107.255 58.1029C107.255 59.4484 107.664 60.5248 108.619 61.4667C109.505 62.3413 110.664 62.8122 112.028 62.8122C113.392 62.8122 114.482 62.3413 115.369 61.4667C116.255 60.5248 116.733 59.4484 116.733 58.1029C116.733 56.7574 116.255 55.6809 115.369 54.7391C114.482 53.8645 113.392 53.3936 112.028 53.3936Z" fill="white"/>
<path d="M0 -27.6267V184.511H174.485V-27.6267H0ZM40.0927 53.9318H36.4107V60.8612C36.4107 62.5431 36.9562 62.8795 38.0472 62.8795C38.5927 62.8795 39.0018 62.8122 39.3427 62.7449L39.9564 62.6103V67.1178L39.5473 67.1851C38.9336 67.3196 38.1836 67.3869 37.3653 67.3869C33.4788 67.3869 31.4332 65.2341 31.4332 61.2648V53.8645H29.3195V49.2897H31.3651V42.8985H36.3426V49.2897H40.0245V53.9318H40.0927ZM52.6388 53.999L52.0251 53.8645C51.4796 53.7299 51.0023 53.7299 50.4568 53.7299C47.934 53.7299 46.4339 55.2773 46.4339 57.6992V66.916H41.4564V49.357H46.3657V50.7698C47.4567 49.6934 49.025 49.0206 50.8659 49.0206C51.3432 49.0206 51.8205 49.0879 52.1615 49.1552L52.5706 49.2225V53.999H52.6388ZM69.685 64.225C67.7076 66.3105 65.1848 67.3197 62.2528 67.3197C59.4572 67.3197 57.2071 66.5123 55.4343 64.8304C53.6615 63.1485 52.7751 60.9285 52.7751 58.2374V58.1029C52.7751 55.3446 53.6615 53.1245 55.3661 51.3753C57.139 49.6934 59.3891 48.8188 62.0483 48.8188C64.6393 48.8188 66.753 49.6934 68.3895 51.3753C70.0259 53.0572 70.8441 55.21 70.8441 57.6992C70.8441 58.2374 70.8441 58.6411 70.7759 59.112L70.7078 59.5829H57.889C58.2299 61.6685 59.9345 62.9467 62.4574 62.9467C64.0938 62.9467 65.4575 62.3412 66.6849 61.1976L67.0258 60.8612L70.1623 63.8213L69.685 64.225ZM78.2081 67.3869C74.6625 67.3869 72.0033 66.0414 70.7759 63.754L70.5714 63.4177L73.9125 60.6593L74.1852 61.1303C74.9352 62.274 76.5035 63.014 78.2081 63.014C78.9581 63.014 80.7309 62.8795 80.7309 61.6685C80.7309 61.1976 80.2536 60.8612 80.0491 60.7939H79.9809C79.64 60.5921 78.9581 60.3902 78.549 60.1884C78.4127 60.1211 78.2763 60.1211 78.0717 60.0539C77.5263 59.9193 76.9126 59.6502 76.4353 59.5157C73.367 58.4392 71.9351 56.8246 71.9351 54.3354C71.9351 52.6535 72.5488 51.308 73.8443 50.2989C75.1398 49.357 76.6399 48.8188 78.4127 48.8188C80.9355 48.8188 82.9129 49.6934 84.2766 51.4426L84.5493 51.7789L81.6173 54.8736L81.2764 54.4027C80.6628 53.5954 79.64 53.1917 78.4127 53.1917C77.7308 53.1917 76.8444 53.4608 76.8444 54.2009C76.8444 54.5373 76.9808 54.6718 77.3899 54.9409C77.4581 55.0082 77.799 55.1427 78.6172 55.4791C79.0945 55.6137 79.8445 55.8828 80.4582 56.0846L80.7309 56.1519C84.072 57.2956 85.5721 58.9775 85.5721 61.6012C85.6403 65.1668 82.8447 67.3869 78.2081 67.3869ZM103.027 64.3595C101.118 66.3778 98.7318 67.3869 95.9362 67.3869C93.2088 67.3869 90.8905 66.5123 89.0495 64.7632C87.2085 63.014 86.2539 60.7939 86.2539 58.1029C86.2539 55.4791 87.2085 53.259 89.0495 51.4426C90.8905 49.6934 93.2088 48.7515 95.9362 48.7515C98.7999 48.7515 101.186 49.7607 103.027 51.7789L103.368 52.1153L100.232 55.3446L99.8909 54.9409C98.7999 53.8645 97.5044 53.259 95.9362 53.259C94.5725 53.259 93.4815 53.7299 92.5951 54.6045C91.7087 55.4791 91.2996 56.6228 91.2996 57.9683C91.2996 59.3138 91.7769 60.4575 92.6633 61.3321C93.5497 62.2067 94.6407 62.6776 96.0044 62.6776C97.5726 62.6776 98.8681 62.1394 99.9591 60.9957L100.3 60.5921L103.437 63.8213L103.027 64.3595ZM118.914 64.7632C117.073 66.5123 114.755 67.4542 112.028 67.4542C109.3 67.4542 107.05 66.5796 105.141 64.7632C103.232 63.014 102.277 60.7266 102.277 58.1029C102.277 55.4791 103.232 53.259 105.141 51.4426C106.982 49.6934 109.3 48.7515 112.028 48.7515C114.755 48.7515 117.005 49.6261 118.914 51.4426C120.824 53.259 121.71 55.4791 121.71 58.1029C121.778 60.7266 120.824 63.014 118.914 64.7632ZM140.938 66.7814L140.597 66.916C140.052 67.0505 139.438 67.1178 138.688 67.1178C136.643 67.1178 134.256 66.2432 134.256 62.274V56.7573C134.256 54.7391 133.165 53.5281 131.188 53.5281C129.21 53.5281 127.847 54.8736 127.847 56.8919V66.9833H122.869V49.357H127.847V50.7025C128.938 49.6261 130.574 49.0206 132.415 49.0206C136.574 49.0206 139.234 51.7789 139.234 56.1519V61.3994C139.234 62.6776 139.438 62.6776 139.847 62.6776C139.984 62.6776 140.188 62.6776 140.325 62.6103L140.938 62.4758V66.7814ZM140.734 51.5771C139.029 51.5771 137.597 50.2316 137.597 48.4824C137.597 46.7333 138.961 45.3877 140.734 45.3877C142.438 45.3877 143.87 46.7333 143.87 48.4824C143.87 50.2316 142.506 51.5771 140.734 51.5771Z" fill="white"/>
<path d="M19.0918 97.5265C17.5235 96.7865 16.2962 95.71 15.478 94.3645C14.6598 93.019 14.2506 91.4717 14.2506 89.7225C14.2506 87.4351 14.7961 85.3496 15.8871 83.4659C16.978 81.6494 18.4781 80.1693 20.4555 79.1602C22.4328 78.1511 24.6147 77.6129 27.1376 77.6129C29.0468 77.6129 30.6832 77.9492 32.1833 78.622C33.6152 79.2947 34.7743 80.2366 35.4562 81.4476L31.2969 84.7441C30.2741 83.1967 28.774 82.3894 26.7967 82.3894C25.5012 82.3894 24.342 82.7258 23.3192 83.3313C22.2965 83.9368 21.5464 84.7441 21.0009 85.8205C20.4555 86.8969 20.1827 88.1079 20.1827 89.3861C20.1827 90.7316 20.66 91.8753 21.5464 92.6826C22.4328 93.4899 23.6602 93.8936 25.2284 93.8936C27.2058 93.8936 28.8422 93.0863 30.2059 91.5389L33.6152 94.8355C32.5242 96.181 31.2287 97.1228 29.7286 97.7283C28.2285 98.3338 26.5239 98.6029 24.6147 98.6029C22.4328 98.6029 20.66 98.2665 19.0918 97.5265Z" fill="#00D2FF"/>
<path d="M54.6161 82.524L44.4566 98.872C43.6383 100.218 42.8201 101.227 42.0701 101.967C41.32 102.707 40.5018 103.245 39.6154 103.581C38.729 103.918 37.7744 104.052 36.6153 104.052C35.7971 104.052 34.9107 103.918 34.0924 103.649C33.2742 103.379 32.5924 103.043 32.1151 102.639L34.6379 98.7375C35.3198 99.3429 36.138 99.612 37.0926 99.612C37.5699 99.612 38.0472 99.4775 38.3881 99.2757C38.729 99.0738 39.0699 98.6702 39.4109 98.1992L35.7971 82.3894H41.32L43.2974 92.0099L49.1613 82.3894H54.6161V82.524Z" fill="#00D2FF"/>
<path d="M68.8668 83.1295C69.8895 83.6677 70.7078 84.5423 71.3214 85.6187C71.9351 86.6951 72.276 87.9733 72.276 89.3861C72.276 91.068 71.8669 92.6153 71.1169 94.0281C70.3668 95.3737 69.2759 96.5173 67.9804 97.2574C66.6849 98.0647 65.253 98.4683 63.6847 98.4683C61.2301 98.4683 59.5254 97.661 58.639 95.9791L58.2299 98.1992H52.9115L57.2753 76.7383H62.7301L61.3664 83.7349C62.5256 82.7931 63.9575 82.3222 65.5939 82.3222C66.753 82.2549 67.844 82.5913 68.8668 83.1295ZM65.5939 92.8172C66.2757 92.0099 66.6167 90.9335 66.6167 89.6552C66.6167 88.7134 66.3439 87.9733 65.7984 87.4351C65.253 86.8969 64.5029 86.6278 63.6165 86.6278C62.5256 86.6278 61.571 87.0315 60.8891 87.8388C60.2073 88.6461 59.8664 89.7225 59.8664 91.0007C59.8664 91.9426 60.1391 92.6826 60.6846 93.1536C61.2301 93.6918 61.9801 93.9609 62.8665 93.9609C63.9575 94.0281 64.912 93.6245 65.5939 92.8172Z" fill="#00D2FF"/>
<path d="M90.8223 91.7408H79.1627C79.3672 93.4227 80.5264 94.2973 82.7765 94.2973C83.4583 94.2973 84.1402 94.1627 84.822 93.9609C85.5039 93.759 86.0493 93.4227 86.5948 93.019L88.9131 96.4501C87.0721 97.7956 84.822 98.4683 82.1628 98.4683C80.4582 98.4683 79.0263 98.1992 77.7308 97.5938C76.4353 96.9883 75.4807 96.181 74.7988 95.1046C74.117 94.0281 73.7761 92.7499 73.7761 91.3371C73.7761 89.6552 74.1852 88.1079 75.0034 86.6951C75.8216 85.3496 76.9126 84.2059 78.4126 83.4659C79.8445 82.6585 81.5491 82.3222 83.3901 82.3222C84.9584 82.3222 86.3221 82.5913 87.5494 83.1967C88.7086 83.735 89.6631 84.5423 90.2768 85.6187C90.8905 86.6278 91.2314 87.8388 91.2314 89.2516C91.1632 89.9243 91.0268 90.7989 90.8223 91.7408ZM80.7991 86.8969C80.1854 87.3678 79.7763 88.0406 79.5036 88.8479H86.0493C86.0493 88.0406 85.7766 87.3678 85.2311 86.8969C84.6857 86.426 83.9356 86.1569 83.0492 86.1569C82.1628 86.1569 81.4128 86.426 80.7991 86.8969Z" fill="#00D2FF"/>
<path d="M105.755 82.2549L104.8 87.166C104.323 87.0987 103.914 87.0987 103.573 87.0987C102.346 87.0987 101.323 87.3678 100.573 87.9733C99.8227 88.5788 99.3454 89.5207 99.0727 90.7316L97.5726 98.132H91.9814L95.118 82.4567H100.368L100.027 84.2059C101.323 82.9276 103.232 82.2549 105.755 82.2549Z" fill="#00D2FF"/>
<path d="M107.8 97.9974C106.3 97.5938 105.005 97.0556 104.05 96.4501L106.368 92.1444C107.391 92.8172 108.482 93.2881 109.71 93.6245C110.869 93.9609 112.028 94.1627 113.255 94.1627C114.346 94.1627 115.232 94.0281 115.846 93.6918C116.46 93.3554 116.801 92.9517 116.801 92.3463C116.801 91.8753 116.528 91.4717 115.983 91.2026C115.437 90.9335 114.551 90.6644 113.392 90.328C112.096 89.9916 110.937 89.6552 110.05 89.2516C109.164 88.9152 108.414 88.377 107.8 87.6369C107.187 86.8969 106.846 85.955 106.846 84.7441C106.846 83.3313 107.255 82.0531 108.073 80.9766C108.891 79.9002 109.982 79.0256 111.482 78.4202C112.982 77.8147 114.687 77.5456 116.664 77.5456C118.096 77.5456 119.528 77.6801 120.755 78.0165C122.051 78.2856 123.142 78.7565 124.028 79.2947L121.915 83.5331C121.096 83.0622 120.21 82.6585 119.255 82.3894C118.301 82.1203 117.278 81.9858 116.255 81.9858C115.096 81.9858 114.21 82.1876 113.528 82.524C112.846 82.8604 112.573 83.3313 112.573 83.9368C112.573 84.4077 112.846 84.8114 113.392 85.0805C113.937 85.3496 114.823 85.6187 116.051 85.9551C117.346 86.2914 118.505 86.6278 119.324 86.9642C120.21 87.3006 120.96 87.8388 121.574 88.5788C122.187 89.3188 122.528 90.1934 122.528 91.4044C122.528 92.8172 122.119 94.0954 121.301 95.1718C120.483 96.2482 119.324 97.1228 117.824 97.7283C116.323 98.3338 114.619 98.6029 112.641 98.6029C110.937 98.6029 109.369 98.4011 107.8 97.9974Z" fill="#00D2FF"/>
<path d="M141.347 91.7408H129.688C129.892 93.4227 131.051 94.2973 133.302 94.2973C133.983 94.2973 134.665 94.1627 135.347 93.9609C136.029 93.759 136.574 93.4227 137.12 93.019L139.438 96.4501C137.597 97.7956 135.347 98.4683 132.688 98.4683C130.983 98.4683 129.551 98.1992 128.256 97.5938C126.96 96.9883 126.006 96.181 125.324 95.1046C124.642 94.0281 124.301 92.7499 124.301 91.3371C124.301 89.6552 124.71 88.1079 125.528 86.6951C126.347 85.3496 127.438 84.2059 128.938 83.4659C130.37 82.6585 132.074 82.3222 133.915 82.3222C135.483 82.3222 136.847 82.5913 138.074 83.1967C139.234 83.735 140.188 84.5423 140.802 85.6187C141.416 86.6278 141.756 87.8388 141.756 89.2516C141.688 89.9243 141.552 90.7989 141.347 91.7408ZM131.324 86.8969C130.711 87.3678 130.301 88.0406 130.029 88.8479H136.574C136.574 88.0406 136.302 87.3678 135.756 86.8969C135.211 86.426 134.461 86.1569 133.574 86.1569C132.688 86.1569 131.938 86.426 131.324 86.8969Z" fill="#00D2FF"/>
<path d="M146.87 97.5938C145.643 96.9883 144.62 96.181 143.938 95.1046C143.257 94.0281 142.916 92.7499 142.916 91.3371C142.916 89.6552 143.325 88.1079 144.143 86.6951C144.961 85.3496 146.12 84.2732 147.689 83.4658C149.189 82.6585 150.893 82.2549 152.734 82.2549C154.507 82.2549 156.075 82.6585 157.371 83.3986C158.666 84.1386 159.621 85.215 160.235 86.5605L155.462 88.7806C154.848 87.3678 153.825 86.6951 152.393 86.6951C151.234 86.6951 150.348 87.0987 149.598 87.906C148.848 88.7134 148.507 89.7225 148.507 91.0007C148.507 91.9426 148.779 92.6826 149.325 93.2208C149.87 93.759 150.62 94.0281 151.643 94.0281C152.393 94.0281 153.007 93.8936 153.621 93.5572C154.166 93.2208 154.643 92.6826 155.052 92.0099L159.144 94.4318C158.394 95.71 157.303 96.7192 155.939 97.3919C154.575 98.132 153.007 98.4683 151.234 98.4683C149.598 98.4683 148.098 98.1992 146.87 97.5938Z" fill="#00D2FF"/>
<path d="M222.896 28.367L217.237 52.4517H208.782L205.441 37.5838L202.032 52.4517H193.577L187.918 28.367H195.213L197.941 44.7823L201.691 28.367H209.123L212.873 44.7823L215.601 28.367H222.896Z" fill="white"/>
<path d="M241.852 29.5779C243.761 30.6543 245.261 32.1344 246.352 34.0181C247.443 35.9019 247.989 38.0547 247.989 40.4093C247.989 42.764 247.443 44.9168 246.352 46.8005C245.261 48.6843 243.761 50.1643 241.852 51.2407C239.943 52.3172 237.897 52.8554 235.579 52.8554C233.329 52.8554 231.215 52.3172 229.306 51.2407C227.397 50.1643 225.897 48.6843 224.806 46.8005C223.715 44.9168 223.169 42.764 223.169 40.4093C223.169 38.0547 223.715 35.9019 224.806 34.0181C225.897 32.1344 227.397 30.6543 229.306 29.5779C231.215 28.5015 233.329 27.9633 235.579 27.9633C237.829 27.9633 239.943 28.5015 241.852 29.5779ZM231.488 35.8346C230.465 36.911 229.988 38.4583 229.988 40.3421C229.988 42.2258 230.465 43.7058 231.488 44.7823C232.511 45.926 233.806 46.4642 235.579 46.4642C237.284 46.4642 238.647 45.926 239.602 44.7823C240.625 43.6386 241.102 42.1585 241.102 40.3421C241.102 38.4583 240.625 36.911 239.602 35.8346C238.647 34.7582 237.284 34.1527 235.511 34.1527C233.806 34.1527 232.442 34.6909 231.488 35.8346Z" fill="white"/>
<path d="M262.785 52.4517L257.875 43.5713H257.194V52.4517H250.375V28.367H261.148C263.126 28.367 264.762 28.7033 266.126 29.3761C267.489 30.0489 268.512 30.9907 269.194 32.1344C269.876 33.3454 270.217 34.6236 270.217 36.1037C270.217 37.7856 269.74 39.2656 268.785 40.4766C267.83 41.6876 266.467 42.5622 264.694 43.1004L270.285 52.4517H262.785V52.4517ZM257.125 39.0638H260.466C262.376 39.0638 263.33 38.2565 263.33 36.5746C263.33 35.7673 263.126 35.1618 262.648 34.6909C262.171 34.22 261.489 34.0181 260.535 34.0181H257.194V39.0638H257.125Z" fill="white"/>
<path d="M279.695 47.406H287.331V52.4517H272.876V28.367H279.695V47.406Z" fill="white"/>
<path d="M310.787 46.5987C309.764 48.4152 308.264 49.8952 306.355 50.9044C304.446 51.9808 302.196 52.4517 299.605 52.4517H289.854V28.367H299.605C302.196 28.367 304.446 28.9052 306.355 29.9143C308.264 30.9235 309.764 32.3362 310.787 34.1527C311.81 35.9691 312.355 38.0547 312.355 40.4093C312.287 42.6967 311.81 44.7823 310.787 46.5987ZM303.696 44.8495C304.855 43.7731 305.4 42.2931 305.4 40.3421C305.4 38.3911 304.855 36.911 303.696 35.8346C302.536 34.7582 300.968 34.22 298.991 34.22H296.673V46.4642H298.991C300.968 46.4642 302.536 45.926 303.696 44.8495Z" fill="white"/>
<path d="M338.675 29.2416C340.311 29.9816 341.675 31.058 342.697 32.4708C343.72 33.8836 344.402 35.4982 344.811 37.3146H337.652C337.243 36.3728 336.629 35.6328 335.811 35.0945C334.993 34.5563 334.038 34.2872 332.947 34.2872C331.447 34.2872 330.22 34.8254 329.333 35.9691C328.379 37.0455 327.969 38.5256 327.969 40.4093C327.969 42.2258 328.447 43.7058 329.333 44.8495C330.288 45.9932 331.447 46.5314 332.947 46.5314C334.038 46.5314 334.993 46.2623 335.811 45.7241C336.629 45.1859 337.243 44.4459 337.652 43.504H344.811C344.266 46.3296 342.97 48.5497 340.925 50.2316C338.879 51.9135 336.288 52.7208 333.083 52.7208C330.697 52.7208 328.583 52.1826 326.742 51.1735C324.901 50.1643 323.537 48.6843 322.583 46.8005C321.628 44.9168 321.083 42.8313 321.083 40.4093C321.083 37.9874 321.56 35.9019 322.583 34.0181C323.537 32.1344 324.969 30.7216 326.742 29.6452C328.583 28.6361 330.629 28.0979 333.083 28.0979C335.129 28.0979 337.038 28.5015 338.675 29.2416Z" fill="white"/>
<path d="M367.38 28.367L358.721 44.7823V52.4517H351.971V44.7823L343.311 28.367H351.084L355.448 37.5165L359.675 28.367H367.38Z" fill="white"/>
<path d="M387.631 42.1585C388.449 43.2349 388.859 44.4459 388.859 45.8587C388.859 47.9442 388.177 49.5588 386.745 50.7025C385.313 51.8462 383.336 52.4517 380.676 52.4517H368.608V28.367H380.472C382.927 28.367 384.836 28.9052 386.268 29.9816C387.631 31.058 388.381 32.6053 388.381 34.6236C388.381 36.0364 387.972 37.2474 387.222 38.1892C386.472 39.1311 385.449 39.8039 384.222 40.073C385.654 40.4093 386.813 41.0821 387.631 42.1585ZM375.494 37.9874H378.904C380.608 37.9874 381.426 37.3147 381.426 35.9019C381.426 34.4218 380.54 33.749 378.835 33.749H375.426V37.9874H375.494ZM381.972 44.9168C381.972 43.4367 381.085 42.6967 379.313 42.6967H375.494V47.1369H379.313C381.085 47.0696 381.972 46.3296 381.972 44.9168Z" fill="white"/>
<path d="M398.609 33.6818V37.651H406.518V42.764H398.609V47.1369H407.541V52.4517H391.791V28.367H407.541V33.6818H398.609Z" fill="white"/>
<path d="M423.087 52.4517L418.178 43.5713H417.496V52.4517H410.678V28.367H421.383C423.36 28.367 424.997 28.7033 426.36 29.3761C427.724 30.0489 428.747 30.9907 429.429 32.1344C430.11 33.3454 430.451 34.6236 430.451 36.1037C430.451 37.7856 429.974 39.2656 429.02 40.4766C428.065 41.6876 426.701 42.5622 424.928 43.1004L430.52 52.4517H423.087V52.4517ZM417.428 39.0638H420.769C422.678 39.0638 423.633 38.2565 423.633 36.5746C423.633 35.7673 423.428 35.1618 422.951 34.6909C422.474 34.22 421.792 34.0181 420.837 34.0181H417.496V39.0638H417.428Z" fill="white"/>
<path d="M205.918 81.3803C205.237 82.4567 204.214 83.3313 202.85 83.9368C201.486 84.5422 199.918 84.8786 198.077 84.8786C195.213 84.8786 192.895 84.2059 191.054 82.8604C189.213 81.5148 188.259 79.6311 188.054 77.1419H195.282C195.35 77.9492 195.623 78.622 196.1 79.0256C196.577 79.4293 197.123 79.6311 197.804 79.6311C198.418 79.6311 198.895 79.4966 199.236 79.1602C199.577 78.8911 199.714 78.4202 199.714 77.8819C199.714 77.1419 199.373 76.6037 198.691 76.2001C198.009 75.7964 196.986 75.3927 195.486 74.8545C193.918 74.3163 192.691 73.8454 191.668 73.3072C190.645 72.8363 189.827 72.029 189.077 71.0871C188.327 70.078 187.986 68.7997 187.986 67.2524C187.986 65.7723 188.395 64.4941 189.145 63.4177C189.895 62.3412 190.986 61.5339 192.35 60.9957C193.713 60.4575 195.282 60.1884 196.986 60.1884C199.782 60.1884 202.032 60.8612 203.737 62.1394C205.373 63.4177 206.328 65.3014 206.464 67.656H199.168C199.1 66.916 198.827 66.3778 198.486 65.9741C198.077 65.6378 197.6 65.4359 196.986 65.4359C196.441 65.4359 196.032 65.5705 195.759 65.8396C195.486 66.1087 195.282 66.5123 195.282 67.0505C195.282 67.7233 195.623 68.2615 196.236 68.6652C196.918 69.0688 197.941 69.4725 199.305 69.9434C200.873 70.4816 202.1 71.0198 203.123 71.558C204.146 72.0962 205.032 72.8363 205.714 73.8454C206.464 74.8545 206.805 76.1328 206.805 77.7474C206.941 79.0929 206.6 80.3039 205.918 81.3803Z" fill="white"/>
<path d="M216.01 65.9069V69.9434H223.919V74.9891H216.01V79.362H224.942V84.6768H209.191V60.5921H224.942V65.9069H216.01Z" fill="white"/>
<path d="M244.307 61.4667C245.943 62.2067 247.307 63.2831 248.329 64.6959C249.352 66.1087 250.034 67.7233 250.443 69.5397H243.284C242.875 68.5979 242.261 67.8579 241.443 67.3197C240.625 66.7814 239.67 66.5123 238.579 66.5123C237.079 66.5123 235.852 67.0505 234.965 68.1942C234.011 69.2706 233.602 70.7507 233.602 72.6344C233.602 74.4509 234.079 75.931 234.965 77.0746C235.92 78.2183 237.079 78.7565 238.579 78.7565C239.67 78.7565 240.625 78.4874 241.443 77.9492C242.261 77.411 242.875 76.671 243.284 75.7291H250.443C249.898 78.5547 248.602 80.7748 246.557 82.4567C244.511 84.1386 241.92 84.9459 238.715 84.9459C236.329 84.9459 234.215 84.4077 232.374 83.3986C230.533 82.3894 229.17 80.9094 228.215 79.0256C227.26 77.1419 226.715 75.0564 226.715 72.6344C226.715 70.2798 227.192 68.127 228.215 66.2432C229.17 64.3595 230.601 62.9467 232.374 61.8703C234.215 60.8612 236.261 60.323 238.715 60.323C240.761 60.323 242.602 60.7266 244.307 61.4667Z" fill="white"/>
<path d="M260.057 60.5921V74.3836C260.057 75.7291 260.33 76.8055 260.944 77.5456C261.557 78.2856 262.512 78.622 263.739 78.622C264.967 78.622 265.921 78.2183 266.535 77.4783C267.149 76.7383 267.489 75.6618 267.489 74.3163V60.5921H274.24V74.3836C274.24 76.671 273.762 78.5547 272.808 80.1693C271.853 81.7839 270.626 82.9276 268.99 83.7349C267.353 84.5422 265.58 84.9459 263.535 84.9459C261.489 84.9459 259.716 84.5422 258.148 83.7349C256.58 82.9276 255.353 81.7167 254.534 80.1693C253.648 78.5547 253.239 76.671 253.239 74.3163V60.5921H260.057Z" fill="white"/>
<path d="M290.331 84.6768L285.422 75.7964H284.74V84.6768H277.922V60.5921H288.627C290.604 60.5921 292.241 60.9285 293.604 61.6012C294.968 62.274 295.991 63.2158 296.673 64.3595C297.354 65.5705 297.695 66.8487 297.695 68.3288C297.695 70.0107 297.218 71.4908 296.263 72.7017C295.309 73.9127 293.945 74.7873 292.172 75.3255L297.764 84.6768H290.331V84.6768ZM284.672 71.2889H288.013C289.922 71.2889 290.877 70.4816 290.877 68.7997C290.877 67.9924 290.672 67.3869 290.195 66.916C289.718 66.4451 289.036 66.2432 288.081 66.2432H284.74V71.2889H284.672Z" fill="white"/>
<path d="M307.241 60.5921H300.423V84.7441H307.241V60.5921Z" fill="white"/>
<path d="M329.401 60.5921V65.9069H322.787V84.6768H316.037V65.9069H309.491V60.5921H329.401Z" fill="white"/>
<path d="M356.062 60.5921L347.402 77.0074V84.6768H340.652V77.0074L331.992 60.5921H339.765L344.061 69.7416L348.357 60.5921H356.062Z" fill="white"/>
<path d="M381.631 81.3803C380.949 82.4567 379.926 83.3313 378.563 83.9368C377.199 84.5422 375.631 84.8786 373.79 84.8786C370.926 84.8786 368.608 84.2059 366.767 82.8604C364.926 81.5148 363.971 79.6311 363.767 77.1419H370.994C371.062 77.9492 371.335 78.622 371.812 79.0256C372.29 79.4293 372.835 79.6311 373.517 79.6311C374.131 79.6311 374.608 79.4966 374.949 79.1602C375.29 78.8911 375.426 78.4202 375.426 77.8819C375.426 77.1419 375.085 76.6037 374.403 76.2001C373.722 75.7964 372.699 75.3927 371.199 74.8545C369.63 74.3163 368.403 73.8454 367.38 73.3072C366.358 72.8363 365.539 72.029 364.789 71.0871C364.039 70.078 363.698 68.7997 363.698 67.2524C363.698 65.7723 364.107 64.4941 364.857 63.4177C365.608 62.3412 366.698 61.5339 368.062 60.9957C369.426 60.4575 370.994 60.1884 372.699 60.1884C375.494 60.1884 377.744 60.8612 379.449 62.1394C381.086 63.4177 382.04 65.3014 382.176 67.656H374.881C374.812 66.916 374.54 66.3778 374.199 65.9741C373.79 65.6378 373.312 65.4359 372.699 65.4359C372.153 65.4359 371.744 65.5705 371.471 65.8396C371.199 66.1087 370.994 66.5123 370.994 67.0505C370.994 67.7233 371.335 68.2615 371.949 68.6652C372.631 69.0688 373.653 69.4725 375.017 69.9434C376.585 70.4816 377.813 71.0198 378.835 71.558C379.858 72.0962 380.745 72.8363 381.495 73.8454C382.245 74.8545 382.586 76.1328 382.586 77.7474C382.654 79.0929 382.313 80.3039 381.631 81.3803Z" fill="white"/>
<path d="M390.904 60.5921V74.3836C390.904 75.7291 391.177 76.8055 391.791 77.5456C392.404 78.2856 393.359 78.622 394.586 78.622C395.813 78.622 396.768 78.2183 397.382 77.4783C397.995 76.7383 398.336 75.6618 398.336 74.3163V60.5921H405.087V74.3836C405.087 76.671 404.609 78.5547 403.655 80.1693C402.7 81.7839 401.473 82.9276 399.836 83.7349C398.2 84.5422 396.427 84.9459 394.382 84.9459C392.336 84.9459 390.563 84.5422 388.995 83.7349C387.427 82.9276 386.199 81.7167 385.381 80.1693C384.495 78.5547 384.086 76.671 384.086 74.3163V60.5921H390.904Z" fill="white"/>
<path d="M436.452 60.6593V84.6768H429.701V71.0871L425.201 84.6768H419.337L414.837 71.0871V84.6768H408.019V60.6593H416.337L422.337 76.2673L428.201 60.6593H436.452Z" fill="white"/>
<path d="M467.953 60.6593V84.6768H461.203V71.0871L456.634 84.6768H450.839L446.27 71.0871V84.6768H439.52V60.6593H447.839L453.839 76.2673L459.635 60.6593H467.953Z" fill="white"/>
<path d="M477.84 60.5921H471.021V84.7441H477.84V60.5921Z" fill="white"/>
<path d="M500 60.5921V65.9069H493.386V84.6768H486.636V65.9069H480.09V60.5921H500Z" fill="white"/>
<path d="M239.67 107.752H237.556V110.174H239.67C240.625 110.174 241.102 109.771 241.102 108.963C241.102 108.156 240.625 107.752 239.67 107.752Z" fill="white"/>
<path d="M240.829 104.052C240.829 103.245 240.352 102.841 239.397 102.841H237.556V105.196H239.465C240.352 105.196 240.829 104.792 240.829 104.052Z" fill="white"/>
<path d="M187.918 93.5572V119.526H340.993V93.5572H187.918V93.5572ZM207.896 109.232C207.419 110.309 206.668 111.251 205.578 112.058C204.555 112.865 203.191 113.202 201.623 113.202C200.259 113.202 199.032 112.933 198.009 112.327C196.986 111.789 196.168 110.982 195.623 109.972C195.077 108.963 194.804 107.752 194.804 106.474C194.804 105.196 195.077 103.985 195.623 102.976C196.168 101.967 196.918 101.159 197.941 100.621C198.964 100.083 200.123 99.7466 201.486 99.7466C203.191 99.7466 204.623 100.15 205.714 100.958C206.805 101.765 207.487 102.909 207.691 104.254H203.873C203.668 103.918 203.396 103.581 202.987 103.379C202.577 103.178 202.1 103.043 201.623 103.043C200.736 103.043 199.986 103.312 199.441 103.918C198.895 104.523 198.623 105.33 198.623 106.34C198.623 107.483 198.895 108.358 199.509 108.963C200.055 109.569 200.941 109.838 202.032 109.838C202.646 109.838 203.191 109.703 203.668 109.367C204.146 109.098 204.555 108.627 204.827 108.021H201.146V105.398H207.964V109.232H207.896ZM217.51 113.134H209.6V99.8811H213.351V110.309H217.51V113.134ZM231.283 109.972C230.67 110.982 229.851 111.789 228.829 112.394C227.806 113 226.647 113.269 225.419 113.269C224.192 113.269 223.033 113 221.942 112.394C220.919 111.789 220.101 110.982 219.487 109.972C218.874 108.963 218.601 107.752 218.601 106.474C218.601 105.196 218.874 103.985 219.487 102.976C220.101 101.967 220.919 101.159 221.942 100.554C222.965 99.9484 224.124 99.6793 225.419 99.6793C226.715 99.6793 227.806 99.9484 228.897 100.554C229.92 101.159 230.738 101.967 231.351 102.976C231.965 103.985 232.238 105.196 232.238 106.474C232.238 107.752 231.829 108.963 231.283 109.972ZM243.761 112.193C243.011 112.798 241.852 113.134 240.42 113.134H233.806V99.8811H240.284C241.647 99.8811 242.67 100.15 243.488 100.756C244.238 101.361 244.647 102.169 244.647 103.312C244.647 104.12 244.443 104.725 244.034 105.263C243.625 105.801 243.079 106.138 242.397 106.272C243.216 106.474 243.829 106.878 244.307 107.416C244.784 108.021 244.988 108.694 244.988 109.434C244.92 110.713 244.579 111.587 243.761 112.193ZM255.693 113.134L254.943 110.914H250.17L249.42 113.134H245.466L250.375 99.9484H254.671L259.58 113.134H255.693ZM268.649 113.134H260.739V99.8811H264.489V110.309H268.649V113.134ZM283.036 111.318C282.626 111.923 282.081 112.394 281.399 112.731C280.649 113.067 279.763 113.269 278.74 113.269C277.172 113.269 275.876 112.933 274.922 112.193C273.899 111.453 273.353 110.443 273.285 109.031H277.24C277.308 109.502 277.444 109.838 277.649 110.04C277.922 110.242 278.194 110.376 278.604 110.376C278.945 110.376 279.217 110.309 279.354 110.107C279.558 109.972 279.626 109.703 279.626 109.434C279.626 109.031 279.422 108.762 279.081 108.492C278.74 108.291 278.126 108.021 277.308 107.752C276.49 107.483 275.74 107.214 275.194 106.945C274.649 106.676 274.172 106.272 273.762 105.734C273.353 105.196 273.149 104.456 273.149 103.649C273.149 102.841 273.353 102.101 273.762 101.496C274.172 100.89 274.785 100.487 275.535 100.15C276.285 99.8139 277.104 99.6793 278.058 99.6793C279.626 99.6793 280.854 100.016 281.74 100.756C282.626 101.496 283.172 102.505 283.24 103.783H279.217C279.149 103.379 279.013 103.043 278.808 102.841C278.604 102.639 278.331 102.572 277.99 102.572C277.717 102.572 277.444 102.639 277.308 102.774C277.172 102.909 277.035 103.178 277.035 103.447C277.035 103.85 277.24 104.12 277.581 104.321C277.922 104.523 278.535 104.792 279.285 105.061C280.104 105.33 280.854 105.667 281.399 105.936C281.945 106.205 282.422 106.609 282.831 107.214C283.24 107.752 283.445 108.492 283.445 109.367C283.581 110.107 283.377 110.713 283.036 111.318ZM293.877 102.841H288.968V105.061H293.332V107.82H288.968V110.242H293.877V113.202H285.218V99.9484H293.877V102.841ZM302.4 113.134L299.673 108.223H299.264V113.134H295.513V99.8811H301.377C302.468 99.8811 303.355 100.083 304.105 100.419C304.855 100.756 305.4 101.294 305.809 101.967C306.218 102.639 306.355 103.312 306.355 104.12C306.355 105.061 306.082 105.869 305.605 106.541C305.059 107.214 304.309 107.685 303.355 107.954L306.423 113.067L302.4 113.134ZM311.673 113.134H307.923V99.8811H311.673V113.134ZM322.378 102.841H317.469V105.061H321.833V107.82H317.469V110.242H322.378V113.202H313.719V99.9484H322.378V102.841ZM333.492 111.318C333.083 111.923 332.538 112.394 331.856 112.731C331.106 113.067 330.22 113.269 329.197 113.269C327.629 113.269 326.333 112.933 325.378 112.193C324.356 111.453 323.81 110.443 323.742 109.031H327.697C327.765 109.502 327.901 109.838 328.106 110.04C328.379 110.242 328.651 110.376 329.06 110.376C329.401 110.376 329.674 110.309 329.81 110.107C330.015 109.972 330.083 109.703 330.083 109.434C330.083 109.031 329.879 108.762 329.538 108.492C329.197 108.291 328.583 108.021 327.765 107.752C326.947 107.483 326.197 107.214 325.651 106.945C325.106 106.676 324.628 106.272 324.219 105.734C323.81 105.196 323.606 104.456 323.606 103.649C323.606 102.841 323.81 102.101 324.219 101.496C324.628 100.89 325.242 100.487 325.992 100.15C326.742 99.8139 327.56 99.6793 328.515 99.6793C330.083 99.6793 331.311 100.016 332.197 100.756C333.083 101.496 333.629 102.505 333.697 103.783H329.674C329.606 103.379 329.47 103.043 329.265 102.841C329.06 102.639 328.788 102.572 328.447 102.572C328.174 102.572 327.901 102.639 327.765 102.774C327.629 102.909 327.492 103.178 327.492 103.447C327.492 103.85 327.697 104.12 328.038 104.321C328.379 104.523 328.992 104.792 329.742 105.061C330.56 105.33 331.311 105.667 331.856 105.936C332.401 106.205 332.879 106.609 333.288 107.214C333.697 107.752 333.902 108.492 333.902 109.367C334.038 110.107 333.902 110.713 333.492 111.318Z" fill="white"/>
<path d="M251.125 108.156H254.057L252.625 103.85L251.125 108.156Z" fill="white"/>
<path d="M225.351 103.11C224.397 103.11 223.647 103.379 223.101 103.985C222.556 104.59 222.283 105.398 222.283 106.474C222.283 107.483 222.556 108.291 223.101 108.896C223.647 109.502 224.397 109.838 225.351 109.838C226.306 109.838 227.056 109.502 227.601 108.896C228.147 108.291 228.419 107.483 228.419 106.474C228.419 105.398 228.147 104.59 227.601 103.985C227.056 103.447 226.306 103.11 225.351 103.11Z" fill="white"/>
<path d="M301.105 103.043H299.264V105.801H301.105C302.127 105.801 302.673 105.33 302.673 104.389C302.673 103.918 302.536 103.581 302.264 103.379C302.059 103.178 301.65 103.043 301.105 103.043Z" fill="white"/>
</g>
<defs>
<clipPath id="clip0_2_38">
<rect width="500" height="148" fill="white"/>
</clipPath>
</defs>
</svg>
