<?xml version="1.0" encoding="utf-8"?>
<!-- Generator: Adobe Illustrator 23.1.0, SVG Export Plug-In . SVG Version: 6.00 Build 0)  -->
<svg version="1.1" id="Layer_1" xmlns="http://www.w3.org/2000/svg" xmlns:xlink="http://www.w3.org/1999/xlink" x="0px" y="0px"
	 viewBox="0 0 733.3 154" style="enable-background:new 0 0 733.3 154;" xml:space="preserve">
<style type="text/css">
	.st0{fill:#FFFFFF;}
	.st1{fill:#00D2FF;}
</style>
<g>
	<path class="st0" d="M95.1,48.3c-1.1-1-2.4-1.4-3.9-1.4c-1.7,0-3.1,0.5-4.3,1.4c-0.9,0.7-1.5,1.6-1.8,2.5h11.5
		C96.4,49.8,95.9,49,95.1,48.3z"/>
	<path class="st0" d="M164.3,47.1c-2,0-3.6,0.7-5,2c-1.3,1.4-2,3-2,5c0,2,0.6,3.6,2,5c1.3,1.3,3,2,5,2c2,0,3.6-0.7,4.9-2
		c1.3-1.4,2-3,2-5c0-2-0.7-3.6-2-5C167.9,47.8,166.3,47.1,164.3,47.1z"/>
	<path class="st0" d="M0,0v154h255.9V0H0z M58.8,47.9h-5.4v10.3c0,2.5,0.8,3,2.4,3c0.8,0,1.4-0.1,1.9-0.2l0.9-0.2v6.7L58,67.6
		c-0.9,0.2-2,0.3-3.2,0.3c-5.7,0-8.7-3.2-8.7-9.1v-11h-3.1v-6.8H46v-9.5h7.3v9.5h5.4V47.9z M77.2,48l-0.9-0.2
		c-0.8-0.2-1.5-0.2-2.3-0.2c-3.7,0-5.9,2.3-5.9,5.9v13.7h-7.3V41.1H68v2.1c1.6-1.6,3.9-2.6,6.6-2.6c0.7,0,1.4,0.1,1.9,0.2l0.6,0.1
		V48z M102.2,63.2c-2.9,3.1-6.6,4.6-10.9,4.6c-4.1,0-7.4-1.2-10-3.7c-2.6-2.5-3.9-5.8-3.9-9.8v-0.2c0-4.1,1.3-7.4,3.8-10
		c2.6-2.5,5.9-3.8,9.8-3.8c3.8,0,6.9,1.3,9.3,3.8c2.4,2.5,3.6,5.7,3.6,9.4c0,0.8,0,1.4-0.1,2.1l-0.1,0.7H84.9c0.5,3.1,3,5,6.7,5
		c2.4,0,4.4-0.9,6.2-2.6l0.5-0.5l4.6,4.4L102.2,63.2z M114.7,67.9c-5.2,0-9.1-2-10.9-5.4l-0.3-0.5l4.9-4.1l0.4,0.7
		c1.1,1.7,3.4,2.8,5.9,2.8c1.1,0,3.7-0.2,3.7-2c0-0.7-0.7-1.2-1-1.3l-0.1,0c-0.5-0.3-1.5-0.6-2.1-0.9c-0.2-0.1-0.4-0.1-0.7-0.2
		c-0.8-0.2-1.7-0.6-2.4-0.8c-4.5-1.6-6.6-4-6.6-7.7c0-2.5,0.9-4.5,2.8-6c1.9-1.4,4.1-2.2,6.7-2.2c3.7,0,6.6,1.3,8.6,3.9l0.4,0.5
		l-4.3,4.6l-0.5-0.7c-0.9-1.2-2.4-1.8-4.2-1.8c-1,0-2.3,0.4-2.3,1.5c0,0.5,0.2,0.7,0.8,1.1c0.1,0.1,0.6,0.3,1.8,0.8
		c0.7,0.2,1.8,0.6,2.7,0.9l0.4,0.1c4.9,1.7,7.1,4.2,7.1,8.1C125.6,64.6,121.5,67.9,114.7,67.9z M151.1,63.4c-2.8,3-6.3,4.5-10.4,4.5
		c-4,0-7.4-1.3-10.1-3.9c-2.7-2.6-4.1-5.9-4.1-9.9c0-3.9,1.4-7.2,4.1-9.9c2.7-2.6,6.1-4,10.1-4c4.2,0,7.7,1.5,10.4,4.5l0.5,0.5
		l-4.6,4.8l-0.5-0.6c-1.6-1.6-3.5-2.5-5.8-2.5c-2,0-3.6,0.7-4.9,2c-1.3,1.3-1.9,3-1.9,5c0,2,0.7,3.7,2,5c1.3,1.3,2.9,2,4.9,2
		c2.3,0,4.2-0.8,5.8-2.5l0.5-0.6l4.6,4.8L151.1,63.4z M174.4,64c-2.7,2.6-6.1,4-10.1,4s-7.3-1.3-10.1-4c-2.8-2.6-4.2-6-4.2-9.9
		c0-3.9,1.4-7.2,4.2-9.9c2.7-2.6,6.1-4,10.1-4s7.3,1.3,10.1,4c2.8,2.7,4.1,6,4.1,9.9C178.6,58,177.2,61.4,174.4,64z M206.7,67
		l-0.5,0.2c-0.8,0.2-1.7,0.3-2.8,0.3c-3,0-6.5-1.3-6.5-7.2v-8.2c0-3-1.6-4.8-4.5-4.8c-2.9,0-4.9,2-4.9,5v15h-7.3V41.1h7.3v2
		c1.6-1.6,4-2.5,6.7-2.5c6.1,0,10,4.1,10,10.6V59c0,1.9,0.3,1.9,0.9,1.9c0.2,0,0.5,0,0.7-0.1l0.9-0.2V67z M206.4,44.4
		c-2.5,0-4.6-2-4.6-4.6s2-4.6,4.6-4.6c2.5,0,4.6,2,4.6,4.6S209,44.4,206.4,44.4z"/>
	<g>
		<path class="st1" d="M28,112.7c-2.3-1.1-4.1-2.7-5.3-4.7c-1.2-2-1.8-4.3-1.8-6.9c0-3.4,0.8-6.5,2.4-9.3c1.6-2.7,3.8-4.9,6.7-6.4
			c2.9-1.5,6.1-2.3,9.8-2.3c2.8,0,5.2,0.5,7.4,1.5c2.1,1,3.8,2.4,4.8,4.2l-6.1,4.9c-1.5-2.3-3.7-3.5-6.6-3.5c-1.9,0-3.6,0.5-5.1,1.4
			c-1.5,0.9-2.6,2.1-3.4,3.7c-0.8,1.6-1.2,3.4-1.2,5.3c0,2,0.7,3.7,2,4.9c1.3,1.2,3.1,1.8,5.4,1.8c2.9,0,5.3-1.2,7.3-3.5l5,4.9
			c-1.6,2-3.5,3.4-5.7,4.3c-2.2,0.9-4.7,1.3-7.5,1.3C32.9,114.3,30.3,113.8,28,112.7z"/>
		<path class="st1" d="M80.1,90.4l-14.9,24.3c-1.2,2-2.4,3.5-3.5,4.6c-1.1,1.1-2.3,1.9-3.6,2.4c-1.3,0.5-2.7,0.7-4.4,0.7
			c-1.2,0-2.5-0.2-3.7-0.6c-1.2-0.4-2.2-0.9-2.9-1.5l3.7-5.8c1,0.9,2.2,1.3,3.6,1.3c0.7,0,1.4-0.2,1.9-0.5c0.5-0.3,1-0.9,1.5-1.6
			l-5.3-23.5h8.1l2.9,14.3l8.6-14.3H80.1z"/>
		<path class="st1" d="M101,91.3c1.5,0.8,2.7,2.1,3.6,3.7c0.9,1.6,1.4,3.5,1.4,5.6c0,2.5-0.6,4.8-1.7,6.9c-1.1,2-2.7,3.7-4.6,4.8
			c-1.9,1.2-4,1.8-6.3,1.8c-3.6,0-6.1-1.2-7.4-3.7l-0.6,3.3h-7.8l6.4-31.9H92L90,92.2c1.7-1.4,3.8-2.1,6.2-2.1
			C97.9,90,99.5,90.5,101,91.3z M96.2,105.7c1-1.2,1.5-2.8,1.5-4.7c0-1.4-0.4-2.5-1.2-3.3c-0.8-0.8-1.9-1.2-3.2-1.2
			c-1.6,0-3,0.6-4,1.8c-1,1.2-1.5,2.8-1.5,4.7c0,1.4,0.4,2.5,1.2,3.2c0.8,0.8,1.9,1.2,3.2,1.2C93.8,107.5,95.2,106.9,96.2,105.7z"/>
		<path class="st1" d="M133.2,104.1h-17.1c0.3,2.5,2,3.8,5.3,3.8c1,0,2-0.2,3-0.5c1-0.3,1.8-0.8,2.6-1.4l3.4,5.1c-2.7,2-6,3-9.9,3
			c-2.5,0-4.6-0.4-6.5-1.3c-1.9-0.9-3.3-2.1-4.3-3.7c-1-1.6-1.5-3.5-1.5-5.6c0-2.5,0.6-4.8,1.8-6.9c1.2-2,2.8-3.7,5-4.8
			c2.1-1.2,4.6-1.7,7.3-1.7c2.3,0,4.3,0.4,6.1,1.3c1.7,0.8,3.1,2,4,3.6c0.9,1.5,1.4,3.3,1.4,5.4
			C133.7,101.4,133.5,102.7,133.2,104.1z M118.5,96.9c-0.9,0.7-1.5,1.7-1.9,2.9h9.6c0-1.2-0.4-2.2-1.2-2.9c-0.8-0.7-1.9-1.1-3.2-1.1
			C120.5,95.8,119.4,96.2,118.5,96.9z"/>
		<path class="st1" d="M155.1,90l-1.4,7.3c-0.7-0.1-1.3-0.1-1.8-0.1c-1.8,0-3.3,0.4-4.4,1.3c-1.1,0.9-1.8,2.3-2.2,4.1l-2.2,11h-8.2
			l4.6-23.3h7.7l-0.5,2.6C148.6,91,151.4,90,155.1,90z"/>
		<path class="st1" d="M158.1,113.4c-2.2-0.6-4.1-1.4-5.5-2.3l3.4-6.4c1.5,1,3.1,1.7,4.9,2.2c1.7,0.5,3.4,0.8,5.2,0.8
			c1.6,0,2.9-0.2,3.8-0.7c0.9-0.5,1.4-1.1,1.4-2c0-0.7-0.4-1.3-1.2-1.7c-0.8-0.4-2.1-0.8-3.8-1.3c-1.9-0.5-3.6-1-4.9-1.6
			c-1.3-0.5-2.4-1.3-3.3-2.4c-0.9-1.1-1.4-2.5-1.4-4.3c0-2.1,0.6-4,1.8-5.6c1.2-1.6,2.8-2.9,5-3.8c2.2-0.9,4.7-1.3,7.6-1.3
			c2.1,0,4.2,0.2,6,0.7c1.9,0.4,3.5,1.1,4.8,1.9l-3.1,6.3c-1.2-0.7-2.5-1.3-3.9-1.7c-1.4-0.4-2.9-0.6-4.4-0.6c-1.7,0-3,0.3-4,0.8
			c-1,0.5-1.4,1.2-1.4,2.1c0,0.7,0.4,1.3,1.2,1.7c0.8,0.4,2.1,0.8,3.9,1.3c1.9,0.5,3.6,1,4.8,1.5c1.3,0.5,2.4,1.3,3.3,2.4
			c0.9,1.1,1.4,2.4,1.4,4.2c0,2.1-0.6,4-1.8,5.6c-1.2,1.6-2.9,2.9-5.1,3.8c-2.2,0.9-4.7,1.3-7.6,1.3
			C162.7,114.3,160.4,114,158.1,113.4z"/>
		<path class="st1" d="M207.3,104.1h-17.1c0.3,2.5,2,3.8,5.3,3.8c1,0,2-0.2,3-0.5c1-0.3,1.8-0.8,2.6-1.4l3.4,5.1c-2.7,2-6,3-9.9,3
			c-2.5,0-4.6-0.4-6.5-1.3c-1.9-0.9-3.3-2.1-4.3-3.7c-1-1.6-1.5-3.5-1.5-5.6c0-2.5,0.6-4.8,1.8-6.9c1.2-2,2.8-3.7,5-4.8
			c2.1-1.2,4.6-1.7,7.3-1.7c2.3,0,4.3,0.4,6.1,1.3c1.7,0.8,3.1,2,4,3.6c0.9,1.5,1.4,3.3,1.4,5.4
			C207.8,101.4,207.6,102.7,207.3,104.1z M192.6,96.9c-0.9,0.7-1.5,1.7-1.9,2.9h9.6c0-1.2-0.4-2.2-1.2-2.9c-0.8-0.7-1.9-1.1-3.2-1.1
			C194.6,95.8,193.5,96.2,192.6,96.9z"/>
		<path class="st1" d="M215.4,112.8c-1.8-0.9-3.3-2.1-4.3-3.7c-1-1.6-1.5-3.5-1.5-5.6c0-2.5,0.6-4.8,1.8-6.9c1.2-2,2.9-3.6,5.2-4.8
			c2.2-1.2,4.7-1.8,7.4-1.8c2.6,0,4.9,0.6,6.8,1.7c1.9,1.1,3.3,2.7,4.2,4.7l-7,3.3c-0.9-2.1-2.4-3.1-4.5-3.1c-1.7,0-3,0.6-4.1,1.8
			c-1.1,1.2-1.6,2.7-1.6,4.6c0,1.4,0.4,2.5,1.2,3.3c0.8,0.8,1.9,1.2,3.4,1.2c1.1,0,2-0.2,2.9-0.7c0.8-0.5,1.5-1.3,2.1-2.3l6,3.6
			c-1.1,1.9-2.7,3.4-4.7,4.4c-2,1.1-4.3,1.6-6.9,1.6C219.4,114.1,217.2,113.7,215.4,112.8z"/>
	</g>
	<g>
		<g>
			<polygon class="st0" points="326.9,9.9 318.6,45.7 306.2,45.7 301.3,23.6 296.3,45.7 283.9,45.7 275.6,9.9 286.3,9.9 290.3,34.3 
				295.8,9.9 306.7,9.9 312.2,34.3 316.2,9.9 			"/>
			<path class="st0" d="M354.7,11.7c2.8,1.6,5,3.8,6.6,6.6c1.6,2.8,2.4,6,2.4,9.5c0,3.5-0.8,6.7-2.4,9.5c-1.6,2.8-3.8,5-6.6,6.6
				c-2.8,1.6-5.8,2.4-9.2,2.4c-3.3,0-6.4-0.8-9.2-2.4c-2.8-1.6-5-3.8-6.6-6.6c-1.6-2.8-2.4-6-2.4-9.5c0-3.5,0.8-6.7,2.4-9.5
				c1.6-2.8,3.8-5,6.6-6.6c2.8-1.6,5.9-2.4,9.2-2.4C348.8,9.3,351.9,10.1,354.7,11.7 M339.5,21c-1.5,1.6-2.2,3.9-2.2,6.7
				c0,2.8,0.7,5,2.2,6.6c1.5,1.7,3.4,2.5,6,2.5c2.5,0,4.5-0.8,5.9-2.5c1.5-1.7,2.2-3.9,2.2-6.6c0-2.8-0.7-5.1-2.2-6.7
				c-1.4-1.6-3.4-2.5-6-2.5C342.9,18.5,340.9,19.3,339.5,21"/>
			<path class="st0" d="M385.4,45.7l-7.2-13.2h-1v13.2h-10V9.9h15.8c2.9,0,5.3,0.5,7.3,1.5c2,1,3.5,2.4,4.5,4.1
				c1,1.8,1.5,3.7,1.5,5.9c0,2.5-0.7,4.7-2.1,6.5c-1.4,1.8-3.4,3.1-6,3.9l8.2,13.9H385.4z M377.1,25.8h4.9c2.8,0,4.2-1.2,4.2-3.7
				c0-1.2-0.3-2.1-1-2.8c-0.7-0.7-1.7-1-3.1-1h-4.9V25.8z"/>
			<polygon class="st0" points="410.2,38.2 421.4,38.2 421.4,45.7 400.2,45.7 400.2,9.9 410.2,9.9 			"/>
			<path class="st0" d="M455.8,37c-1.5,2.7-3.7,4.9-6.5,6.4c-2.8,1.6-6.1,2.3-9.9,2.3h-14.3V9.9h14.3c3.8,0,7.1,0.8,9.9,2.3
				c2.8,1.5,5,3.6,6.5,6.3c1.5,2.7,2.3,5.8,2.3,9.3C458,31.2,457.3,34.3,455.8,37 M445.4,34.4c1.7-1.6,2.5-3.8,2.5-6.7
				c0-2.9-0.8-5.1-2.5-6.7c-1.7-1.6-4-2.4-6.9-2.4h-3.4v18.2h3.4C441.4,36.8,443.7,36,445.4,34.4"/>
			<path class="st0" d="M496.7,11.2c2.4,1.1,4.4,2.7,5.9,4.8c1.5,2.1,2.5,4.5,3.1,7.2h-10.5c-0.6-1.4-1.5-2.5-2.7-3.3
				c-1.2-0.8-2.6-1.2-4.2-1.2c-2.2,0-4,0.8-5.3,2.5c-1.4,1.6-2,3.8-2,6.6c0,2.7,0.7,4.9,2,6.6c1.4,1.7,3.1,2.5,5.3,2.5
				c1.6,0,3-0.4,4.2-1.2c1.2-0.8,2.1-1.9,2.7-3.3h10.5c-0.8,4.2-2.7,7.5-5.7,10c-3,2.5-6.8,3.7-11.5,3.7c-3.5,0-6.6-0.8-9.3-2.3
				c-2.7-1.5-4.7-3.7-6.1-6.5c-1.4-2.8-2.2-5.9-2.2-9.5s0.7-6.7,2.2-9.5c1.4-2.8,3.5-4.9,6.1-6.5c2.7-1.5,5.7-2.3,9.3-2.3
				C491.5,9.5,494.3,10.1,496.7,11.2"/>
			<polygon class="st0" points="538.8,9.9 526.1,34.3 526.1,45.7 516.2,45.7 516.2,34.3 503.5,9.9 514.9,9.9 521.3,23.5 527.5,9.9 
							"/>
			<path class="st0" d="M568.5,30.4c1.2,1.6,1.8,3.4,1.8,5.5c0,3.1-1,5.5-3.1,7.2c-2.1,1.7-5,2.6-8.9,2.6h-17.7V9.9H558
				c3.6,0,6.4,0.8,8.5,2.4c2,1.6,3.1,3.9,3.1,6.9c0,2.1-0.6,3.9-1.7,5.3c-1.1,1.4-2.6,2.4-4.4,2.8C565.6,27.8,567.3,28.8,568.5,30.4
				 M550.7,24.2h5c2.5,0,3.7-1,3.7-3.1c0-2.2-1.3-3.2-3.8-3.2h-5V24.2z M560.2,34.5c0-2.2-1.3-3.3-3.9-3.3h-5.6v6.6h5.6
				C558.9,37.7,560.2,36.6,560.2,34.5"/>
			<polygon class="st0" points="584.6,17.8 584.6,23.7 596.2,23.7 596.2,31.3 584.6,31.3 584.6,37.8 597.7,37.8 597.7,45.7 
				574.6,45.7 574.6,9.9 597.7,9.9 597.7,17.8 			"/>
			<path class="st0" d="M620.5,45.7l-7.2-13.2h-1v13.2h-10V9.9H618c2.9,0,5.3,0.5,7.3,1.5c2,1,3.5,2.4,4.5,4.1
				c1,1.8,1.5,3.7,1.5,5.9c0,2.5-0.7,4.7-2.1,6.5c-1.4,1.8-3.4,3.1-6,3.9l8.2,13.9H620.5z M612.2,25.8h4.9c2.8,0,4.2-1.2,4.2-3.7
				c0-1.2-0.3-2.1-1-2.8c-0.7-0.7-1.7-1-3.1-1h-4.9V25.8z"/>
			<path class="st0" d="M302,88.7c-1,1.6-2.5,2.9-4.5,3.8c-2,0.9-4.3,1.4-7,1.4c-4.2,0-7.6-1-10.3-3c-2.7-2-4.1-4.8-4.4-8.5h10.6
				c0.1,1.2,0.5,2.2,1.2,2.8c0.7,0.6,1.5,0.9,2.5,0.9c0.9,0,1.6-0.2,2.1-0.7c0.5-0.4,0.7-1.1,0.7-1.9c0-1.1-0.5-1.9-1.5-2.5
				c-1-0.6-2.5-1.2-4.7-2c-2.3-0.8-4.1-1.5-5.6-2.3c-1.5-0.7-2.7-1.9-3.8-3.3c-1.1-1.5-1.6-3.4-1.6-5.7c0-2.2,0.6-4.1,1.7-5.7
				c1.1-1.6,2.7-2.8,4.7-3.6c2-0.8,4.3-1.2,6.8-1.2c4.1,0,7.4,1,9.9,2.9c2.4,1.9,3.8,4.7,4,8.2h-10.7c-0.1-1.1-0.5-1.9-1-2.5
				c-0.6-0.5-1.3-0.8-2.2-0.8c-0.8,0-1.4,0.2-1.8,0.6c-0.4,0.4-0.7,1-0.7,1.8c0,1,0.5,1.8,1.4,2.4c1,0.6,2.5,1.2,4.5,1.9
				c2.3,0.8,4.1,1.6,5.6,2.4c1.5,0.8,2.8,1.9,3.8,3.4c1.1,1.5,1.6,3.4,1.6,5.8C303.5,85.3,303,87.1,302,88.7"/>
			<polygon class="st0" points="316.8,65.7 316.8,71.7 328.4,71.7 328.4,79.2 316.8,79.2 316.8,85.7 329.9,85.7 329.9,93.6 
				306.8,93.6 306.8,57.8 329.9,57.8 329.9,65.7 			"/>
			<path class="st0" d="M358.3,59.1c2.4,1.1,4.4,2.7,5.9,4.8c1.5,2.1,2.5,4.5,3.1,7.2h-10.5c-0.6-1.4-1.5-2.5-2.7-3.3
				c-1.2-0.8-2.6-1.2-4.2-1.2c-2.2,0-4,0.8-5.3,2.5c-1.4,1.6-2,3.8-2,6.6c0,2.7,0.7,4.9,2,6.6c1.4,1.7,3.1,2.5,5.3,2.5
				c1.6,0,3-0.4,4.2-1.2c1.2-0.8,2.1-1.9,2.7-3.3h10.5c-0.8,4.2-2.7,7.5-5.7,10s-6.8,3.7-11.5,3.7c-3.5,0-6.6-0.8-9.3-2.3
				c-2.7-1.5-4.7-3.7-6.1-6.5c-1.4-2.8-2.2-5.9-2.2-9.5c0-3.5,0.7-6.7,2.2-9.5c1.4-2.8,3.5-4.9,6.1-6.5c2.7-1.5,5.7-2.3,9.3-2.3
				C353.1,57.4,355.8,58,358.3,59.1"/>
			<path class="st0" d="M381.4,57.8v20.5c0,2,0.4,3.6,1.3,4.7c0.9,1.1,2.3,1.6,4.1,1.6c1.8,0,3.2-0.6,4.1-1.7
				c0.9-1.1,1.4-2.7,1.4-4.7V57.8h9.9v20.5c0,3.4-0.7,6.2-2.1,8.6c-1.4,2.4-3.2,4.1-5.6,5.3c-2.4,1.2-5,1.8-8,1.8s-5.6-0.6-7.9-1.8
				c-2.3-1.2-4.1-3-5.3-5.3c-1.3-2.4-1.9-5.2-1.9-8.7V57.8H381.4z"/>
			<path class="st0" d="M425.8,93.6l-7.2-13.2h-1v13.2h-10V57.8h15.7c2.9,0,5.3,0.5,7.3,1.5c2,1,3.5,2.4,4.5,4.1
				c1,1.8,1.5,3.7,1.5,5.9c0,2.5-0.7,4.7-2.1,6.5c-1.4,1.8-3.4,3.1-6,3.9l8.2,13.9H425.8z M417.5,73.7h4.9c2.8,0,4.2-1.2,4.2-3.7
				c0-1.2-0.3-2.1-1-2.8c-0.7-0.7-1.7-1-3.1-1h-4.9V73.7z"/>
			<rect x="440.6" y="57.8" class="st0" width="10" height="35.9"/>
			<polygon class="st0" points="483.1,57.8 483.1,65.7 473.4,65.7 473.4,93.6 463.5,93.6 463.5,65.7 453.9,65.7 453.9,57.8 			"/>
			<polygon class="st0" points="522.2,57.8 509.5,82.2 509.5,93.6 499.6,93.6 499.6,82.2 486.9,57.8 498.3,57.8 504.6,71.4 
				510.9,57.8 			"/>
			<path class="st0" d="M559.7,88.7c-1,1.6-2.5,2.9-4.5,3.8c-2,0.9-4.3,1.4-7,1.4c-4.2,0-7.6-1-10.3-3c-2.7-2-4.1-4.8-4.4-8.5h10.6
				c0.1,1.2,0.5,2.2,1.2,2.8c0.7,0.6,1.5,0.9,2.5,0.9c0.9,0,1.6-0.2,2.1-0.7c0.5-0.4,0.7-1.1,0.7-1.9c0-1.1-0.5-1.9-1.5-2.5
				c-1-0.6-2.5-1.2-4.7-2c-2.3-0.8-4.1-1.5-5.6-2.3c-1.5-0.7-2.7-1.9-3.8-3.3c-1.1-1.5-1.6-3.4-1.6-5.7c0-2.2,0.6-4.1,1.7-5.7
				c1.1-1.6,2.7-2.8,4.7-3.6c2-0.8,4.3-1.2,6.8-1.2c4.1,0,7.4,1,9.9,2.9c2.4,1.9,3.8,4.7,4,8.2h-10.7c-0.1-1.1-0.5-1.9-1-2.5
				c-0.6-0.5-1.3-0.8-2.2-0.8c-0.8,0-1.4,0.2-1.8,0.6c-0.4,0.4-0.7,1-0.7,1.8c0,1,0.5,1.8,1.4,2.4c1,0.6,2.5,1.2,4.5,1.9
				c2.3,0.8,4.1,1.6,5.6,2.4c1.5,0.8,2.8,1.9,3.9,3.4c1.1,1.5,1.6,3.4,1.6,5.8C561.2,85.3,560.7,87.1,559.7,88.7"/>
			<path class="st0" d="M573.3,57.8v20.5c0,2,0.4,3.6,1.3,4.7c0.9,1.1,2.3,1.6,4.1,1.6c1.8,0,3.2-0.6,4.1-1.7
				c0.9-1.1,1.4-2.7,1.4-4.7V57.8h9.9v20.5c0,3.4-0.7,6.2-2.1,8.6c-1.4,2.4-3.2,4.1-5.6,5.3c-2.4,1.2-5,1.8-8,1.8
				c-3,0-5.6-0.6-7.9-1.8c-2.3-1.2-4.1-3-5.3-5.3c-1.3-2.4-1.9-5.2-1.9-8.7V57.8H573.3z"/>
			<polygon class="st0" points="640.1,57.9 640.1,93.6 630.2,93.6 630.2,73.4 623.6,93.6 615,93.6 608.4,73.4 608.4,93.6 
				598.4,93.6 598.4,57.9 610.6,57.9 619.4,81.1 628,57.9 			"/>
			<polygon class="st0" points="686.3,57.9 686.3,93.6 676.4,93.6 676.4,73.4 669.7,93.6 661.2,93.6 654.5,73.4 654.5,93.6 
				644.6,93.6 644.6,57.9 656.8,57.9 665.6,81.1 674.1,57.9 			"/>
			<rect x="690.8" y="57.8" class="st0" width="10" height="35.9"/>
			<polygon class="st0" points="733.3,57.8 733.3,65.7 723.6,65.7 723.6,93.6 713.7,93.6 713.7,65.7 704.1,65.7 704.1,57.8 			"/>
		</g>
		<g>
			<path class="st0" d="M351.5,127.9h-3.1v3.6h3.1c1.4,0,2.1-0.6,2.1-1.8C353.6,128.5,352.9,127.9,351.5,127.9z"/>
			<path class="st0" d="M353.2,122.4c0-1.2-0.7-1.8-2.1-1.8h-2.7v3.5h2.8C352.5,124.1,353.2,123.5,353.2,122.4z"/>
			<path class="st0" d="M275.6,106.8v38.6h224.5v-38.6H275.6z M304.9,130.1c-0.7,1.6-1.8,3-3.4,4.2c-1.5,1.2-3.5,1.7-5.8,1.7
				c-2,0-3.8-0.4-5.3-1.3c-1.5-0.8-2.7-2-3.5-3.5c-0.8-1.5-1.2-3.3-1.2-5.2s0.4-3.7,1.2-5.2c0.8-1.5,1.9-2.7,3.4-3.5
				c1.5-0.8,3.2-1.3,5.2-1.3c2.5,0,4.6,0.6,6.2,1.8c1.6,1.2,2.6,2.9,2.9,4.9H299c-0.3-0.5-0.7-1-1.3-1.3c-0.6-0.3-1.3-0.5-2-0.5
				c-1.3,0-2.4,0.4-3.2,1.3c-0.8,0.9-1.2,2.1-1.2,3.6c0,1.7,0.4,3,1.3,3.9c0.8,0.9,2.1,1.3,3.7,1.3c0.9,0,1.7-0.2,2.4-0.7
				c0.7-0.4,1.3-1.1,1.7-2h-5.4v-3.9h10V130.1z M319,135.9h-11.6v-19.7h5.5v15.5h6.1V135.9z M339.2,131.2c-0.9,1.5-2.1,2.7-3.6,3.6
				c-1.5,0.9-3.2,1.3-5,1.3c-1.8,0-3.5-0.4-5.1-1.3c-1.5-0.9-2.7-2.1-3.6-3.6c-0.9-1.5-1.3-3.3-1.3-5.2c0-1.9,0.4-3.7,1.3-5.2
				c0.9-1.5,2.1-2.7,3.6-3.6c1.5-0.9,3.2-1.3,5.1-1.3c1.9,0,3.5,0.4,5.1,1.3c1.5,0.9,2.7,2.1,3.6,3.6c0.9,1.5,1.3,3.3,1.3,5.2
				S340,129.7,339.2,131.2z M357.5,134.5c-1.1,0.9-2.8,1.4-4.9,1.4h-9.7v-19.7h9.5c2,0,3.5,0.4,4.7,1.3c1.1,0.9,1.7,2.1,1.7,3.8
				c0,1.2-0.3,2.1-0.9,2.9c-0.6,0.8-1.4,1.3-2.4,1.5c1.2,0.3,2.1,0.9,2.8,1.7c0.7,0.9,1,1.9,1,3
				C359.2,132.3,358.7,133.6,357.5,134.5z M375,135.9l-1.1-3.3h-7l-1.1,3.3h-5.8l7.2-19.6h6.3l7.2,19.6H375z M394,135.9h-11.6v-19.7
				h5.5v15.5h6.1V135.9z M415.1,133.2c-0.6,0.9-1.4,1.6-2.4,2.1c-1.1,0.5-2.4,0.8-3.9,0.8c-2.3,0-4.2-0.5-5.6-1.6
				c-1.5-1.1-2.3-2.6-2.4-4.7h5.8c0.1,0.7,0.3,1.2,0.6,1.5c0.4,0.3,0.8,0.5,1.4,0.5c0.5,0,0.9-0.1,1.1-0.4c0.3-0.2,0.4-0.6,0.4-1
				c0-0.6-0.3-1-0.8-1.4c-0.5-0.3-1.4-0.7-2.6-1.1c-1.2-0.4-2.3-0.8-3.1-1.2c-0.8-0.4-1.5-1-2.1-1.8c-0.6-0.8-0.9-1.9-0.9-3.1
				c0-1.2,0.3-2.3,0.9-3.2c0.6-0.9,1.5-1.5,2.6-2c1.1-0.5,2.3-0.7,3.7-0.7c2.3,0,4.1,0.5,5.4,1.6c1.3,1.1,2.1,2.6,2.2,4.5h-5.9
				c-0.1-0.6-0.3-1.1-0.6-1.4c-0.3-0.3-0.7-0.4-1.2-0.4c-0.4,0-0.8,0.1-1,0.3c-0.2,0.2-0.4,0.6-0.4,1c0,0.6,0.3,1,0.8,1.3
				c0.5,0.3,1.4,0.7,2.5,1.1c1.2,0.4,2.3,0.9,3.1,1.3c0.8,0.4,1.5,1,2.1,1.9c0.6,0.8,0.9,1.9,0.9,3.2
				C415.9,131.4,415.6,132.3,415.1,133.2z M431,120.6h-7.2v3.3h6.4v4.1h-6.4v3.6h7.2v4.4h-12.7v-19.7H431V120.6z M443.5,135.9
				l-4-7.3h-0.6v7.3h-5.5v-19.7h8.6c1.6,0,2.9,0.3,4,0.8c1.1,0.5,1.9,1.3,2.5,2.3c0.6,1,0.8,2,0.8,3.2c0,1.4-0.4,2.6-1.1,3.6
				c-0.8,1-1.9,1.7-3.3,2.1l4.5,7.6L443.5,135.9L443.5,135.9z M457.1,135.9h-5.5v-19.7h5.5V135.9z M472.8,120.6h-7.2v3.3h6.4v4.1
				h-6.4v3.6h7.2v4.4h-12.7v-19.7h12.7V120.6z M489.1,133.2c-0.6,0.9-1.4,1.6-2.4,2.1c-1.1,0.5-2.4,0.8-3.9,0.8
				c-2.3,0-4.2-0.5-5.6-1.6c-1.5-1.1-2.3-2.6-2.4-4.7h5.8c0.1,0.7,0.3,1.2,0.6,1.5c0.4,0.3,0.8,0.5,1.4,0.5c0.5,0,0.9-0.1,1.1-0.4
				c0.3-0.2,0.4-0.6,0.4-1c0-0.6-0.3-1-0.8-1.4c-0.5-0.3-1.4-0.7-2.6-1.1c-1.2-0.4-2.3-0.8-3.1-1.2c-0.8-0.4-1.5-1-2.1-1.8
				c-0.6-0.8-0.9-1.9-0.9-3.1c0-1.2,0.3-2.3,0.9-3.2c0.6-0.9,1.5-1.5,2.6-2c1.1-0.5,2.3-0.7,3.7-0.7c2.3,0,4.1,0.5,5.4,1.6
				c1.3,1.1,2.1,2.6,2.2,4.5h-5.9c-0.1-0.6-0.3-1.1-0.6-1.4c-0.3-0.3-0.7-0.4-1.2-0.4c-0.4,0-0.8,0.1-1,0.3c-0.2,0.2-0.4,0.6-0.4,1
				c0,0.6,0.3,1,0.8,1.3c0.5,0.3,1.4,0.7,2.5,1.1c1.2,0.4,2.3,0.9,3.1,1.3c0.8,0.4,1.5,1,2.1,1.9c0.6,0.8,0.9,1.9,0.9,3.2
				C489.9,131.4,489.7,132.3,489.1,133.2z"/>
			<polygon class="st0" points="368.3,128.5 372.6,128.5 370.5,122.1 			"/>
			<path class="st0" d="M330.5,121c-1.4,0-2.5,0.4-3.3,1.3c-0.8,0.9-1.2,2.1-1.2,3.7c0,1.5,0.4,2.7,1.2,3.6c0.8,0.9,1.9,1.4,3.3,1.4
				c1.4,0,2.5-0.5,3.3-1.4c0.8-0.9,1.2-2.1,1.2-3.6c0-1.6-0.4-2.8-1.2-3.7C333,121.5,331.9,121,330.5,121z"/>
			<path class="st0" d="M441.6,120.9h-2.7v4.1h2.7c1.5,0,2.3-0.7,2.3-2.1c0-0.7-0.2-1.2-0.6-1.5C443,121.1,442.4,120.9,441.6,120.9z
				"/>
		</g>
	</g>
</g>
</svg>
