<?xml version="1.0" encoding="utf-8"?>
<!-- Generator: Adobe Illustrator 26.2.1, SVG Export Plug-In . SVG Version: 6.00 Build 0)  -->
<svg version="1.1" id="Ñëîé_2" xmlns="http://www.w3.org/2000/svg" xmlns:xlink="http://www.w3.org/1999/xlink" x="0px" y="0px"
	 viewBox="0 0 2416.17 1334.78" style="enable-background:new 0 0 2416.17 1334.78;" xml:space="preserve">
<style type="text/css">
	.st0{fill:#C9C7C7;}
</style>
<g>
	<g>
		<path class="st0" d="M197.63,149.08c0.31-0.15,0.61-0.3,0.89-0.46C196.14,148.76,197,148.81,197.63,149.08z"/>
		<path class="st0" d="M695.73,2.94c-15.87,3.71-17.11,4.04-30.66,0.49c-12.81-3.35-19.27-4.97-33.31-1.47
			c-20.49,5.12-16.17,8.77-25.95,22.88c-9.7,14,5.26,5.15-14.11,15.87c-15.4,8.53-36.24,3.58-52.56,10.68
			c1.34,20.24,6.81,40.61,7.23,61.21c-29.38,17.8-32.73-27.62-52.4-39.28c-23.2-13.75-63.24,2.65-82.56,19.78
			c12.39,27.02-21.07,20.61-25.75,36.92c-7.83,27.26,35.87,26.52,29.61,51.92c-25.18,10.61-61.38-22.03-84.9-31.73
			c-20.42-8.42-38.61,10.72-63.89,3.53c-19.03-5.41-51.35-16.3-68.42-4.33c-0.06-0.13-0.23-0.24-0.42-0.32
			c-22.49,10.83-98.84-14.68-106.42,18.95c9.95-0.44,20.5-2.96,30.44-2.43c4.62,4.73,4.17,7.06,11.77,7.71
			c-0.88,26.04,32,27.79,46.49,16.92c20.9,31.41,60.7-7.97,87.91-2.19c16.55,3.52,18.4,13.87,38.65,9.59
			c18.92-4,20.26-3.14,36.26,3.49c14.1,5.84,21.75,8.76,29.89,20.63c10.36,15.1-1.54,15.55,13.47,14.59
			c10.34-0.67,23.75-16.4,39.35-15.61c12.93,0.65,22.29,8.17,36.85,3.77c3.99-18.86-17.17-32.02-5.12-48.95
			c10.15-14.26,29.34-1.26,40.52-0.19c14.66,1.41,24.12-1.48,37.84,9.64c17.52,14.21,20.61,28.38,44.78,24.74
			c2.6-15.82-10.27-11.43-14.5-21.04c-4.61-10.46-1.66-6.77-2.58-16.16c0.3,3.01,6.62-7.22,6.89-9.49
			c0.38-3.14-5.54-8.11-5.35-10.03c3.85-39.48,20.41-22.74,43.08-34.41c28.84-14.84,25.14-52.89,58.41-64.7
			c10.5-3.73,21.66-1.44,31.88-7.23c12.06-6.84,17.8-19.38,28.67-26.69l2.65-11.56C722.2-3.64,707.02,0.3,695.73,2.94z"/>
	</g>
	<path class="st0" d="M1003.79,47.59c-3.61,0.72-7.05,2.29-10.47,3.42c-2.5,0.83-4.8,3.03-7.48,3.48c-1.82,0.31-3.31-2.24-4.29-2.07
		c-7.54,1.35-17.97,15.14-24.61,10.72c0.78-7.4,8.35-13.03,13.3-17.53c-0.33-1.26-2.08-5.14-2.85-6.12
		c-8.91,1.32-17.52,11.65-26.83,11.33c1.56-3.94,6.82-5.29,10.7-7.33c-11.28-7.7-34.69,1.15-49.01-0.89
		c7.35-22,54.53-1.07,66.82-11.25c-4.05-5.71-12.82-3.8-18.91-4.06c2.87-0.25,4.89-1.96,7.21-2.75
		c-19.31-13.02-49.11,5.69-69.94,1.22c11.53-12.18,36.4-9.86,50.71-7.47c-4.67-9.68-19.94-7.15-28.09-7.57
		c-8.92-0.46-19.45-1.85-28.09,1.37c-5.41,2.02-9.37,7.37-15.07,8.28c-1.52-6.73-21.96-8.32-27.1-4.71
		c0.69,1.62,0.52,4.68,1.48,6.24c-4.06-3.42-12.35-5.88-15.17,0.2c3.33,2.74,7.21,4.39,8.07,8.38c-1.39-0.22-3.15,0.15-4.56,0.07
		c2.67,3.89,1.79,9.19-4.28,9.65c-0.1-8.49-30.5-21.25-34.76-15.55c-4.02,5.38,5.98,8.46,2.41,13.53
		c-3.63,5.16-11.4-3.54-13.66-5.59c-1.4,5.35-6.33,6.74-10.74,4.21c9.7-17.05-26.66-13.45-28.04-7.7c4.52,0.95,9.68,3.78,9.71,8.69
		c-3.33,0.32-6.41-0.58-9.04-2.58c0.67-2.1-0.13-3.61,1.03-5.64c-5.75-1.17-13.85,0.17-18.99,2.5c2.72,2.4,3.37,5.67,2.14,9.34
		c-1.24,0.28-2.3,0-3.5-0.2c-0.14-1.29-0.88,0.36-1.04-0.92c-0.16,2.96-0.83,5.76-1.99,8.39c-4.06-1.17-7.42-3.62-7.8-8.45
		c-7.9,4.35-18.21,5.66-25.2,11.26c0.74,9.41,11.94,2.48,17.03,7.8c-0.01,0.26,0.28,3.92,0.26,4.45c-6.18,8.42-14.7,2.79-22.56,3.53
		c-0.26,13.7-10.21,4.03-15.58,3.09c-6.49-1.13-23.72,2.84-23.09,12.49c5.24,0.89,11.96-1.62,16.91,0.95
		c3.49,1.81,1.19,6.02,4.17,7.57c5.69,2.95,27.21-8.36,26.77,2.75c-0.64,15.92-26.35-2.84-29.75,3.78
		c-3.03,5.9,10.72,9.32,13.38,12.41c-1.82,0.03-4.02,1.57-5.74,1.72c4.36,13.79,17.49,5.33,25.61,3.54
		c7.74-1.71,15.1,0.72,23.14,2.36c9.31,1.91,14.86,2.53,21.25,10.19c6.71,8.04,7.09,20.65,13.14,28.18
		c3.2,3.98,8.44,4.38,11.33,8.84c2.07,3.21,1.19,8.66,3.39,12.3c3.58,5.93,9.3,6.2,13.29,11.16c3.31,4.13,5.58,13.39,3.51,18.81
		c-2.07,5.45-9.84,6.68-9.4,13.05c3.53,0.23,7.15,0.16,10.27,1.54c-4.48,10.17-12.47,3.2-18.47,8.2c2.64,4.86,7.76,8.19,13.05,5.89
		c1.26,9.07-19.21,7-12.48,13.85c-0.23-0.23,19.22,1.13,6.14,4.08c-5.09,15.87,8.34,2.65,11.66,6.58c3.47,4.11-0.83,8.27-2.28,10.83
		c-2.53,4.48-4.78-0.53-5.2,6.53c-1.1,18.7,21.19,28.46,33.19,20.61l3.57,4.26c8.35,5.82,20.71-9.46,6.9-13.28
		c15.56,0.05,8.43-13.65,13-21.57c3.82-6.62,8.91-2.35,14.33-5.91c4.76-3.12,4.45-10.06,10.85-11.7c0.8,1.33,1.8,2.45,3.01,3.36
		c7.21-2.72,15.96-4.11,22.18-9.14c5.12-4.14,6.92-10.88,13.28-13.94c2.82,9.42,20.36-2.49,26.97-4.72
		c7.91-2.67,22.86-5.21,27.03-14.52c-8.51-6.92-17.92,0.5-27.1-0.14c3.39-8.61-3.68-14.4,6.49-20.39
		c14.31-8.43,15.6,12.15,29.68,10.62c3.22-27.29-16.01-9.08-25.01-25.43c1.86-0.33,3.43-1.59,5.68-1.81
		c-4.15-12.67,22.44-4.7,26.79-6.47c-1.05-4.24-3.65-8.45-2.89-13.17c4.41,0.26,9.3,1.24,13.27-0.38c-0.52-5.54-5.63-7.27-9.87-9.77
		c0.19-2.87,0.22-2.74,2.15-4.52c3.84,3.21,9.09,4.44,13.75,2.69c1.34-10.5-17.56-5.1-17.11-15.81c0.48-11.29,19.89-0.04,25.08-5.88
		c-6.56-3.79-6.92-7.84-14.99-10.21c-6.26-1.84-13-0.2-9.48-10.46c8.31-2.88,6.79-7.12,11.58-12.12c5.45-5.69,13.53-4.41,18.95-9.43
		c-5.61-1.93-11.68-0.94-17.05-3.12c2.53-7.54,18.66-5.85,24.96-6.71c-6.76-7.22-17.44-1.01-25.9-2.69
		c11.38-10.25,34.61,0.06,43.18-9.48C1031.02,46.83,1009.09,46.54,1003.79,47.59z"/>
	<path class="st0" d="M714.22,406.52c-10.74-17.06,19.07-10.6,18.98-19.92c-4.52-0.38-8.78,1.78-13.22,1.51
		c2.37-6.25-1.56-8.99-6.93-6.06c-1.26-4.93-1.41-2.72-3.85-5.56c-0.87-5.1-4.82-8.69-9.51-10.11c7.64-3.93,4.96-9.61,2.86-16.44
		c-1-3.26-3.19-17.93-4.62-19.86c-9.03-12.17-8.58,3.41-11.26,8.56c-2.53,4.86-8.62,13.46-11.77,4.35
		c-6.51,3.85-7.25,12.68-16.7,9.75c2.29-2.04,4.25-5.3,6.89-6.95c-2.39-4.13-6.5-5.38-10.4-2.96c-1.31-6.86,1.41-15.32-1.79-21.77
		c-4.73-9.5-10.08-3.61-17.48-9.01c-6.82-4.98-5.46-9.72-15.11-13.18c-5.31-1.9-12.81-4.1-18.39-3.69
		c-3.71,6.54,6.4,14.91,5.23,23.1c-1.13,7.93-7.66,7.57-8.76,14.3c-2.56,15.65,18.42,17.96,3.91,35.87
		c-2.29,2.82-14.06,8.83-14.83,11.22c-1.27,3.95,5.2,12.82,5.86,17.85c1.25,9.53-1.13,31.02-15.32,21.79
		c-13.76-8.95-5.29-30.5-9.14-42.54c-3.27-10.25-6.78-5.46-15.84-7.47c-6.55-1.45-17.62-8.47-8.41-16.2
		c-13.44,3.78-20-0.25-31.99-4.06c-12.86-4.09-21.57,10.55-25.46-11.84c-0.67-3.87,1.08-10.34,0.28-13.15
		c-2.22-7.8-9.48-7.32-4.49-17.16c4.58-9.04,18.53-12.16,25-19.44c4.6-5.18,7.23-12.21,8.34-16.85c3.04,1.47,11.72,4.55,17.37,1.27
		c14.66-8.51-2.6-11.36-9.43-16.11c-16.99-11.83,3.9-12.01,14.22-7.8c1.67,0.68,6.6,6.8,7.57,6.71c4.18-0.4,6.35-5.63,3.54-8.38
		c8.51-0.06,13.86,3.84,21.19-1.97c3.63-2.88,5.61-9.57,11.19-12.34c-1.29-4.24-4.9-8.05-6.51-11.47c4.23-0.39,7.5-2.17,9.34-5.98
		c-4.01-3.06-13.37-6.24-18.49-5.44c-9.94,1.56-5.46,2.13-8.45,12.58c-4.94,17.3-22.92,23.76-26.08,2.86
		c2.58-1.02,4.64-4.8,6.81-5.89c-8.01-16.79-15.38,1.28-21.8,2.98c-2.34-5.15-2.38-11.51-5.76-15.81c-2-2.54-4.34,0.89-5.28-0.23
		c-5.93-7.11,0.46-33.58-12.76-34.63c-15.29-1.21-12.43,22.35-7.1,30.2c3.64,5.35,11.39,9.88,9.27,17.52
		c-2.3,8.27-17.68,6.87-15.06,17.96c-8.93,1.49-14.53-10.1-22.18-13.61c-10.08-4.63-27.99-4.37-39.24-3.63
		c-6.19-4.98-8.89,10.75-7.01,17.04c-10.81,3.38-14.47-8.25-22.74-11.92c-14.4-6.38-31.23,7.11-44.94-4.17
		c1.34-6.04,13.12-9.39,18.6-11.44c-15.1-8.25-27.46-3.76-43-6.17c-9.21-1.43-24.67-18.97-32.47-6.62
		c-7.76-10.66-5.95-23.85-20.24-9.51c-4.42,4.44-2.04,6.11-7.61,9.33c-7.71,4.46-17.17-2.09-24.72,0.79
		c-11.83,4.52-3.78,11.05-16.28,5.11c-7.48-3.55-14.32-12.44-22.82-13.09l-12.18-1.8c-10.66-0.62-18.63-1.83-28.56-5.22
		c-11.11-3.79-23.19-2.54-33.6-8.76c-10.53-6.29-18.16-9.37-29.67-9.1c-1.94,0.05-3-2.19-4.99-2c-2,0.2-5.16,6.03-6.69,5.8
		c-7.57-1.15-1.94-8.91,2.63-11.76c-8.16-4.57-19.13,15.11-27.72,9.57c1.18,0.97,1.8,3.33,2.8,4.33c-8.97,6.66-25.6-6.81-25.4,15.03
		c-5.02,1.78-11.28,2.75-15.38,4.2c-2.44,0.86-4.03,4.27-8.39,3.2c-2.34,13.43,26.65,2.86,18.24,19.57
		c7.68,4.44,12.71-2.3,14.99,9.43c2.35-2.46,5.16-3.83,8.03-2.85c-11.93,8.67-19.33,2.94-30.68,0.51c-2.53-0.54-1.06-2.84-5.54-2.2
		C9.35,217.26,1.61,226.65,0,229.97c4.83,1.36,9.58,2.72,8.77,8.74c3.95,0.67,9.1,0.11,13.12-0.09c1.5-0.08,11.12-1.41,11.52-1.32
		c12.21,2.57,4.15,11.94-3.78,17.86c-6.74,5.02-19.7,5.33-18.43,17.56c0.71,6.84,16.92,13.91,2.84,18.99
		c2.34,4.71,16.49,2.75,23.03,7.85c-0.66,1.74-0.56,4.66-1.42,6.36c5.11,0.57,19.12-6.28,24-3.68c11.32,6.04-7.08,12.42-0.02,20.49
		c-9.32,12.34-47,15.96-50.48,30.93c8.57-2.8,14.56-10.75,22.96-13.67c5.17-1.8,10.6-2.19,15.74-3.93
		c6.88-2.33,15.89-7.79,21.35-12.8c2.43-2.23,3.63-5.89,6.27-7.41c2.93-1.69,6.97,0.32,10.1-2.19c4.35-3.49,6.18-7.41,1.37-11.02
		c2.89-4.43,6.88-3.4,10.22-6.54c2.87-2.7,2.85-6.82,5.32-9c3.45-3.06,14.33-6.81,18.15-4.48c-3.29,3.55-8.57,6.41-11.51,9.25
		c-3.04,2.93-5.93,7.46-8.8,10.53c8.91,1.24,18.09-0.99,24.11-8.49c-0.81-1.2-1.62-2.4-2.41-3.61c5.94-7.94,23.33,0.54,30.67,3.75
		c9.51,4.16,16.29,6.47,26.56,8.34c2.89,0.53,10.8,0.39,15.29,2.83c4.2,2.29,2.76,8.29,9.54,7.17c5.33-0.88,3.26-13.96,15.06-4.44
		c6.46,5.21,6.53,16.48,15.91,20.82c-6.89,12.74,14.13,14.78,17.9,23.87c2.68,6.45,0.58,20.75-4.77,23.84
		c5.57,6.45,32.56,7.08,14.14,18.04c5.31,3.93,11.85,2.24,17.32,5.13c4.7,2.48,13.31,11.81,15.31,16.48
		c-2.49-0.02-5.49,1.78-8.12,1.8c0.83,1.1,2.56,6.34,3.46,7.46c-15.63-0.74-4.94,30.35-7.12,41.39
		c-2.67,13.53-1.81,23.72-1.96,37.18c-0.03,3.05-4.05,3.17-3,7.55c1.18,4.91,5.83,4.47,8.39,7.35c5.96,6.69,5.52,14.53,10.08,21.25
		c5.67,8.35,26.69,17.88,25.99,29.22c-0.87,14.18,21.44,22.78,19.32,38.06c-1.68-0.53-3.06-0.26-4.69-1.09
		c-1.44,6.84,12.61,13.44,16.21,18.35c4.68,6.39,9.6,18.12,18.37,19.53c-1.03-7.57-10.94-20.11-14.87-27.29
		c-5.13-9.39-12.88-17.36-17.44-27.06c-11.31-24.07,13.96-12.63,20.67,0.46c1.99,3.88,1.65,9.21,3.73,13.36
		c3.79,7.59,11.29,12.53,16.16,18.75c4.52,5.76,4.3,9.2,7.3,15.9c2.48,5.55,9.02,10.02,9.36,16.55c0.67,12.49-7.47,14.11,4.77,24.85
		c8.29,7.28,19.57,13.33,29.52,17.44c6.25,2.58,18.5,10.26,25.14,10.63c5.33,0.29,7.12-5.66,13.83-4.48
		c7.23,1.27,7.21,5.94,11.84,10.57c6.81,6.81,10.86,3.96,18.02,7.03c6.01,2.58,7.83,8.48,15.58,7.9
		c-0.13-13.26-16.2-4.33-6.48-22.97c-9.09-2.69-4.64-6.49-7.57-12.85c3.4-2.49,8.69-1.11,11.41-3.79c3.33-3.29,1.94-8.74,4.19-12.1
		c7.31-10.91,13.81-12.4-1.94-13.05c-15.1-0.63-11.72,5.4-22.16,14.31c-10.94,9.34-21.76-1.26-32.46,6
		c-5.23-4.32-5.68-15.8-8.74-22.15c-4.66-9.69-4.98-9.34-4.2-20.49c0.75-10.64-0.52-22.57,7.29-30.98
		c5.84-6.28,16.53-5.72,17.88-16.05c4.89,0.58,9.77,3.55,14.27,0.63c0.6,0.72,1.21,1.44,1.83,2.14c6.1-2.59,5.73,3.6,11.65,4.05
		c6.05,0.46,6.58-4.44,12.98-4.72c5.48-0.24,10.93-2.63,16.42-0.19c2.11,0.93,3.87,4.64,5.8,5.3c3.27,1.12,3.98,0.73,7.09,1.22
		c4.05,0.64,4.24-3.08,9.18,0.29c4.15,2.83,2.42,4.38,4.15,9.58c2.75,8.24,4.71,20.07,13.59,23c7.64-9.16-3.95-29.9-5.91-39.64
		c-2.95-14.66,7.27-16.91,18.58-23.05c7.11-3.85,33.24-36.07,13.15-37.33c-0.41-19.47,11.75-2.77,18.87-8.52
		c9.86-7.95-4.42-16.72,13.27-20.01c6.05-1.12,9.45,3.44,14.08-4.22c2.52-4.17-1.2-11.18,1.51-15.28
		c3.06-4.63,21.45-11.41,25.98-8.84c2.83-6.64,13.82-5.23,12.67-13.34c-1.22-8.61,1.8-11.1,7.07-14.9
		c-4.13-3.46-10.26-1.89-12.99-8.14c2.43,0.52,5.59-0.45,8.01,0.05c-5.62-15.6-35.48,18.15-44.03,17.11
		c-12.73-1.55-2.67-13.05,3.32-17.94c8-6.53,21.58-12.92,31.04-15.36c4.97-1.28,3.95-1.5,10.84,0.08c7.97,1.83,12.59,0.07,19.93,0.8
		c12.43,1.24,11.16,9.13,21.79-2.83c1.43-1.6-1.7-3.69,2.42-6.18c3.32-2.01,3.54,0.87,6.25-0.04c5.65-1.91,11.06,1.38,11.61-9.5
		C748.21,387.39,721.44,403.76,714.22,406.52z"/>
	<path class="st0" d="M582.14,763.23c-1.02-3.94-8.32-7.96-11.81-7.99c-6.04-0.04-7.61,5.78-12.76,6.61
		c-10.5,1.69-15.11-11.99-18.18-18.58c-0.99-2.13-3.69,0.34-4.58-2.72c-0.85-2.93,1.35-4.59,2.43-6.83c1.1-2.29,3.01-2.52,3.7-5.15
		c0.96-3.65-1.22-6.67-1.53-10.08c-0.19-2.1,3.24-1.72,2.21-4.04c-1.65-3.72-4.2-3.69-7.21-4.9c-5.04-2.01-12.89-2.46-18.28-2.45
		l-2.04-0.12c-0.6,2.66-3.71,4.86-3.75,8.41c3.44,0.61,8.45,4.91,7.04,8.39c5.83,0.95,8.01-6.74,13.52-1.37
		c0.23-1.66,1.25-2.43,1.65-3.55c6.09,5.17-1.39,9.71-4.68,11.79c-12.18,7.73,1.13,5.02,3.49,12.94c1.39,4.66-4.55,4.48,0.13,10.12
		c2.46,2.96,8.2,4.41,11.16,7.1c6.15,5.59,11.2,9.97,19.39,5.97c3.58-1.75,7.86-8.85,13.16-3.03c2.51,2.76-2.41,5.18,0.87,7.1
		C580.76,773.59,583.05,766.73,582.14,763.23z"/>
	<path class="st0" d="M581.52,664.33c-3.73-3.18-3.47-3.77-8.21-5.57c-2.27-0.86-4.58-1.15-6.77-2.58l-8.76-1.96
		c-7.11-1.29-16.41,1.64-19.5,8.94c6.16,1,10.6-7.47,16.97-6.19c2.27,0.46,3.42,2.57,4.96,3.19c0.04,0.02,0.14,1.91,0.93,2.21
		c1.86,0.72,3.55-1.67,5.47-1.16c3.41,0.92,11.99,4.23,14.98,6.21c4.71,3.11,2.95,10.87,9.58,11.42c0.04,0.4,0.07,0.79,0.09,1.19
		c6.01,1.11,12.27-3.11,17.68-3.11C603.07,668.2,589.31,670.97,581.52,664.33z"/>
	<path class="st0" d="M634.56,685.99c0-1.76-0.23-4.51,0.27-6.21l-8.95,1.66c-2.11,4.33-9.51-1.05-10.47,3.74
		c-1.14,5.69,9.55,3.74,9.17,9.9c1.54-0.29,3.66,0.8,5.22,0.51c-1.71,9.79,15.1-1.45,19.88-1.25
		C647.91,689.7,638.86,687.68,634.56,685.99z"/>
	<path class="st0" d="M851.11,870.56c-7.22-1.64-10.85,0.17-18.58-4.33c-6.55-3.82-9.51-5.7-16.45-6.44
		c-1.57-0.17-8.55-0.09-10.22-0.03c-6.01,0.19-5.06-3.92-12.83,1.9c-4.49-4.37-2.53-11.11-7.56-16.37
		c-9.63-10.08-11.57-3.01-18.3,0.83c-8.33,4.75-17.51,1.63-26.88,4.65c4.75-10.03,17.26-11.74,22.31-21.19
		c5.05-9.46,0.06-8.12-2.78-14.6c-0.96-2.18-3.91-8.34-5.64-10.81c-6.59-9.43-12.77-4.81-21.17-8.12
		c-6.11-2.41-21.68-6.71-26.08-11.55c-3.6-3.96-1.06-9.88-5.28-14.33c-3.54-3.73-7.89-1.86-11.55-3.89
		c-11.91-6.62-9.28-15.5-26.05-10.91c-6.52,1.79-10.13,3.6-16.12,0.61c-4.72-2.36-3.92-7.68-10.61-6.94l-11.44,3.7
		c0.31,7.7-5.84,23.41-8.64,8.21c-1.69-9.16,7.32-14.29,6.22-23.45c-5.46,0.26-7.06,6.22-12.57,8.65c-5.66,2.5-8.24-0.56-12.45,4.47
		c-1.27,1.52,0.35,6.01-0.62,7.9c-1.42,2.74-4.49,4.21-6.35,6.61c-3.1,3.99-8.49,9.66-9.92,13.65c-2.62,7.3,2.59,15.08,0.31,22.31
		c-1.46,4.62-5.3,7.14-7.93,10.86c-1.74,2.46-1.28,5.85-3.34,8.05c-3.15,3.36-8.68,3.29-11.25,7.39
		c-3.21,5.12-3.92,12.96,3.53,12.43c0.38,4.02-0.85,7.63-3.38,10.39c0.87,0.43,2.04,0.92,2.87,1.28c-2.08,7.2-10.16,7.22-12.9,13.6
		c10.78,7.38,8.9,12.29,15.52,22.76c4.89,7.73,9.19,9.82,12.69,19.28c2.27,6.13,5.03,12.62,6,19.14c0.99,6.74-2.48,6.16,2.44,12.96
		c2.98,4.12,9.32,7.89,12.97,11.91c4.96,5.46,7.89,8.58,14.71,11.52c4.63,2,4.9-2.53,9.03,2.65c4.99,6.26,0.81,35.46-0.15,43.54
		c-0.94,7.94-2.37,15.87-5.46,23.2c-4.17,9.89-12.56,16.88-12.48,28.22c0.07,9.71,3.32,9.24-1.2,20.14
		c-4.44,10.7-1.21,11.76-2.32,22.46c-0.89,8.63-23.8,32.03-8.94,36.56c-0.01,2.14-13.1,28.14,2.23,14.42
		c0.37,6.27-6.06,16.2,0.08,19.5c-6.32,9.25-5.17,21.12-10.97,30.13c-1.99,3.1-5.4,2.19-7.32,7c-2.06,5.16,1.54,9.94-0.82,15.14
		c-2.62,5.77,3.96,5.43,5.92,9.32c2.23,4.42,1.45,4.94,2.25,10.26c1.32,8.79,1.37,18.38,9.88,23.13
		c-0.3,13.62,21.04,19.88,25.66,6.75c2.63-7.47-6.45-12.69-9.03-18.39c-4.84-10.69-0.82-16.33,4.7-24.12
		c1.16-1.63,0.9-5.24,2.67-6.72c3.67-3.05,9.04-2.42,13.05-5.51c9.21-7.08,5.55-9.65,0.69-16.54c-7.48-10.6-7.93-11.76,1.87-20.6
		c4.46-4.02,12.63-11.19,12.9-17.79c0.58-14.66-11.73-20.39,8.6-15.51c6.42,1.54,12.84,3.81,15.09-5.44
		c2.4-9.86-10.27-10.87-6.38-19.44c7.43,4.05,10.63,7.28,19.7,4.8c0.9-0.24,17.13-6.21,17.44-6.56c7.01-7.96-8.34-15.03-5.56-25.97
		c7.62-1.82,7.76,5.72,11.76,6.15c5.56,0.61,14.2-4.75,19.31-7.81c11.62-6.95,6.54-9.47,11.53-21.06c2.64-6.12,8.9-13.69,13.8-5.72
		c10.84-3.83,10.57-22.53,12.28-32.15c1.3-7.31-0.01-8.08,5.58-13.28c2.76-2.56,12.33-9.29,15.8-11.04
		c4.68-2.37,9.84-0.58,14.11-2.06c3.78-1.32,10.32-4.49,13.98-6.4c22.27-11.64,19.81-53.03,27.57-76.84
		C851.3,931.83,886.45,878.61,851.11,870.56z"/>
	<g>
		<path class="st0" d="M1250.29,1137.41c0.3-0.12,0.58-0.25,0.85-0.4C1250.89,1137.09,1250.6,1137.24,1250.29,1137.41z"/>
		<path class="st0" d="M1512.39,704.68c-4.31-3.85-7.4,2.28-12.09-2.9c-2.84-3.14-2.94-14.02-4.98-17.48
			c-0.79,1.02-0.81,2.04-0.04,3.07c-6.81-7.23-11.86,9.01-17.78,11.99c-13.76,6.93-21.08-4.62-21.87-17.57
			c-0.45-7.32,3.3-4.53-1.93-11.61c-2.91-3.95-8.06-3.95-10.88-8.73c-4.66-7.91,0.62-18.45-5.57-25.47
			c-4.31,0.08-10.68-13.8-12.8-17.35c-2.15-3.61-3.87-2.34-4.52-7.66c-0.67-5.52,4.45-7.84,4.62-12.32
			c0.53-13.86-14.02-9.6-22.78-0.76c1.21-2.06,2.15-4.43,2.52-7.37c-9.97-0.75-22.51,1.19-31.89,2.4c-2.69,0.35-2.14-4.63-5.25-2.56
			c-4.16,2.76-5.57,10.91-6.75,15.57c-3.25,12.82-5.3,22.08-16.42,29.1c-3.89-9.15-25.6-4.82-31.97-0.88
			c-2.38-5.06-9.35-11.61-14.25-12.65c-3.17-0.67-8.72,2.33-12.07,2.29c-5.83-0.07-9.96-3.77-15.19-4.61
			c-11.52-1.86-6.27,2.63-12.92,12.28c-5.7,8.27-7.59,5.53-15.82-0.2c-3.63-2.52-5.07-5.04-9.24-5.97
			c-2.99-0.66-5.76,4.01-9.46,1.27c-3.58-2.65-0.54-8.03-2.35-10.2c-2.88-3.45-6.04-1.87-9.61-3.28c-3.19-1.26-7.64-0.83-9.37-5.07
			c-2.05-5.03,1.7-5.45,1.79-9.1c0.1-4.24-1.1-9.45,1.25-13.51l-5.52-6.87c-8.69-0.43-17.03,0.43-25.51,0.76
			c-9.32,0.36-20.7-2.67-29.84-0.71c-5.34,1.15-6.36,4.77-10.6,6.85c-4.82,2.36-11.32,1.38-16.34,2.47
			c-4.19,0.91-11.02,5.13-15.16,3.33c-4.21-1.83-4.51-7.11-8.4-8.91c-1.97,11.07-6.26,16.54-15,21.69
			c-4.07,2.4-8.85,3.32-11.49,8.23c-3.07,5.68,0.61,8.9-0.71,14.58c-3.1,13.31-20.2,11.33-25.37,23.48
			c-1.53,3.58,1.13,8.07,0.11,12.03c-2.11,8.18-10.17,15.46-14.35,22.44c-3.28,5.48-9.51,14.81-8.34,21.87
			c0.83,5.04,5.12,8.29,6.06,13.46c2.22,12.24-10.55,19.14-6.31,30.15c1.5,3.89,6.09,4.45,7.3,7.66c2.79,7.42-1.25,7.79,3.32,13.82
			c1.15,1.52,4.88-0.81,6.62,1.43c1.84,2.35,1.35,6.05,2.25,8.77c1.87,5.68,0.08,15.01,9.4,9.82c2.64,5.06,0.24,12.42,4,17.3
			c2.15,2.79,8.15,4.5,11.03,6.57c3.29,2.36,2.25,5.84,7.87,6.59c3.32,0.44,6.26-3.66,9.61-3.88c4.98-0.32,9.38,4.07,14.34,3.97
			c6.38-0.13,11.08-3.56,17.29-4.51c4.01-0.61,8.03,1.34,12.1-0.37c4.35-1.82,7.02-7.02,11.23-9.26c7.79-4.14,17.79-2.75,23.03,5.74
			c3.19,5.17,0.75,12.9,6.22,15.65c5.35,2.69,10.68-5.31,16.69-1.36c3.07,2.01,6.77,12.41,7.82,16.03c2.87,9.9,2.06,9.93-3.81,19.87
			c-6.07,10.28-9.78,15.34-0.39,23.01c7.64,6.24,12.27,4.49,14.96,16.56c2.23,9.96,6.41,20.71,7.94,31.27
			c1.87,12.93,0.24,16.24-7.03,24.46c-9.15,10.35-5.71,8.25-5.12,21.98c0.56,13.03-8.75,17.19-0.58,31.8
			c4.36,7.79,12.84,14.02,14.32,23.6c0.71,4.57-1,7.94-0.67,12.22c0.93,12.07,7.61,20.54,10.81,31.58
			c3.1,10.71,5.32,24.44,6.28,35.75c0.36,4.17-1.57,9.69,0.56,13.46c3.07,5.43,14.13,9.07,21.46,8.37c-0.11-0.11-0.21-0.24-0.3-0.42
			c7.58-0.9,14.93-8.25,22.75-10.37c10.26-2.78,21.07-2.96,28.25-14.22c3.79-5.94,4.69-11.59,9.38-17.44
			c5.11-6.38,6.87-9.52,10.15-16.85c1.23-2.75,4.55-5.64,5.06-8.54c0.25-1.45-0.56-7.43-0.46-7.64c2.11-4.52,4.13-4.28,10.25-8.23
			c6.75-4.36,7.08-3.33,7.59-13.87c0.37-7.72-3.38-15.43-1.82-22.91c4.5-21.63,40-15.72,42.37-40.11
			c1.01-10.39-5.36-21.96-6.14-32.97c-0.49-6.88-3.48-14.68-3.82-20.89c-0.22-4.05-0.4-12.06,0.6-15.51
			c2.88-10,11.5-14.66,19.55-22.27c12.28-11.61,24.13-24.7,34.76-37.82c6.22-7.68,14.81-13.76,20.24-22.31
			c4.41-6.95,3.84-13.15,5.67-20.07c2.66-10.06,12.83-20.67-1.99-19.46c-13.74,1.12-33.12,15.87-46.71,7.83
			c3.68-11.1,27.47-20.5,37.12-24.32c9.67-3.83,19.06-11.42,29.24-11.87c-2.35-4.67,0.52-8.75,5.29-10.71
			c6.45-2.65,7.61,5.24,10.92,3.94c4.81-1.89,4.94-9.39,8.68-12.63c4.4-3.8,5.57,1.57,10.73-5.9
			C1508.73,726.06,1519.88,711.38,1512.39,704.68z M1392.68,610.29c1.17-2.42,2.85-4.43,4.57-6.45c-1.17,2.17-1.88,4.42-1.92,6.62
			C1395.31,610.46,1392.64,610.3,1392.68,610.29z"/>
		<path class="st0" d="M1250.29,1137.41c-0.99,0.4-2.16,0.66-3.44,0.78C1247.7,1139.05,1249.14,1138.05,1250.29,1137.41z"/>
	</g>
	<path class="st0" d="M1428.86,971.61c-4.66-0.38-1.83,3.89-4.6,5.82c-3.33,2.33-7.24,4.46-10.48,6.88
		c-6.44,4.81-4.5,5.46-8.99,10.77c-4.26,5.04-12.38,6.78-13.28,15.3c-0.7,6.62,6.74,13.93,3.77,21.04
		c-3.17,7.59-15.28,7.45-11.99,20.58c1.49,5.94,14.14,17.08,19.4,17.53c7.38,0.63,15.98-14,18.51-21.46
		c4.33-12.77,0.4-27.71,6.21-40.51l7.26-21.41C1435.65,982.51,1434.03,972.03,1428.86,971.61z"/>
	<path class="st0" d="M2414.61,358.02c-1.5-2.02-5.37-0.68-7.34-1.96c-2.32-1.5-1.27-4.12-3.33-5.23c-5.46-2.94-6.33,1.41-9.59,2.61
		c-8.79,3.25-8.4-1.91-5.65-9.72c4.18-11.9-8.22-12.64-15.5-15.11c-9.5-3.23-16.62-11.43-25.97-15.13
		c-8.72-3.46-12.36-2.64-21.16-2.33c-9.08,0.31-18.6-6.84-27.51-5.81c-7.67,0.89-5.43,1.8-5.64,7.74c-0.09,2.48,3.21,2.67,1.34,5.88
		c-1.42,2.43-8.04,1.08-9.7,0.2c-6.44-3.43-2.13-7.08-5.02-11.9c-4.22-7.04-17.26-2.01-23.92-3.47c-11-2.4-28.42,4.22-38.26-1.44
		c-7.15-4.11-1-12.77-12.12-16.15c-9.87-3-23.03,3.99-32.24-1.21c-2.83-1.6-4.41-4.62-7.52-6.29c-5.82-3.14-13.19-1.93-18.89-4.78
		c1.51-0.95,2.97-3.33,4.57-4.2c-2.51-4.56-11.24-8.92-16.27-6.96c-5.3,2.07-9.36,12.03-17.23,8.83c1.92-4.33,8-7.07,6.41-12.73
		c-11.68,3.56-19.67-5.5-30.75-6.82c-1.63,2.87-5,4.84-7.63,7.54c5.15,9.99-0.93,10.87-8.64,12.56c-3.72,0.82-4.82,2.5-8.78,1.03
		c-3.6-1.34-4.34-4.27-8.29-4.57c-5.75-0.43-11.35,7.81-17.5,5.31c-4.32-1.76-3.02-6.37-6.28-8.39c-6.79-4.2-7.64,10.64-16.1,10.57
		c-3.85-9.83-21.89-12.72-14.21-23.3c2.89-3.98,11.53-4.85,10.63-10.18c-0.96-5.63-8.75-3.75-12.02-3.32
		c-4.83,0.63-7.29,2.06-11.59-0.5c-3.98-2.38-4.8-6.6-10.32-7.12c-12.07-1.14-4.3,9.21-7.46,16.36c-9.19-5.25-22.59-0.16-31.64-7.91
		c-4.08-3.5-1.28-3.94-7.42-5.58c-6.89-1.84-15.52-4.52-19.78,3.03c-2.96,1.53-7.16,1.74-9.67-0.65c0.87-2.77,2.88-4.07,4.53-6.18
		c-5.71-0.75-10.93-3.5-16.6-3.77c-6.49-0.31-7.52,2.99-12.03,6.17c-5.57,3.92-12.5,4.14-18.82,5.12
		c-5.52,0.85-17.29,6.69-22.05,3.44c4.65-9.93,15.42-6.93,23.1-11.45c4.95-2.92,4.26-8.74,11.25-11.85
		c8.24-3.67,28.13,1.44,33.88-6.01c5.06-6.55-6.47-4.78-8.62-9.53c0.83-0.39,2.04-2.23,3.05-2.58c-2.22-9.71-4.72-10.53-14.16-12.79
		c-5.72-1.37-10.07-1.65-15.94-1.16c-2.6,0.22-5.5,1.38-7.48-0.69c1.18-2.16,3.24-3.26,4.73-5.1c-5.22-7.97-21.28,0.94-27.71-3.83
		c3.32-3.06,11.5-8.52,10.95-13.57c-6.12-2.98-25.47,2.41-28.94,9.29c-3.52,6.99,3.21,7,6.36,10.78c-3.61,4.72-9.93-0.55-14.67,0.27
		c-0.22,1.96-0.53,3.85-0.95,5.74c-4.99-1.68-7.31-5.37-13.49-3.51c-3.18,0.96-6.66,6.72-9.46,2.3c-3.88,0.67-8.49-0.59-12.23,0.29
		c-2.42,0.57-4.31,2.95-6.7,3.76c-5.03,1.71-11.04-0.2-16.29,0.7c-3.7,0.63-7.35,1.4-10.64,3.43c-3.31,2.05-17.74,5.29-19.46,9.81
		c-0.76,2.01,1.85,8.81,1.42,11.83c-8.28,0.18-14.74,2.85-23.04,0.29c-6.31-1.95-22.33-6.99-26.54,1.5
		c4.63,2.6,1.64,8.51,4.44,12.44c2.1,2.94,14.74,6.48,11.62,11.25c-6.93,10.59-27.21-17.72-27.71-2.67
		c-4.33,0.31-9.05-3.26-13.03-0.99c0.64,4.32,20.92,12.66,10.72,15.81c-4.62,1.42-4.4-2.49-7.16-4.39
		c-3.13-2.15-7.86-1.14-10.35-4.17c-2.92-3.54,2.69-18.16-3.56-14.66c-0.15,0.09-0.26,3.13-0.81,3.69
		c-0.71,0.72-1.96,0.62-2.48,1.07c-1.91,1.66-5.37,0.37-5.36,4.59c0.01,3.17,0.15,6.34,0.44,9.49c0.51,1.53,1.24,2.93,2.18,4.2
		c-0.15,3.15-0.94,2.3-1.83,4.92c-1.98,5.83-3.72,10.11,2.97,13.31c5.2,2.49,8.62,0.55,13.34,4.31c1.73,1.38,5.29,4.28,6.21,6.59
		c0.8,2.01-0.91,4.05-0.01,5.71c1.86,3.42,11.29,1.38,9.64,6.76c-1.8,5.88-13.43,1.36-15.16-2.56c-1.46-3.32,1.02-5.25-1.78-8.83
		c-2.82-3.61-9.14-4.72-12.95-1.68c3.31,3.36-0.02,3.14-0.52,5.8c-0.35,1.86,0.18,6.05-0.44,7.83c-1,2.88-5.1,4.63-7.19,6.96
		c-3.56,3.96-4.87,7.14-10.23,6.93c-4.36-0.17-8.79-2.17-13.4-2.36c-2.73-0.11-12.06,0.27-8.85-5.14c1.26-2.12,6.69-0.75,8.28-0.7
		c4.14,0.14,5.07-0.16,7.9-1.9c0.76-0.47,2.21-2.99,3.24-3.71c1.26-0.88,3.82-1.05,5.11-1.74c2.48-1.33,7.56-4.83,7.08-8.23
		c-0.33-2.37-3.73-4.49-4.7-6.77c-1.56-3.65-1.93-9.84-1.82-13.82c0.22-7.62,2.65-9.95-0.63-17.15c-4.37-9.59,0.37-6.2,4.21-13.75
		c5.85-11.5-14.88-16.68-21.03-11.8c-3.67,2.91-1.77,8.19-3.99,11.83c-3.42,5.61-9.76,3.63-13.95,7.05
		c-5.35,4.36-0.91,3.54,1.12,6.21c1.61,2.11,2.84,4.62,1.87,8.08c-0.69,2.44-3.61,4.12-3.33,6.36c0.4,3.21,2.37,1.34,3.98,2.5
		c2.52,1.81,2.66,1.42,4.28,4.32c1,1.8,3.08,4.16,3.85,5.54c3.52,6.39-0.04,12.27-6.43,8.7c0.14,0.08-2.27-2.61-2.53-2.83
		c-1.07-0.9-3.17-1.66-4.45-2.65c-2.98-2.32-4.53-5.87-7.24-8.37c-6.64-6.14-20.13-8.32-28.69-9.29
		c-2.57-0.29-11.27-1.29-10.36,4.36c0.57,3.53,4.18,1.75,5.57,3.38c5.29,6.22-2.24,5.16-5.31,7.46c-2.29,1.72-3.5,8.91-7.7,2.87
		c-1.99-2.86,0.68-7.98-4.47-7.06c-3.5,0.63-3.88,4.8-8.39,4.15c-4.35-0.63-3.7-2.31-7.55,0.11c-3.96,2.48-2.87,3.44-8.11,3.34
		c-3.15-0.06-6.96,0.19-9.71-1.24c0.17-0.83-0.09-0.1,0.48-0.38c4.65-2.33,0.28-9.17-3.27-6.24c2.18,3.21-1.65,7.72-3.68,3.16
		c-3.6,0.06-8.41,2.18-11.52,3.14c-1.24,0.38-2.57,0.25-4.18,0.89c-2.44,0.97-3.79,3.68-6.74,4.42c-4.72,1.19-5.89-1.59-7.88,3.38
		c-1.38,3.44,0.88,8.08-4.08,9.42c-3.41,0.92-17.3-7.03-15.87-10.83c1.43-3.81,17.89-0.45,11.36-9.77c-1.98-2.83-4.67-0.9-7.05-1.74
		c-2.22-0.79-4.02-2.76-5.95-4.13c-1.45-1.03-8.79-6.16-8.28,0.21c0.22,2.81,3.11,1.31,4.05,2.88c3.13,5.27-3.25,6.18-2.74,11.79
		c0.31,3.45,4.51,5.6,5.07,9.53c0.46,3.2-0.97,8.02-4.44,8.62c-3.09,0.53-3.71-4.33-6.33-5.97c-3.67-2.29-6.67,2.26-9.79,3.41
		c-4.98,1.84-11.04,1.54-11.36,8.66c-0.28,6.18,4.77,5.65,6.41,10.31c-3.39,1.12-7.25,0.33-10.65-0.34
		c-5.48-1.07-8.01-4.78-12.82-6.43c-4.44-1.51-7.74-0.09-5.63,5.23c1.5,3.79,6.97,4.59,9.88,6.36c-1.28,5.2-11.53,1.01-14.16-0.56
		c-0.65-0.39-2.46-2.24-3.66-3.01c-3.09-1.98-5.58-1.28-6.93-5.66c-1.55-5.04,3.15-8.51,1.46-13.07
		c-2.36-6.33-14.44-8.72-15.17-16.07c3.12,0.27,6.63,2.29,9.7,3.51c3.73,1.49,7.35,1.24,10.9,2.52c4.17,1.51,5.55,5.02,10.42,5.41
		c4.34,0.35,9.55-0.82,13.87-1.29c6.09-0.67,23.4-4.05,13.3-14.36c-2.96-3.02-8.99-3.76-12.7-6.06c-4.17-2.58-7.21-6.3-11.35-8.78
		c-6.7-4.01-14.83-2.95-21.03-7.44c-5.68-4.11-10.41-4.78-17.63-6.46c-2.73-0.64-17.41-0.75-12.72-6.6
		c2.73-3.42,11.1,2.53,7.28-5.31c-4.03-8.27-10.25-0.94-14.96,0.75c-0.47-2.54,2.29-6.25-0.59-7.16c-2.92-0.93-5.02,4.91-8.37,4.41
		c0.56-1.81,1.94-3.42,2.13-5.26c-6.01,0.65-7.16,11.38-14.19,10.47c1.53-6.64,8.93-10.96,9.07-17.84
		c-4.56,0.97-7.46,3.79-10.34,7.28c-1.1,1.34-1.29,2.9-3,3.96c-1.64,1.02-2.31-0.1-3.38,0.33c-4.48,1.77-10.92,9.09-15.73,8.1
		c-3.3-0.68-4.63-4.3-8.73-4.64c-4.88-0.4-7.87,3.02-11.06,7.01c-7.4,9.25-19.63,11.6-25.35,21.38
		c-4.29,7.34-9.21,13.89-15.67,19.25c-6.6,5.46-11.19,7.19-10.09,16.65c0.89,7.59,1.68,9.6-5.63,10.97
		c-6.07,1.14-16.44,2.14-20.88,7.66c-2.39,2.97-2.08,4.54-6.09,6.26c-1.74,0.74-4.77,0.75-6.17,2.2c-3.26,3.39-0.37,3.76-0.93,7.87
		c-3.27,0.14-7.38-2.38-9.11,2.34c-1.53,4.18,2.96,7.06,5.39,9.64c2.77,2.93,4.06,3.5,3.77,7.9c-0.34,4.95-4.67,5.55-5.82,9.14
		c-2.38,7.45,7.07,10.73,12.35,8.33c4.87-2.21,10.11-8.06,13.77-11.98c-0.44,8.63,5.34,0.76,6.59-1.83
		c1.82-3.77,4.03-9.07,8.67-9.32c0.63,4.8,0.19,9.42-1.32,13.87c-1.05,0.87-1.61,2-1.69,3.4c0.78,2.28,3.58,1.38,4.28,3.34
		c0.84,2.35-1.29,3.72-1.3,6.1c-0.02,4,1.51,6.89,3.46,10.15c1.16,1.95,3.53,3.86,3.96,6.16c0.59,3.12-3.17,5.88-1.44,9.57
		c0.95,2.03,5.8,5.12,7.9,3.72c1.29-0.86,1.17-4.32,2.61-5.69c1.84-1.74,4.91-0.39,6.95-2.18c2.76-2.42,1.6-4.8,3.13-7.73
		c1.03-1.98,3.52-2.98,4.77-5.09c1.42-2.42,1.02-5.01,1.98-7.49c2.6-6.72,5.63-7,11.29-10.89c4.09-2.81,2.62-3.41,3.62-6.15
		c0.13-0.36,1.81-3.36,1.75-3.54c-1.6-4.95-8.21-3.18-11.79-7.5c-4.14-4.99-0.06-6.29,0.83-12.59c0.33-2.32-0.14-4.94,0.76-7.15
		c1.96-4.81,3.77-3.17,7.11-5.54c2.1-1.49,3.49-3.72,5.58-5.45c3.79-3.14,6.5-2.98,10.89-4.85c9.41-3.99,1.99-5.9,2.71-13.07
		c0.46-4.6,9.04-8.7,13.42-10.72c5.23-2.4,4.84,0.95,9.34,2.29c1.35,0.4,2.58-1.43,4.96-0.4c1.83,0.79,3.65,3.86,4.61,5.6
		c-1.82,2.76-4.97,1.55-7.02,3.7c-2.36,2.47-1.39,4.64-2.83,7.51c-4.17,8.34-14.89,7.58-19.95,15.11c-3.63,5.4-0.22,7.71-0.82,13.06
		c-0.23,2.06-4.91,6.46-3.71,8.58c1.18,2.09,2.85,0.15,4.11,1.26c2.71,2.38,4.76,6.31,7.65,8.72c6.37,5.29,8.55-0.63,15.12-1.53
		c5.3-0.73,9.93,4.02,15.3,2.09c4.01-1.45,5.82-6.56,9.82-7.56c2,4.4-0.61,4.35-1.31,7.54c-0.69,3.12,1.05,3.75-1.1,6.69
		c-3.89,5.31-15.18,3.06-20.86,3.96c-4.42,0.7-12.21-2.28-14.59,3.78c-2.44,6.2,3.33,3.09,6.39,5.23c5.73,4-1.21,13.86-6.29,14.26
		c0.52-4.54,0.16-4.12-2.64-5.59c-1.75-0.92-5.99-1.54-7.89-0.73c-4.42,1.87-4.36,5.55-4.61,9.5c-0.07,1.09-0.32,3.79-0.25,4.93
		c0.23,3.73,3.76,8.88,0.44,10.71c-1.92,1.05-7.6-3.24-8.24,3.21c2.04,0.65,2.92,2.89,2.21,5.13c-6.44-0.85-8.32,2.63-12.4-2.92
		c-1.17-1.59,0.1-3.43-2.33-4.49c-2.78-1.21-7.53,3.29-9.77,4.39c-4.31,2.11-7.99,1.73-12.34,2.51c-2.28,0.4-3.95,2.3-6.27,2.36
		c-4.56,0.12-5.13-4.67-10.12-4.32c-3.53,0.25-6.44,4.73-10.25,2.71c2.02-4.28-1.77-2.46-4.04-3.54c-2-0.95-3.8-3.71-6.11-4.2
		c-7.07-1.52-5.82,3.38-2.52,6.78c-4.55,4.45-4.53,1.49-9.74,1.25c-0.22,8.12-12.06-0.18-15.35,5.4c-1.57,2.66,2.48,4.23-0.84,6.77
		c-2.47,1.88-6.31-1.03-9.03,0.22c-0.76,3.19,2.41,6.48,5.45,9.16c-4.13,1.75-22.95,1.13-26.93,2c-0.27,0.46-0.47,1.02-0.73,1.5
		c0.47,0.96,1.57,1,2.54,1.24c0.61,0.15,1.67,1.38,2.96,1.33c1.16,6.85-7.34,6.53-10.21,8.67c-4.14,3.08-2.65,4.87-7.93,2.29
		c-2.89-1.42-3.42-5.03-7.9-2.21c0.4,2.98,3.86,6.11,1.13,8.89c-3.4,3.46-7.92-2.36-11.31-2.34c-16.83,0.11,5.4,10.7,6.11,12.04
		c1.42,2.68-1.42,4.5,1.76,7.93c3.85,4.14,4.19,1.63,5.28,7.66c0.99,5.5,1.23,21.12-4.89,23.53c-2.23,0.88-8.81-0.6-11.53-0.61
		c-6.32-0.02-12.18-0.55-18.01-2.95c-5.14-2.11-7.62-1.84-12.65-1.02c-6.61,1.08-7.44,0.96-7.05,7.73c0.2,3.47,1.32,7.53,1.41,11.06
		c0.19,7.1-7.29,11.17-7.08,17.05c0.14,3.73,2.9,3.74,3.73,7.03c0.92,3.64-3.54,8.86-0.38,12.53c2.76,3.21,5.26,0.23,8.35,0.05
		c4.43-0.25,3.68,0.69,6.02,3.66c6.8,8.65,7.17,3.9,14.74,2.61c4.82-0.82,9.94,1,14.79,0.32c6.1-0.86,4.36-6.62,9.13-8.58
		c3.03-1.24,7.58-4.64,7.77-8.31c0.08-1.49-1.45-3.23-1.61-4.63c-0.73-6.44,4.3-10.55,9.19-12.84c2.66-1.25,17.68-6.68,16.35-10.06
		c-1.26-3.22-3.77-1.62-3.18-5.85c0.33-2.34,1.96-6.38,4.24-7.18c2.26-0.79,4.6,1.42,6.77,1.7c2.48,0.33,4.86-0.83,7.36-0.68
		c2.71,0.16,4.72,2,7.35,2.26c7.52,0.74,9.25-7.64,15.58-8.57c2.06-0.3,8.71,3.2,9.6,5.14c0.96,2.07-0.81,3.63-0.41,5.88
		c0.3,1.7,1.99,3.13,2.92,4.39c2.42,3.26,3.85,8.49,6.96,10.98c3.22,2.57,7.52,0.33,10.69,2.7c2.68,2.01,3.57,6.39,6.32,8.6
		c4.08,3.28,8.87,4.82,9.94,10.92c0.77,4.38-2.27,8.6-2.07,13.25c-0.15,0.3-0.36,0.55-0.62,0.75c7.96,0.32,3.63-8.35,7.97-10.87
		c-0.51-0.24-0.94,0.11-0.96-0.75c0.83,0.73,4,1.26,4.72-0.21c0.94-1.91-2.08-3.93-2.95-5.19c-1.54-2.24-2.91-5.71,0.21-7.07
		c3.5-1.52,11.04,6.92,12.04,4.52c-1.91-3.92-3.74-7.18-7.58-9.54c-1.56-0.96-4.96-1.04-6.07-2.52c-0.88-1.16,0.03-2.51-0.55-3.46
		c-1.55-2.56-4.21-1.39-6.76-2.06c-2.79-0.73-6.3-2.49-7.87-5.18c-1.35-2.31-0.9-5.57-1.97-7.96c-1.37-3.06-3.85-3.85-6.25-5.52
		c-2.84-1.98-4.84-8.35-3.7-12.14c1.02-3.38,6.01-1.15,6.77-5.61c0.39,1.65,0.11,2.62,1.5,3.74c0.94,0.76,3.41,0.54,4.7,1.45
		c-6.37,4.03,9.5,5.82,10.51,5.95c7.23,0.9,4.09,3.6,7.27,7.31c1.8,2.1,4.23,2.28,6.29,3.67c2.38,1.61,1.47,0.31,2,2.83
		c0.5,2.38-0.73,3.7,1.29,5.91c1.56,1.7,3.93,2.07,5.89,2.67c-0.73,4.28-3.1,8.5-2.07,12.94c0.86,3.71,3.99,7.09,6.18,10.07
		c3.03,4.14,1.62,7.54,7.47,9.22c-7.72,18.74,21.48,14.96,7.85,4.54c2.09-1.06,3.68-3.65,6.19-4.41c-1.03-5.74-7.17-9.83-1.99-14.03
		c2.66,2.78,4.06,1.38,6.86,2.57c0.56-3.89,2.93-6.09,6.67-7.19c9.75,13.46,18.17-5.42,27.26-4.83c9.89,0.65,8.4,8.23,2.03,12.8
		c-5.5,3.95-14.96,3.21-21.22,2.35c2.79,5.22-5.47,7.7-2.62,15.04c1.68,4.34,11.4,8.09,14.91,10.56c7.56,5.32,5.09,5.86,14.33,4.37
		c5.2-0.84,5.46-2.08,10.05-0.78c4.75,1.35,5.81,5.83,12.79,4.31c4.15-0.91,5.84-4.77,9.24-5.74c6.9-1.98,13.04,1.27,20.2-2.62
		c1.02-1.96-0.63-0.97-0.79-1.99l6.3,3.27c6.25,1.74,12.61,0.01,18.89,1.15c0.55,10.19,27.48-8.96,23.33,12.94
		c-1.03,5.42-4.44,6.64-4.05,11.8c0.44,5.79,4.24,6.97,7.87,9.34c2.76,1.8,7.69,3.91,9.71,6.72c3.57,4.94,1.67,13.1,7.25,17.05
		c4.87,3.45,7.83,0.46,11.12,6.22c2.14,3.74,0.96,6.13,4.44,9.27c1.75,1.58,5.2,1.91,7.31,3.58c5.4,4.28,7.6,15.45,14.79,15.85
		c5.87,0.33,10.4-4.53,17.18-3.3c-1.84,10.81,17.61,16.8,24.81,10.29c1.51,8.89,26.82,6.71,33.88,6.8c5.7,0.07,7.32,0.4,10.28,5
		c2.17,3.38,2.71,15.14,8.47,10.65c1.13,0.34,3.49,3.13,5.27,4c2.79,1.36,5.4,1.52,8.39,2.53c-1.21,6.91-7.64,1.73-11.91,2.57
		c-1.29,5.91,9.35,12.61,13.52,12.13c7.35-0.85,4.54-3.54,7.93-7.62c0.79-0.95-0.22-5.22,2.94-4.04c3.13,1.17-0.18,8.38,0,10.18
		c0.36,3.62,2.27,7.8,2.91,11.1c1.2,6.16,1.13,6.76-0.72,11.6c-1.83,4.8-3.76,2.48-1.62,9.3c2.94,9.39,5.57,17.31,10.79,26.29
		c6.09,10.49,6.3,20.88,10.57,31.73c1.5,3.81,5.4,10.67,10.32,8.79c2.9-1.1,1.89-3.92,3.74-5.47c3.59-3,7.69-3.55,10.05-8.14
		c2.79-5.42,0.22-9.1,0.46-13.83c0.24-4.58,2.69-5.49,3.56-10.48c0.96-5.49-2.42-9.03,0.08-14.38c8.72-3.44,9.85-5.73,15.47-13.19
		c5.85-7.75,16.12-9.94,23.53-16.47c3.36-2.96,3.91-5.08,8.14-6.81c3.71-1.52,6.71-0.88,10.25-3.06c1.7-1.05,3.55-3.58,5.43-4.8
		c3.76-2.44,7.72-1.29,10.68-5.8c-9.18-2.57-1.45-14.12,5.94-3.49c2.65,3.81,2,7.83,3.19,12.09c1.41,5.04,1.53,3.94,4.04,7.27
		c3.16,4.18,7.31,8.29,9.25,13.62c2.11,5.8,0.11,7.87-0.05,13.75c-0.47,17.66,10.54,1.59,15.76-2.08c5.1,3.24,4.45,8.39,5.48,13.85
		c1.35,7.15,6.64,15.57,6.33,22.74c-0.1,2.17-2.47,2.08-2.67,4.2c-0.23,2.57,0.35,4.58,0.43,7.11c0.13,4.34-0.21,7.91-0.48,12
		c-0.74,10.95,8.58,16.02,9.5,27.06c0.82,9.89,0.71,11.65,7.76,18.82c3.45,3.51,16.19,21.7,20.03,17.99
		c-0.97-5.08-3.6-8.31-5.89-12.7c-3.25-6.21-1.89-4.24-1.09-10.27c1.26-9.54-2.56-12.03-9.03-17.37c-5.13-4.23-6.12-6.37-8.3-12.12
		c-2.12-5.62-6.47-8.54-8.87-13.69c0.63-0.94,0.66-0.11,1.43-0.75c-6.01-5.02,3.08-6.26,5-8.94c4.3-6.01-5.06-12.41,4.07-18
		c3.18,5.47,8.88,1.29,11.18,6.14c1.72,3.61-1.09,9.1,1.44,13.37c3.62,6.1,6.66,2.1,10.64,4.29c6.54,3.59-0.08,11.25,4.33,14.52
		c4.8,3.55,5.21-4.26,7.16-6.12c3.8-3.61,4.89-1.36,8.92-2.02c7.31-1.19,11-6.09,13.64-13.03c3.6-9.48,2.39-17.88-0.84-26.97
		c-2.41-6.77-10.55-8.7-10.94-15.22c-7.41-6.84-4.57-16.04-0.71-23.61c0.93-1.82,3.21-6.86,4.8-7.86c4.29-2.68,5.52,0.52,9.33,1.91
		c2.43,0.89,8.41,3.87,11.11,3.1c3.1-0.89,3.08-4.69,5.9-5.85c4.25-1.75,7.46,1.51,12.38-2.14c2.46-1.83,0.7-4.24,4.34-5.25
		c0.29,1.21,1.37,1.81,1.39,3.74c2.65,0.8,5.84,0.98,8.47,0.02c1.83-1.5,3.74-2.89,5.72-4.17c3.04-0.94,6.13-1.56,9.28-1.86
		c3.56-2.06,3.71-5.88,6.19-7.5c4.75-3.1,5.08,0.07,8.51-5.23c-0.11-2.21,0.09-4.38,0.63-6.52c1.17-2.09,2.75-3.74,4.76-4.93
		c1.96-1.23,3.57-2.84,4.83-4.83c0.3-1.6,0.11-3.13-0.56-4.59c1.45-5.42,2.92-7.19,6.47-10.9c2.74-2.86,5.7-2.24,5.82-6.91
		c-2.93-1.48-6.29-0.61-9.47-0.51c-0.21-5.96,6.93-4.15,8.42-9.03c-3.74-4.51-13.16-3.45-15.17-8.95
		c4.21-3.12,13.61,12.68,16.29,0.94c-6.63-1.17-3.89-5.82-5.54-10.53c-3.31-9.42-10.49-5.29-15.08-11.65
		c2.04-2.36,5.34-2.86,7.94-4.66c0.46-0.32,1.88-3.63,3.33-4.55c3.66-2.32,18.64-3.49,14.73-10.91c-5.33,1.89-8-5.31-14.16-3.24
		c-2.4,0.81-3.16,5.63-6.32,4.82c-2.82-0.72-2.27-5-1.57-7.38c-4.38-1.27-11.82,0.81-11.05-6.26c0.81-7.36,10.08-6.35,14.45-8.62
		c4.11-2.13,10.94-15.08,16.47-10.33c5.77,4.96-3.16,5.64-3.28,10.14c-0.29,11.29,21.34-7.1,24.1,4.47
		c1.16,4.83-5.28,3.68-5.56,7.68c-0.36,5.16,8.59,5.76,11.67,5.59c0.69,3.61,2.29,9.17,2.55,12.45c0.34,4.21-2.19,10.62,1.59,14.06
		c11.44-4.37,19.79,0.15,16.29-16.61c-1.45-6.93-3.46-9.57-7-14.95c-2.64-4.02-5.63-7.29-1.47-11.3c3.79-3.66,8.66-0.8,11.88-6.75
		c1.43-2.63,0.28-5.17,2.5-8c1.42-1.81,3.82-1.49,5.43-3c4.23-3.94,3.57-6.95,9.46-6.46c4.79,0.4,8.18,5.41,13.63,2.4
		c4.83-2.67,7.24-10.47,11.86-14.02c3.76-2.88,10.25-4.06,13.01-8.03c2.08-3.01,0.76-3.89,1.83-6.4
		c5.53-12.97,19.42-18.62,20.88-33.03c0.5-4.87,0.35-5.02,2.51-9.37c3.07-6.19,3.05-7.43,2.11-14.9
		c-0.8-6.35-1.42-22.43-10.87-19.65c-4.73,1.39-5,7.86-12.01,5.48c-5.7-1.94-9.22-8.71-3.71-13.03c-1.94-1.71-4.73-1.9-7.43-1.94
		c4.33-6.7,14.66-6.58,19.73-13.19c-1.44-0.69-2.38-2.7-3.76-3.42c2.73-3.94,11.04-11.9,15.55-14.4c4.88-2.69,10.31-2.66,14.88-5.49
		c3.43-2.12,5.8-5.61,10.32-6.69c9.45-2.26,17.91,3.13,27.29-0.55c6.51-2.55,12.71-5.98,19.21-0.25c2.8,2.47,3.09,7.4,5.79,9.01
		c2.88,1.73,17.81,0.69,20.22-1.97c2.75-3.03-0.65-4.87,0.63-8.61c0.89-2.62,10.06-10.32,12.24-12.21c1.43-1.24,3.22-3.58,5.18-3.97
		c1.97-0.39,3.95,1.75,5.17,1.47c5.28-1.19,14.26-11.43,19.08-3.75c-3.2,3.84-11.21,9.23-6.78,15.46
		c5.18-0.92,7.95-8.78,13.15-10.94c2.76-1.15,6.77,1.19,9.37-1.94c2.99-3.6,0.2-1.6,0.95-4.89c0.93-4.08-2.28-5.74,4.33-7.61
		c1.84-0.52,9.04-0.35,10.74,0c2.88,0.6,8.33,1.47,4.24,5.33c-2.29,2.16-6.39-0.99-8.88,0.84c-2.23,1.64-1.42,4.99-2.54,7.16
		c-1.61,3.12-2.33,4.2-5.19,6.69c-6.28,5.48-13.78,7.12-19.7,12.97c-5.73,5.66-9.24,12.9-17,15.22c-8.22,2.46-7.31,1.68-11.3,9.12
		c-4.41,8.22-7.66,15.04-9.24,24.63c-1.18,7.15,0.54,10.7,2.15,17.42c1.65,6.86-0.38,13.3-0.47,20.92
		c12.63,0.91,15.54-13.03,20.1-21.28c4.29-7.76,8.49-2.74,13.8-4.43c8.44-2.69,7.16-8.3,8.16-15.87c0.57-4.32,1.65-7.62,4.43-12.39
		c4.96-8.49,3.79-4.88-0.94-11.8c-4.77-6.98-2.22-5.96,2.14-10.73c2.04-2.23,2.79-3.28,4.3-5.69c0.96-1.52,0.27-4.03,1.84-5.63
		c4.42-4.51,5.54,0.77,8.78-0.16c3.19-0.91,5.77-4.78,8.83-6.04c-0.23,3.4-2.04,6.54-2.96,9.9c5.54-1.46,13.02-10.69,18.78-10
		c4.18,0.5,7.62,6.62,13.1,6.9c-1.25-5.94,0.88-10.46,6.63-12.59c8.15-3.01,13.31,0.31,21.09-4.97c5.19-3.52,12.92-9.63,18.73-7.98
		c5.04,1.43,8.4,12.45,15.08,5.33c-6.66-7.21,5.27-12.96-2.73-18.94c-1.85-1.38-4.64-0.18-6.69-1.53c-1.28-0.85,0.27-3.76-0.49-4.29
		c-2.85-1.99-8.24-2.75-11.62-3.89c-0.35-4.82,5.22-8.01,9.47-7.89c1.96,7.15,19.84,7.51,22.56,0.62c1.86-4.72-4.75-6.3-3.39-11
		c1.51-5.24,12.37-6.93,15.54-3.13c-4.41,3.21-6.94,6-5.1,12.08c5.6-0.37,9.31-1.09,14.7,1.79c7.91,4.22,6.11,13.54,17.74,15.17
		c8.86,1.24,4.17-7.18,10.92-10.44C2404.75,367.61,2421.24,366.96,2414.61,358.02z"/>
	<path class="st0" d="M1816.89,925.72c0.01-1.41,0.3-6.27-0.27-7.39c-0.49-0.97-2.64-1.42-2.7-1.54c0.1,0.24-2.34-1.75-2.66-2.32
		c-0.65-1.16,1.87-3.66,1.05-5.08c-1.1-1.9-4.35-2.18-6.62-2.64c1.6-11.83-3.36-5.06-8.5-12.03c-2.93-3.97-3.11-7.8-7.21-11.55
		c-3.08-2.81-6.6-5.06-9.66-7.98c-5.32-5.08-7.86-14.32-13.72-17.71c-2.92-1.69-5.85-0.35-8.82-1.38c-2.8-0.97-2.36-3.69-5.89-4.02
		c-1.04,9.45-0.02,11.03,7.1,17.69c6.67,6.24,8.45,8.34,10.78,16.79c3.12,11.29,13.19,15.78,18.36,25.82
		c5.08,9.89,6.05,25.33,17.72,27.97C1817.71,943.04,1816.8,935.52,1816.89,925.72z"/>
	<path class="st0" d="M1899.51,859.85c-2.72-10.25,0.15-14.25-8.87-4.04c-3.69,4.18-11.79,6.33-14.55,9.93
		c-3.51,4.56,0.14,5.6-4.25,9.14c-3.18,2.56-7.89,0.36-10.33,3.85c-1.91,2.73-0.71,5.84-2.58,7.97c-2.05,2.34-6.85-1.64-5.73,4.68
		c-1.71,0.03-1.54-0.9-2.37-2.27l-6.08-1.08c-3.99,2.2,1.22,14.37,1.78,19.02c0.55,4.61-0.83,5.59,2.51,10.31
		c2.75,3.89,6.88,4.59,8.88,7.68c5.98,1.25,20.83-8.56,23.01,2.8c0.88,0.42,3.64,1.18,4.55,1.28c4.19-2.86,7.45-9.01,2.79-13.11
		c3.37-5.5,10.56-10.17,12.41-17.04c1.25-4.62-1.33-10.7-1.18-15.96c0.24-8.79,3.66-5.17,7.51-11.12
		C1910.73,866.14,1907.41,854.82,1899.51,859.85z"/>
	<path class="st0" d="M1855.63,952.27c-2.97-1.57-3.64-4.4-7.18-5.08c-1.89-0.36-5.09,2-7.59,1.71l-5.44-0.31
		c-3.46-3.13-18.73-8.35-18.36,0.23c11.02,5.68,19.41,8.78,31.32,10.74c5.12,0.84,19.76,8.27,24.62,4.96
		C1882.64,957.98,1859.47,954.3,1855.63,952.27z"/>
	<path class="st0" d="M1930.8,928.7c-1.18-2.08-5.85-3.96-6.09-5.82c-0.88-6.86,5.54-2.42,7.06-6.72c3.1-8.81-13.04-0.07-16.46-7.69
		c-0.86-0.2-1.58,0.12-2.15,0.97l-2.95,4.19c0.82,7.19-4.84,6.92-4.14,13.5c0.65,6.1,6.39,11.65,6.68,17.88
		c10.9-3.26,0.53-17.5,5.08-20.36c4.22-2.66,4.25,4.57,5.23,6.44c2.3,4.38,2.95,7.06,8.44,7.72
		C1932.87,935.99,1932.41,931.55,1930.8,928.7z"/>
	<path class="st0" d="M1952.24,969.9l-4.15,1.21c-2.94-1.43-12.06,6.99-16.03,8.65c-0.6,9.41,12.02-3.22,14.05-3.99
		c4.41-1.67,10.17,3.76,12.19-2.66C1956.9,971.12,1954.69,969.94,1952.24,969.9z"/>
	<path class="st0" d="M1977.64,927.72l-2.72-0.16c-2.97-0.15-5.41,1.71-6.31,4.58c6.81,0.96,17.54-0.49,21.99,5.71
		C1991.42,932.88,1981.46,925.94,1977.64,927.72z"/>
	<path class="st0" d="M1957.29,925.82l-0.76,1.41c-2.13,2.53-0.54,7.65,3.46,6C1964.27,931.47,1961.25,925.44,1957.29,925.82z"/>
	<path class="st0" d="M2105.3,980.23c-2.29-2.08-15-16.9-5.74-15.71c0.87-3.84-3.12-4.72-5.95-6.5c-4.93-3.1-5.7-4.28-9.37-8.9
		c-2.69-3.38-4.92-6.04-9.01-7.62c-6.55-2.52-7.75-2.88-13.01-7.38c-5.31-4.55-14.59-10.08-21.59-11.09
		c-5.92-0.86-13.47,8.44-17.97,4.4c0.53,0.54-1.84,2.43-2.4,4.84c-4.5,0.76-7.34-3.25-8.32-7.34c-0.46-1.91,1.12-5.18,0.21-6.9
		c-0.74-1.39-4.68-2.62-5.83-3.92l-6.19,1.1c-6.53,0.37-12.47,3.88-4.78,9.21c1.92,1.33,7.49-0.87,8.62,2.61
		c0.96,2.97-2.88,4-5.26,4.22c-0.84,8.74,9.75,4.17,13.29,4.81c3.58,0.65,6.59,4.54,9.37,6.58c4.12,3.02,8.26,3.59,12.43,6.1
		c4.71,2.84,4.41,6.12,6.35,10.63c1.06,2.46,1.24,3.76,2.84,5.83c0.86,1.11,3.91,1.2,4.54,2.32c1.84,3.26-1.53,6.51,0.43,9.41
		c1.84,2.72,16.76,5.08,20.11,4.27c0.07,0.88,0.53,1.88,0.59,2.69c5.76-0.03,6.85-6.07,3.12-10.01c3.86-4,9.71-3.61,13.96-0.74
		c1.37,0.93,1.07,4.2,2.58,5.33c1.67,1.25,4.79,0.08,6.07,1.54c4.27,4.84,6.59,15.38,16.68,13.74
		C2127.42,991.1,2107.62,982.33,2105.3,980.23z"/>
	<path class="st0" d="M2125.81,1127.18c1.71-7.48-2.12-14.29-4.87-20.92c-6.54-0.08-4.81-10.97-8.19-15.06
		c-5.86-7.08-10.81-7.04-12.63-16.7c-1.49-7.91-4.02-13.41-10.61-18.65c-2.4-1.91-5.16-2.04-6.76-5
		c-1.95-3.62-2.38-14.52-2.33-18.86c-7.46-0.51-3.36-15.92-13.51-10.43c-1.22-4.43-2.79-27.56-9.77-25.51
		c-9.56,2.82,2.41,37.71-8.69,36.9l-3.21,9.27c-3.28,5.77-12.61-6.28-16.27-8.21c-6.08-3.22-21.08-7.34-18.39-17.67
		c4.6-0.58,7.35-4.15,3.06-7.04c4.28-1.73,14.39-6.63,4.81-8.6c-2.47-0.51-5.56,2.64-9.13,1.55c-3.86-1.17-6.79-5.63-10.64-7.11
		c-11.01-4.24-3.8,3.28-7.33,6.36c-5.27,4.6-11.27-4.81-15.78,5.98c0.75,0.69,1.42,2.26,1.64,2.48c-3.1,1.07-6.02,3.17-7.72,6.1
		c0.79,0.25,2.04,1.52,3.34,1.74c0.44,7.39-4.84,1.75-8.17,0.91c-0.29,1.63-1.65,2.96-1.69,4.83c-5.09-0.12-0.55-4.51-2.16-7.32
		c-1.66-2.9-8.34-5.02-11.45-4.24c-4.6,1.15-11.47,11.2-14.5,15.18c-2.8,3.69-4.29,10.23-8.11,11.91c0.18-1.85,0.27-7.11-2.32-6.68
		c-3.8,0.63-2.7,7.83-3.67,10.23c-4.84,11.96-18.9,15.35-29.19,19.15c-11.01,4.06-25.68,2.77-29.42,17.12
		c-1.38,5.29,7.61,32.32-2.88,27.7c-1.39,5.86,4.18,8.84,6.78,13.09c3.29,5.38,5.06,10.75,5.5,17.24c0.26,3.84-0.64,6.19,0.45,10.07
		c0.89,3.17,4.81,6.53,4.16,9.86c-0.79,4.03-7.26,4.87-7.97,7.67c-1.42,5.6,5.73,7.1,9.6,8.16c7.22,1.98,7.79,0.08,13.81-3.5
		c5.96-3.54,10.71-4.11,17.49-3.87c4.72,0.16,11.82,2.77,16.18,0.94c4.63-1.94,6.41-7.95,11.42-10.04
		c6.62-2.75,12.65,1.15,18.79,0.09c4.9-0.84,7.47-5.81,12.53-6.66c4.47-0.75,10.64,1.7,15.12,2.17c6.05,0.63,7.95-0.71,11.5,5.48
		c1.38,2.42,0.5,5.24,2.47,7.65c1.64,2,4.44,1.71,6.16,3.56c3.72,3.99,2.38,7.44,4,12.54c9.49,1.39,6.53-18.26,16.12-17.7
		c2.87,6.37-4.35,11.13-3.25,16.84c1.25,6.5,5.79,2.13,9.75,5.92c5.44,5.2-0.9,14.96,7.12,20.05c4.3,2.73,11.02,1.78,15.8,3.61
		c2.75,1.06,4.16,4.12,7.13,3.29c2.77-0.78,3.07-6.7,6.12-6.7c3.58,0,4.8,6.24,7.63,7.85c3.81,2.17,4.98,0.77,9.01-0.98
		c3.36-1.46,5.97-2.33,9.85-3.42c5.72-1.62,6.92-3.93,8.46-9.67c0.88-3.26-0.41-6.01,0.84-9.19c1.86-4.73,6.66-6.65,8.89-10.86
		c2.31-4.35,1.67-8.96,3.77-13.12c2.53-5.04,6.91-5.59,8.66-11.43c2.15-7.18-2.58-13.86-1.22-20.77
		C2122.42,1132.14,2125.19,1129.88,2125.81,1127.18z"/>
	<path class="st0" d="M2068.65,1232l-6.91,1.78c14.89,1.89,0.17,19.93,11.36,23.59c4.66,1.53,13.87-2.71,15.14-7.98
		C2092.4,1232.15,2073.71,1239.24,2068.65,1232z"/>
	<path class="st0" d="M1932.94,769.48c-9.77-6.83-6.16,10.38-8.48,16.06c-1.17,2.86-4.21,1.36-4.42,4.94
		c-0.21,3.76,3.24,6.52,5.03,9.06l4.76,0.28c3.24-0.82,0.07-3.93,0.42-6.95c0.52-4.39,2.09-4.32,3.3-6.69
		C1936.33,780.76,1939.11,773.8,1932.94,769.48z"/>
	<path class="st0" d="M1963.03,854.19c0.15-2.75-0.57-5.59-2.26-7.47l-3.13-5.27c-5.31-0.44-7.9,2.84-12.34,4.29
		c-0.17-0.89-0.63-1.8-0.81-2.75c-2.06-0.31-7.15,1.4-7,4.56c0.23,4.91,9,2.27,10.63,6.15c1.64,3.91-6.36,9.74,2.85,9.99
		c7.24,0.19,5.35-7.86,2.78-12.21C1956.6,853.13,1959.77,855.78,1963.03,854.19z"/>
	<path class="st0" d="M1939.97,827.33c-7.01,5.43,1.05,10.26,3.47-1.25L1939.97,827.33z"/>
	<path class="st0" d="M1939.07,818.54l-4.04-0.96C1925.31,826,1940.67,830.35,1939.07,818.54z"/>
	<path class="st0" d="M1943.95,803.55l-7.51,0.29c2.33,4.74,8.6,8.66,13.75,8.69C1951.32,808.06,1947.51,805.12,1943.95,803.55z"/>
	<path class="st0" d="M1956.29,815.17l-0.83,2.86c-1.2,2.13-1.78,9.02,2.31,8.19C1961.96,825.36,1957.03,817.13,1956.29,815.17z"/>
	<path class="st0" d="M1928.81,806.31l-5.44-0.31C1924.02,817.3,1930.66,817.39,1928.81,806.31z"/>
	<path class="st0" d="M1936.07,720.15l-2.45-5.23c-5.75,2.12-9.75,13.53-7.87,19.92C1929.49,747.54,1936.21,726.09,1936.07,720.15z"
		/>
	<path class="st0" d="M1855.33,751.86l-4.08-0.24c-1.8,2.53-7.41,5.15-6.64,9.07c0.92,4.72,7.83,3.85,10.84,2.12
		c-0.44,0.25,7.39-7.5,7.19-6.7C1863.85,751.25,1860.04,749.27,1855.33,751.86z"/>
	<path class="st0" d="M2093.45,565.87c-4.42-2.27-9.59-13.9-13.9-9.63c-2.64,2.61,0.38,9.91-2.59,13.92
		c-2.04,2.76-5.81,2.7-7.17,4.33c-3.99,4.81-1.92,12.42-2.9,18.07c-1.31,7.55-2.34,16.86-5.42,24.26c-1.82,4.4-2.81,7.78-6.56,11.28
		c-4.43,4.15-6.92,0.78-11.89,2.18c-5.84,1.65-4.54,7.49-9.95,8.93c-3.75,1-8.49-2.83-12.84-1.96c-4.9,0.98-12.86,4.73-16.24,8.24
		c2.69,4.08,12.67-4.83,17.69,0.45c-2.69,4.26-10.4,7.42-14.48,4.84l-6.15,0.37c-2.87,1.77-6.54,3.72-6.43,7.52
		c2.1,0.8,4.18,1.23,6.54,1.32c-0.64,3.99-2.61,21.37,4.36,9.23c2.38-4.15-0.29-7.9,4.02-10.9c1.17-0.81,3.25,0.69,4.42,0.14
		c1.97-0.93,3.16-2.48,4.96-3.75c3.84-2.72,4.72-5.23,9.59-3.64c4.24,1.38,3.49,7.67,9.88,1.67c3.83-3.58,1.93-7.08,7.56-7.98
		c2.15-0.34,4.98,1.71,7.91,0.76c2.55-0.82,4.89-3.15,7.24-4.03c4.21-1.59,6.52,0.63,8.3-5.3c0.58-1.95-0.46-5.81-0.32-8.02
		c0.33-5.22,1.75-10.88,3.64-15.74c0.89,0.66,2.91,0.83,3.77,1.47c2.73-8.48-0.38-16.22-0.04-24.49c-0.94,0.25-2.16-0.06-3.22,0.36
		c0.06-4.95-0.85-7.48,3.76-8.47c3.05-0.66,5.59,2.18,8,3.1c6.64,2.53,2.85,3.04,7.69-2.04c1.96-2.05,0.91-2.49,3.69-4.43
		c2.96-2.07,8.12,0.58,8.37-5.25C2104.97,567.47,2096.83,567.61,2093.45,565.87z"/>
	<path class="st0" d="M2095.31,506.58c-1.05-2.76-3.06-9.94-3.54-12.78c-0.72-4.32,5.8-17.79,2.34-20.75
		c-4.03-3.44-5.49,7.16-7.18,9.11c-0.36-0.34-0.78-0.88-1.29-1.29c-1.4,4.31-1.15,9.05-1.38,13.59l2.38,6.69
		c-2.23,5.02-10.03,45.27-3.17,47.58c0.58-1.32,2.07-1.99,2.39-3.9c9.63,6.2,1.76-11.32,1.97-14.63
		c1.17-19.22,11.19-1.26,14.52-5.15C2105.97,520.84,2096.55,509.83,2095.31,506.58z"/>
	<path class="st0" d="M2369.08,289.78l-6.53-5.47c-5.17-2.67-15.04,3.94-16.78,9.1c7.58,0.4,16.47-1.44,24.48-1.51
		C2370.62,290.37,2369.75,290.63,2369.08,289.78z"/>
	<path class="st0" d="M2120.07,210.32c-1.53-2.55-8.81-4.12-11.39-4.75c-2.91-0.71-7.13-1.85-9.82-0.54
		c-2.97,1.44-2.45,4.72-4.4,5.93c-9.86,6.13-15.2-14.32-25.14-3.26c-4.51,5.02-4.04,11.03,1.63,14.24c6.55,3.7,5.18-1.89,9.32-1.84
		c3.35,0.04,3.31,2.92,5.34,3.4c3.65,0.86,3.64-0.88,6.45-1.08c3.73-0.27,6.97,2.12,11.1,2.42c0.93-5.09-5.25-8.33-4.12-11.07
		l8.87-0.21c-4.94,9.07,9.68,10.28,10.17,2.88C2121.37,216.19,2121.67,212.98,2120.07,210.32z"/>
	<path class="st0" d="M2157.16,220.89c-2.67-2.75-13.91-1.86-17.45-2.59l-3.96-2.41c-6.54-0.56-6.39,3.61-2.11,6.99
		c2.82,2.23,12.23,6.51,15.72,6.92C2154.25,230.37,2162.16,226.05,2157.16,220.89z"/>
	<path class="st0" d="M1842.3,142.27c-2.14,0.01-4.05-0.59-6.12,0.23c-0.39-1.11-0.09-1.73,0.23-2.86l-7.59,1.74
		c-1.55,2.74-1.67,4.89-3.38,7.08c-1.3,1.67-3.87,2.34-5.23,4.21c-7.25,9.96,3.01,6.23,9.02,4.74c6.23-1.55,20.91,3.78,24.67-2.97
		C1859.19,144.93,1841.53,151.25,1842.3,142.27z"/>
	<path class="st0" d="M1805.37,133.48l-3.4-0.2c-0.5,0.02-1.3,0.64-2.61-0.28c0.5-3.39,8.29-4.75,4.39-7.62
		c-7.78-0.4-37.69,0.99-23.61,11.02c1.04,0.74,4.02,0.4,5.29,0.97c1,0.45,3.8,3.3,5.2,4.17c4.36,2.72,16.71,8.72,21.59,6.01
		c6.22-3.45-0.57-2.68,0.25-7.11c0.89-4.81,4.44-3.27,6.04-6.72C1823.83,122.28,1807.81,132.2,1805.37,133.48z"/>
	<path class="st0" d="M1791.13,104.67c-5.1-0.83-4.94,3.42-9.34,4.86c-5.17,1.69-10.41-4.56-13.97,1.57
		c-2.73,4.71,0.3,8.09,4.88,7.52c-1.3,2.61-1.19,5.92,1.01,8.04c3.69-5.92,8.05-6.66,14.98-7.24c4.53-0.38,10.69,1.02,11.51-4.43
		l1.55-3.55C1797.03,110.97,1795.37,105.36,1791.13,104.67z"/>
	<path class="st0" d="M1597.71,165.97c-6.55-4.85-18.12,3.31-24.63,4.26c-10.56,1.55-20.52-0.41-30.77,4.03
		c-12.39,5.37-16.3,13.39-25.06,22.47c-5.55,5.75-14.64,6.6-17.96,14.12c-1.1,2.5,0.16,5.65-1.86,8.15
		c-1.78,2.2-7.33,2.52-9.73,4.63c-11.37,10,1.05,7.61,5.84,10.34c4.66,2.66,7.22,9.61,12.6,12.62c4.16,2.32,10.91,6.31,15.48,4.95
		c0.08-0.92,0.17-1.75,0.14-2.69c-6.08-1.04-3.67-5.22-5.36-9.31c-1.77-4.29-8.02-6.83-6.95-11.76c3.37-2.61,3.23-8.84,5.97-12.15
		l3.59-3.43c2.27-2,5.45-2.08,7.67-3.62c2.21-1.54,4.09-4.88,6.29-6.89c5.63-5.13,14.09-10.63,20.92-13.53
		c6.77-2.88,14.61-3.97,21.59-6.12c6.3-1.94,17.2-2.4,22.32-6.67C1601.27,172.49,1602,169.15,1597.71,165.97z"/>
	<path class="st0" d="M1565.41,94.85c-3.27-1.49-7.13,1.21-10.85,2.08c-4.86,1.14-9.18,1.11-14.08,1.57
		c-6.21,0.57-14.83,2.43-15.29,10.63c7.69,4.05,19.47-6.74,28.2-6.24c9.82,0.56,17.16-0.3,26.06-2.86L1565.41,94.85z"/>
	<path class="st0" d="M1480.99,92.88c-5.78,4.01-24.08-6.78-26.71,3.44c2.87-0.07,5.95,0.66,8.63,1.45
		c-3.08,16.39,24.56-1.33,25.37-0.82L1480.99,92.88z"/>
	<path class="st0" d="M1319.22,94.36c-6.21-0.9-11.77,1.9-18.22,0.48c-3.69-0.81-3.56-5.39-8.19-1.22l-6.08-1.08
		c-6.98-3.07-15.98-6.23-16.52,4.75c6.55,0.7,12.89,2.25,19.49,2.8c-2.17,3.67-13.19,2.71-10.26,6.94
		c3.97,5.74,14.21-2.5,18.12-1.43c3.37,0.93,4.13,5.39,7.95,6.34C1313.81,114.04,1334.8,96.61,1319.22,94.36z"/>
	<path class="st0" d="M1304.22,130.34c-3.91-4.42-10.67-7.85-15.87-10.18c-3.86-1.72-9.02-2.26-12.35-4.95l-16.04-6.02
		c0.84-4.83-2.66-10.85-7.55-9.78c-1.11,2.86-1.26,6.07-1.38,9.16c-4.65-0.31-9.02-10.95-12.66-10.14
		c-3.53,0.79-0.52,5.28-2.07,7.23c-3.08,3.86-1.53,0.62-5.14-0.7c-6.61-2.42-21.05-4.81-13.07,8.18
		c6.44,10.48,14.31,11.62,21.07,2.86c3.68,1.97,8.33,6.72,12.64,5.38c-5.51,4.49-14.51,2.61-18.93,8.05
		c2.63,3.3,8.21,0.89,12.13,1.56c-4.15,4.32-11.09,1.05-8.47,7.53c2.92,7.22,13.96,5.37,17,13.32c6.86-4.15,5.11-13.35,10.52-17.63
		c2.6-2.06,8.3,0.56,9.89-3.22c1.08-2.58-2.72-5.24-2.15-7.32c1.36-5.02,6.96-3.3,10.23,0.55c4.67,5.5,1.19,13.93,10.98,13.16
		C1294.59,146.8,1315.48,143.08,1304.22,130.34z"/>
	<path class="st0" d="M1020.84,273.42c-1.07,1.78-2.03,3.26-1.66,5.86c-2.14-0.67-3.75-0.8-5.25-2.99
		c-0.51,1.43-2.39,2.81-2.91,3.81c-0.97-2.63-2.54-2.68-3.99-3.92c-0.59,2.41-0.7,5.07-0.33,7.57c-0.93-1.44-2.96-2.84-3.86-4.67
		c-2.22,0.96-4.69,0.84-6.77-0.51c-2.58,3.46-0.05,9.5-5.23,9.3l-1.92-2.29c-0.91-6.5-3.33-17.14-11.68-13.04
		c1.8,1.2,3.83,3.42,4.49,5.93c-2.8,1.16-5.57-0.2-7.91-1.67c-0.15,5.99,7.35,5.24,9.67,10.1c1.85,3.89-0.41,5.83,0.11,9.28
		c1.2,7.98,10.7,11.66,17.84,13.42c6.45,1.59,12.38-2.16,18.17-5.74c4.11-2.54,9.42-4.07,13.01-6.24
		C1048.75,287.86,1026.27,278.79,1020.84,273.42z"/>
	<path class="st0" d="M1085.51,406.46c-4.82-5.42-10.31,1.97-13.47-3.35c-0.8,1.02-2.37,2.4-2.92,3.5l0.49,3.67
		c-2.74,7.53-7.65-1.01-11.22,4.42c0.45,0.63,0.92,1.73,1.27,2.29c-3.48,1.39-8.09,1.08-9.09,5.99c3.42,5.79,11.52,1.01,13.32,4.76
		c1.64,3.42-5.17,7.13-5.86,9.37c6.69,3.96,8.37-3.4,13.47-4.93c4.55-1.37,6.59,3.18,11.12-1.65c7.4-7.89-2.68-12.6-6.36-16.95
		C1079.53,411.01,1094.52,416.59,1085.51,406.46z"/>
	<path class="st0" d="M1135.95,435.36c-2.95-4.49-7.81-8.16-12.12-3.56c-3.01-3.36,0.3-6.65,0.31-10.53
		c0.01-4.46-4.15-11.61-6.62-14.77c-1.71-2.19-3.82-7.04-4.84-7.77c-2.59-1.86-6.15-0.09-8.9-1.16c0.39-4.78,21.7-20.89,3.57-17.46
		c-1.94,0.37-13.08,4.64-9.4-2.77c2.3-4.61,8.14-1.15,9.94-8.56c-3.22-1.98-8.83-3-12.17-0.95c-3.03,1.86-1.7,5.77-5.65,5.83
		c-2.43,5.45,0.52,11.13-0.69,16.67c-0.95,4.33-4.85,6.5-3.01,11.35c1.67,0.16,1.14-0.27,2.36-1.15c0.23,0.29,0.46,1.36,0.85,1.33
		c1.23-2.89,2.45-5.89,4.78-7.62c0.96,3.34-1.85,12.86,1.18,14.91c2.03,1.38,5.19-2.73,8.35-1.36c9.67,4.17-6.04,11.02-1.71,18.08
		c-2.42,0.97-5.02,1.42-7.54,2c0.72,2.54-0.62,2.67,2.31,4.55c-2.38,0.09-3.36,1.63-4.89,2.45c1.62,1.54,13.26,4.02,14.91,3.75
		l0.49,3.67c-3.6-0.48-11.23-0.81-14.38,1.16c-1.9,1.19-4.79,3.81-3.27,6.59c2.05,3.76,7.05,0.04,9.74-0.66
		c6.24-1.61,12.12,0.11,17.78,0.07c0.73,0,1.74-1.77,2.8-1.91c1.11-0.14,2.6,1.72,3.87,1.57c3.03-0.36,5.57,0.31,6.37-3.36
		C1121.48,443.92,1134.47,437.89,1135.95,435.36z"/>
	<path class="st0" d="M1180.5,544.02l-3.47,1.25c-0.28,4.98-1.98,10.26-1.37,15.09c2.75,0.33,3.28,0.44,4.23-2.45
		c0.84,0.21,2.28,0.05,3.18,0.04C1183.74,554.16,1184.86,544.65,1180.5,544.02z"/>
	<path class="st0" d="M1213.82,571.41l-2.64-1.61c-2.84-0.6-5.81-0.57-8.18,0.97c2.81,4.32,13.31,9.88,18.42,9.71
		C1224.73,572.94,1217.6,573.19,1213.82,571.41z"/>
	<path class="st0" d="M699.29,473.27c-3.97,0.32-4.31,0.86-7.95-0.5c-2.13-0.8-2.51-2.9-5.23-3.19l-0.15,2.9
		c1.52,1.5,3.09,3.09,5.19,4.1c-2,2.81-7.65,1.99-10.76,3.57c-4.08,2.08-7.74,5.56-8.8,10.26c5.48,3.59,11.37-3.41,16.27-6.01
		c4.76-2.53,11.53-3.18,15.79-5.72C711.24,474.13,704.86,472.82,699.29,473.27z"/>
	<path class="st0" d="M755.27,451.64c-1.23-6.22,4.72-4.99,5.18-9.66c-5.87-3.43-17.74,6.42-17.41-6.13
		c-2.06,0.46-3.9,0.93-5.43,3.04c-0.65-4.33,6.03-5.67,6.58-11.05l-4.76-0.27c-7.07,1.95-6.38,9.76-7.11,16.2
		c-4.65,2.08-5.82,3.05-7.23,7.15c-0.2,0.59-1.61,4.81-1.44,5.26c3.1,8.17,7.75,2.08,12.22,0.96c5-1.26,10.03,1.11,15.23,1.31
		c2.35,0.09,5.21,1.68,7.24-0.65C760.86,454.88,758.65,451.54,755.27,451.64z"/>
	<path class="st0" d="M2256.06,1286.44c-0.2-1.78,0.48-3.65,0.82-4.26l-4.72-1c-7.57,4.85-8.35,19.32-17.33,24.85
		c-6.5,4.01-17.66,5.49-22.68,12.12c-5.1,6.73-0.65,7.53,3.33,9.63c3.44,1.82,7.38,6.29,10.05,6.8
		c10.83,2.08,14.16-13.47,17.44-20.49c2.64-5.66,8.23-6.52,11.34-11.54c1.09-1.76,0.55-5.55,1.06-6.27c1.03-1.45,4.81-2.72,5.4-3.75
		C2262.8,1289.02,2261.77,1281.53,2256.06,1286.44z"/>
	<path class="st0" d="M2292.01,1263.11c0.21-2.92-1.14-7.88-4.19-8.92c-2.66-0.91-4.07,2.85-6.09,2.43
		c-8.75-1.8-11.56-17.31-17.51-23.92c-5.29,5.82,5.3,11.81-0.18,17.16l5.02,8.29c6.4,2.66,2.17,8.07-0.53,10.22
		c-2.55,2.03-10.75,3.01-4.48,8.35c1.86,1.58,6.67-1.07,8.36,0.93c2.42,2.87-1.15,4.88-0.51,6.85c3.16,9.77,16.85-6.27,12.04-13.16
		C2288.19,1268.5,2291.51,1269.96,2292.01,1263.11z"/>
</g>
</svg>
